<svg xmlns="http://www.w3.org/2000/svg" viewBox="0 0 11.63 11.63"><defs><style>.cls-1{fill:#425f66;}</style></defs><g id="Capa_2" data-name="Capa 2"><g id="Layer_1" data-name="Layer 1"><path class="cls-1" d="M5.65,2.24V3.46a.16.16,0,0,0,.16.16A.17.17,0,0,0,6,3.46V2.24A1.13,1.13,0,0,0,5.81,0,1.14,1.14,0,0,0,4.68,1.13,1.12,1.12,0,0,0,5.65,2.24ZM5.81.33a.8.8,0,1,1-.8.8A.8.8,0,0,1,5.81.33ZM3.46,5.65H2.24a1.12,1.12,0,0,0-1.11-1,1.13,1.13,0,0,0,0,2.26A1.12,1.12,0,0,0,2.24,6H3.46a.17.17,0,0,0,.16-.17A.16.16,0,0,0,3.46,5.65Zm-2.33,1a.81.81,0,1,1,.8-.81A.8.8,0,0,1,1.13,6.62ZM6,9.38V8.17A.17.17,0,0,0,5.81,8a.16.16,0,0,0-.16.16V9.38a1.13,1.13,0,1,0,.33,0ZM5.81,11.3a.8.8,0,1,1,.81-.8A.8.8,0,0,1,5.81,11.3ZM10.5,4.68a1.13,1.13,0,0,0-1.12,1H8.17A.16.16,0,0,0,8,5.81.17.17,0,0,0,8.17,6H9.38a1.13,1.13,0,1,0,1.12-1.3Zm0,1.94a.81.81,0,1,1,.8-.81A.81.81,0,0,1,10.5,6.62ZM5.81,4a1,1,0,1,0,1,1A1,1,0,0,0,5.81,4Zm0,1.6A.64.64,0,0,1,5.17,5,.64.64,0,0,1,6.45,5,.64.64,0,0,1,5.81,5.62ZM6.65,6H5a.79.79,0,0,0-.8.79V7a.16.16,0,0,0,.06.13,2.41,2.41,0,0,0,3.14,0A.16.16,0,0,0,7.44,7V6.83A.79.79,0,0,0,6.65,6Zm.46.88a1.85,1.85,0,0,1-.33.21V6.76a.16.16,0,1,0-.32,0v.51a2.06,2.06,0,0,1-.65.11,2,2,0,0,1-.64-.11V6.76a.16.16,0,1,0-.32,0v.38a2,2,0,0,1-.34-.22V6.83A.47.47,0,0,1,5,6.37H6.65a.47.47,0,0,1,.46.46Z"/></g></g></svg>