<svg xmlns="http://www.w3.org/2000/svg" viewBox="0 0 81.44 71.1"><defs><style>.cls-1{fill:#ff9045;}</style></defs><g id="Capa_2" data-name="Capa 2"><g id="Layer_1" data-name="Layer 1"><g id="mgQRnH.tif"><path class="cls-1" d="M62.68,2.06,60.62,4.55c-.11,0-.22,0-.26-.07-.93-1.12-2.17-1.16-3.5-1.15-5.43,0-10.86,0-16.29,0a4.27,4.27,0,0,0-3.3,1.36Q21.1,20.86,4.88,36.94a4.27,4.27,0,0,0-1.47,2.79,3.44,3.44,0,0,0,1,2.79q12,12,24,23.95c1.76,1.75,4,1.67,5.81-.15l26.54-26.4c2.16-2.16,4.31-4.33,6.5-6.46a4.46,4.46,0,0,0,1.38-3.33q0-8.67,0-17.34a1.89,1.89,0,0,0-.5-1.09,17.81,17.81,0,0,0-1.46-1.31l2.19-2.54c1,.87,2,1.66,2.86,2.51a1.52,1.52,0,0,1,.28.94q0,6.07,0,12.15v1.08c.35-.14.59-.23.83-.34A9.43,9.43,0,0,0,78,14.52a9.18,9.18,0,0,0-16.47-4.18.68.68,0,0,0,.11,1.08c1,.91,1.88,1.85,2.79,2.75l-2.32,2.26L55.52,9.77l2.23-2.23.91.8a30.69,30.69,0,0,1,3.19-2.82,11.9,11.9,0,0,1,13.09-.69A11.87,11.87,0,0,1,81.43,16.3a12.56,12.56,0,0,1-8.78,11.54.82.82,0,0,0-.68,1,19.66,19.66,0,0,1-.12,2.66,6.85,6.85,0,0,1-2.07,4.2Q53.12,52.25,36.45,68.81a7.12,7.12,0,0,1-10.49,0Q14.08,56.95,2.24,45.06a6.92,6.92,0,0,1,0-10.19C5.09,32,8,29.11,10.89,26.23Q23,14.14,35.19,2A6.59,6.59,0,0,1,40,0H59.65a1.42,1.42,0,0,1,.82.22C61.2.79,61.88,1.4,62.68,2.06Z"/><path class="cls-1" d="M23.68,28.36C23.53,26,24.31,24,26.61,23a7.6,7.6,0,0,1,6.06,0,4.43,4.43,0,0,1,2.85,3.66,13,13,0,0,1,0,3.53,5,5,0,0,1-4.68,4.29,12.36,12.36,0,0,1-2.58,0,5.08,5.08,0,0,1-4.61-5.08C23.67,29,23.68,28.75,23.68,28.36Zm8.65.26c0-1.59-.19-2.23-.93-2.54a4.26,4.26,0,0,0-3.46,0c-1.36.64-1.39,4.05,0,4.73a3.94,3.94,0,0,0,3.51,0C32.38,30.36,32.37,29.4,32.33,28.62Z"/><path class="cls-1" d="M45,46.54a4.89,4.89,0,0,1-5-2.43,7.33,7.33,0,0,1,0-7,4.3,4.3,0,0,1,3.47-2.38,13.82,13.82,0,0,1,3.46,0,5,5,0,0,1,4.31,5,14,14,0,0,1,0,2.34,5.06,5.06,0,0,1-5.07,4.53C45.79,46.56,45.46,46.54,45,46.54Zm.26-8.63a2.42,2.42,0,0,0-2.29.71,4.67,4.67,0,0,0,0,3.87c.79,1,3.69,1,4.51,0a4.42,4.42,0,0,0,0-3.93A2.34,2.34,0,0,0,45.25,37.91Z"/><path class="cls-1" d="M32,47.39,29.1,45.73c4.59-8,9.15-16,13.78-24.11l2.91,1.66C41.21,31.31,36.64,39.3,32,47.39Z"/></g></g></g></svg>