<svg xmlns="http://www.w3.org/2000/svg" viewBox="0 0 24.53 24.53"><defs><style>.cls-1{fill:#57b51a;}.cls-2{fill:#fff;}</style></defs><g id="Capa_2" data-name="Capa 2"><g id="Layer_1" data-name="Layer 1"><circle class="cls-1" cx="12.27" cy="12.27" r="12.27"/><g id="HEmuSH.tif"><path class="cls-2" d="M16,9.53a.41.41,0,0,1-.44.26h-2a.35.35,0,0,0-.4.4v1H15.3a.35.35,0,0,1,.37.44c-.11.68-.23,1.37-.34,2.06A.36.36,0,0,1,15,14H13.22v3.46c0,.27-.13.4-.41.4H10.44a.34.34,0,0,1-.38-.38V14H8.33A.35.35,0,0,1,8,13.63V11.57a.34.34,0,0,1,.37-.37h1.74v-.13c0-.82,0-1.64,0-2.46a1.89,1.89,0,0,1,.61-1.41,2.18,2.18,0,0,1,1.2-.55l.1,0h3.82a.51.51,0,0,1,.24.26ZM14.91,11.9h-2a.35.35,0,0,1-.39-.4V10.13a1,1,0,0,1,1-1h1.77V7.33h-3a1.8,1.8,0,0,0-.46,0,1.21,1.21,0,0,0-1,.84,2.18,2.18,0,0,0-.08.57v2.73a.35.35,0,0,1-.38.38H8.66v1.4h1.71a.36.36,0,0,1,.39.4v3.46h1.76V13.7a.35.35,0,0,1,.39-.4h1.66c.06,0,.11,0,.12-.07C14.76,12.79,14.83,12.35,14.91,11.9Z"/></g></g></g></svg>