<svg xmlns="http://www.w3.org/2000/svg" viewBox="0 0 24.53 24.53"><defs><style>.cls-1{fill:#57b51a;}.cls-2{fill:#fff;}</style></defs><g id="Capa_2" data-name="Capa 2"><g id="Layer_1" data-name="Layer 1"><circle class="cls-1" cx="12.27" cy="12.27" r="12.27"/><g id="_3iLQ19.tif" data-name="3iLQ19.tif"><path class="cls-2" d="M10.81,6.62c.11,0,.22.06.33.11A1.41,1.41,0,0,1,12,8V9.79h.13c.88,0,1.75,0,2.63,0a1.41,1.41,0,0,1,.3,2.8l-.3,0H12v1.93a.44.44,0,0,0,.43.51l.32,0h1.7a1.41,1.41,0,0,1,.3,2.78,1.66,1.66,0,0,1-.32,0c-1.14,0-2.28,0-3.42,0a1.61,1.61,0,0,1-1.71-1.33c0-.18-.06-.37-.09-.55,0,0,0-.06,0-.1V7.83l0,0a1.35,1.35,0,0,1,.69-1c.15-.08.33-.12.49-.19Zm-.9,5.25h0v3.71a2.73,2.73,0,0,0,.17,1,.85.85,0,0,0,.61.54,1.87,1.87,0,0,0,.34,0h3.43a.71.71,0,1,0,0-1.41H12.64a1.64,1.64,0,0,1-.65-.13,1.08,1.08,0,0,1-.68-1c0-.79,0-1.57,0-2.35a.35.35,0,0,1,.37-.37H14.8a.71.71,0,1,0,0-1.41H11.71a.35.35,0,0,1-.4-.4c0-.68,0-1.36,0-2a.69.69,0,0,0-.85-.7.71.71,0,0,0-.55.72Z"/></g></g></g></svg>