<svg xmlns="http://www.w3.org/2000/svg" viewBox="0 0 24.53 24.53"><defs><style>.cls-1{fill:#57b51a;}.cls-2{fill:#fff;}</style></defs><g id="Capa_2" data-name="Capa 2"><g id="Layer_1" data-name="Layer 1"><circle class="cls-1" cx="12.27" cy="12.27" r="12.27"/><g id="DZ3mre.tif"><path class="cls-2" d="M12.46,17.86h-.71l-.07,0a5.55,5.55,0,0,1-2.83-1,.17.17,0,0,0-.18,0c-.54.23-1.09.44-1.63.66a.38.38,0,0,1-.43-.07A.4.4,0,0,1,6.52,17c.18-.69.35-1.39.53-2.09a.37.37,0,0,0,0-.23,5.56,5.56,0,0,1-.42-3.5,5.61,5.61,0,1,1,6.54,6.63C12.92,17.81,12.69,17.83,12.46,17.86ZM7.41,16.5,8.59,16a.49.49,0,0,1,.54.07,4.78,4.78,0,0,0,3.77,1,4.86,4.86,0,1,0-5.66-5,4.81,4.81,0,0,0,.54,2.38.53.53,0,0,1,0,.39l-.12.5C7.6,15.72,7.51,16.09,7.41,16.5Z"/><path class="cls-2" d="M11.6,11.68l1.07,1.08c.08-.07.15-.16.23-.24a1.12,1.12,0,0,1,1.63,0L15,13a1.12,1.12,0,0,1,0,1.62,5.58,5.58,0,0,1-.72.66,2.12,2.12,0,0,1-1.82.23A4.14,4.14,0,0,1,11,14.75a7.36,7.36,0,0,1-1.77-1.92,3.14,3.14,0,0,1-.52-1.74,1.9,1.9,0,0,1,.57-1.34l.42-.41a1.12,1.12,0,0,1,1.61,0l.51.52a1.12,1.12,0,0,1,0,1.6Zm1.59,3.19a1.19,1.19,0,0,0,.8-.28,5.78,5.78,0,0,0,.5-.49.37.37,0,0,0,0-.56L14,13.05a.38.38,0,0,0-.58,0c-.16.16-.32.33-.49.49a.37.37,0,0,1-.56,0L10.82,12a.38.38,0,0,1,0-.57l.5-.5a.38.38,0,0,0,0-.55l-.51-.5a.37.37,0,0,0-.56,0l-.43.43a1,1,0,0,0-.29.51,1.82,1.82,0,0,0,.2,1.31,5.93,5.93,0,0,0,2.44,2.47A2.11,2.11,0,0,0,13.19,14.87Z"/></g></g></g></svg>