<svg xmlns="http://www.w3.org/2000/svg" viewBox="0 0 27.89 28.49"><defs><style>.cls-1{fill:#fff;}</style></defs><g id="Capa_2" data-name="Capa 2"><g id="NadaHero_Imagen" data-name="NadaHero Imagen"><g id="RqY5FD.tif"><path class="cls-1" d="M15,0c.6.08,1.2.14,1.79.24a14.11,14.11,0,0,1,6.8,3.29.46.46,0,0,1,0,.76q-1.95,2-3.9,3.9c-.26.26-.47.25-.79,0a7.46,7.46,0,0,0-4.75-1.63,7.67,7.67,0,0,0-2.37,14.94,8.28,8.28,0,0,0,6.05-.34,5.71,5.71,0,0,0,2.59-2.27c.2-.33.46-.42.71-.26s.27.43.08.76a6.84,6.84,0,0,1-1.82,1.94L23,24.13a11.92,11.92,0,0,0,2.9-4.26,14.17,14.17,0,0,0,.82-7.52H14.91v4.24H21.6c.33,0,.54.19.53.47a.47.47,0,0,1-.53.44H14.48c-.35,0-.52-.17-.52-.54V12c0-.39.18-.56.57-.56H27.05a.49.49,0,0,1,.55.42c1.18,5.63-1.18,13.75-9.46,16.11a14.19,14.19,0,0,1-17.86-11,13.58,13.58,0,0,1,.9-8.32A13.89,13.89,0,0,1,11.26.33c.62-.15,1.27-.18,1.9-.27L13.48,0ZM6.21,11.17A8.48,8.48,0,0,1,11.81,6a8.34,8.34,0,0,1,7.45,1.24L22.6,3.9l-.22-.18A13.29,13.29,0,0,0,2.53,7.92a.29.29,0,0,0,.1.46c.24.16.46.35.68.52Zm-3,10.5c4.52,6.81,13.83,7.48,19.06,3.09,0,0,0,0,0,0L18.69,22a.33.33,0,0,0-.26,0,9.11,9.11,0,0,1-3.27.86,8.52,8.52,0,0,1-6.78-2.3c-.52-.49-1-1.08-1.47-1.65Zm-.52-.79.24-.17,3.35-2.56a.29.29,0,0,0,.11-.43,8.43,8.43,0,0,1-.53-5.33.4.4,0,0,0-.17-.45L2.21,9.23A1.91,1.91,0,0,0,2,9.06,13.5,13.5,0,0,0,2.7,20.88Z"/></g></g></g></svg>