<svg xmlns="http://www.w3.org/2000/svg" viewBox="0 0 26.57 26.58"><defs><style>.cls-1{fill:#fff;}</style></defs><g id="Capa_2" data-name="Capa 2"><g id="NadaHero_Imagen" data-name="NadaHero Imagen"><g id="yB1nPw.tif"><path class="cls-1" d="M26.57,24.5c0,.1-.05.19-.08.29a2.35,2.35,0,0,1-2.22,1.78c-1.91,0-3.83,0-5.75,0-.33,0-.48-.18-.48-.57V18c0-.43,0-.87,0-1.3s.17-.57.58-.57h2.79l.37-2.87H18.65c-.45,0-.61-.16-.61-.6,0-1.2,0-2.39,0-3.59A1.42,1.42,0,0,1,19.53,7.6h2.28V4.74H18.54A3.31,3.31,0,0,0,15.18,8.1c0,1.49,0,3,0,4.48,0,.57-.13.7-.69.7H11.39v2.87h3.19c.43,0,.59.16.59.58,0,3.09,0,6.17,0,9.26,0,.36-.17.57-.45.58s-.48-.21-.48-.58V17.08H11.06c-.45,0-.62-.16-.62-.6V13c0-.44.17-.6.62-.6h3.18V8.16A4.27,4.27,0,0,1,18.6,3.8h3.56c.45,0,.61.17.61.61V7.94c0,.43-.17.59-.59.6H19.57c-.43,0-.6.16-.6.58v3.23h3.2c.46,0,.64.22.58.67-.16,1.17-.3,2.34-.45,3.5-.05.44-.19.56-.63.56H19v8.56H24.1a1.43,1.43,0,0,0,1.53-1.54V2.48A1.43,1.43,0,0,0,24.09.94H2.47A1.43,1.43,0,0,0,.94,2.48q0,10.8,0,21.6a1.43,1.43,0,0,0,1.57,1.56h10a2.26,2.26,0,0,1,.26,0,.47.47,0,0,1,.47.48.46.46,0,0,1-.46.45H2.55A2.38,2.38,0,0,1,0,24V2.59A2.37,2.37,0,0,1,2,0S2,0,2.07,0H24.5l.19.06a2.33,2.33,0,0,1,1.79,1.71l.09.31Z"/></g></g></g></svg>