<svg xmlns="http://www.w3.org/2000/svg" viewBox="0 0 12.27 12.27"><defs><style>.cls-1{fill:#57b51a;}.cls-2{fill:#fff;stroke:#fff;stroke-linecap:round;stroke-linejoin:round;stroke-width:0.25px;}</style></defs><g id="Capa_2" data-name="Capa 2"><g id="Layer_1" data-name="Layer 1"><circle class="cls-1" cx="6.14" cy="6.14" r="6.14"/><g id="AoBDxm.tif"><path class="cls-2" d="M6.13,8.67c-.12-.15-.25-.3-.36-.46a9.71,9.71,0,0,1-1.1-1.68,2.88,2.88,0,0,1-.32-.92,1.69,1.69,0,0,1,.3-1.22A1.79,1.79,0,0,1,7.77,6.13,5.78,5.78,0,0,1,7.1,7.38a11.45,11.45,0,0,1-.94,1.26Zm0-.4,0,0c.25-.34.51-.68.74-1A5.14,5.14,0,0,0,7.57,6a1.65,1.65,0,0,0,.09-.85A1.55,1.55,0,0,0,5.1,4.24a1.47,1.47,0,0,0-.5,1.34,2.35,2.35,0,0,0,.24.72,9.35,9.35,0,0,0,.93,1.5C5.88,8,6,8.11,6.13,8.27Z"/><path class="cls-2" d="M5.45,5.4a.69.69,0,1,1,1.37,0,.69.69,0,0,1-1.37,0Zm1.12,0A.44.44,0,0,0,6.13,5a.43.43,0,0,0-.43.43.44.44,0,0,0,.87,0Z"/></g></g></g></svg>