<svg xmlns="http://www.w3.org/2000/svg" viewBox="0 0 21.81 21.81"><defs><style>.cls-1{fill:#358402;}.cls-2{fill:#fff;}</style></defs><g id="Capa_2" data-name="Capa 2"><g id="Layer_1" data-name="Layer 1"><circle class="cls-1" cx="10.91" cy="10.91" r="10.91"/><path class="cls-2" d="M11.81,8h3.33a.66.66,0,0,1,.62.92l-1.32,3.25a.65.65,0,0,1-.61.41H9.53a.62.62,0,0,1-.6-.41l-.57-1.36L6.71,6.9a.24.24,0,0,0-.26-.17H5.27a.21.21,0,0,1-.21-.28.22.22,0,0,1,.19-.14c.43,0,.86,0,1.29,0a.59.59,0,0,1,.54.41c.25.58.5,1.17.74,1.75L9.3,12a.26.26,0,0,0,.29.19H13.8a.25.25,0,0,0,.27-.19c.44-1.07.87-2.14,1.3-3.21a.32.32,0,0,0,0-.17.22.22,0,0,0-.23-.19H8.4a.2.2,0,0,1-.21-.21A.2.2,0,0,1,8.4,8h3.41Z"/><path class="cls-2" d="M13.84,13.21a1.15,1.15,0,1,1-1.15,1.14A1.14,1.14,0,0,1,13.84,13.21Zm0,1.88a.74.74,0,1,0-.73-.74A.73.73,0,0,0,13.84,15.09Z"/><path class="cls-2" d="M9.23,15.5a1.15,1.15,0,1,1,1.15-1.14A1.14,1.14,0,0,1,9.23,15.5Zm0-.41a.74.74,0,1,0-.73-.74A.74.74,0,0,0,9.23,15.09Z"/></g></g></svg>