<svg xmlns="http://www.w3.org/2000/svg" viewBox="0 0 9.45 8.79"><defs><style>.cls-1{fill:#ffe6e6;}</style></defs><g id="Capa_2" data-name="Capa 2"><g id="Layer_1" data-name="Layer 1"><path class="cls-1" d="M4.7,8.79h0A1,1,0,0,1,4,8.45L2.73,7.17C2.1,6.54,1.46,5.9.84,5.26a2.82,2.82,0,0,1-.84-2A3.25,3.25,0,0,1,1.48.49,3,3,0,0,1,4.43.33.52.52,0,0,0,5,.32a3.09,3.09,0,0,1,3.81.89,3,3,0,0,1-.14,4C7.91,6,7.13,6.72,6.38,7.47l-1,1A.94.94,0,0,1,4.7,8.79ZM3.09.8a2.23,2.23,0,0,0-1.19.35A2.48,2.48,0,0,0,.78,3.28h0A2,2,0,0,0,1.4,4.71C2,5.35,2.65,6,3.29,6.62L4.56,7.9A.33.33,0,0,0,4.7,8a.27.27,0,0,0,.11-.08l1-1c.75-.74,1.52-1.5,2.25-2.28a2.26,2.26,0,0,0,.09-2.94A2.27,2.27,0,0,0,5.33,1,1.25,1.25,0,0,1,4.09,1,2.43,2.43,0,0,0,3.09.8Z"/></g></g></svg>