<svg xmlns="http://www.w3.org/2000/svg" viewBox="0 0 24.14 24.14"><defs><style>.cls-1{fill:#57b51a;}.cls-2{fill:#fff;}.cls-3{fill:none;stroke:#fff;stroke-linecap:round;stroke-linejoin:round;stroke-width:0.25px;}</style></defs><g id="Capa_2" data-name="Capa 2"><g id="Layer_1" data-name="Layer 1"><circle class="cls-1" cx="12.07" cy="12.07" r="12.07"/><path class="cls-2" d="M16.37,15.12l-2-2.33a3.71,3.71,0,0,0-2.89-5.62,3.69,3.69,0,1,0-.26,7.38,3.59,3.59,0,0,0,1.47-.31l2,2.34a1.12,1.12,0,0,0,1.57.11,1.14,1.14,0,0,0,.38-.76A1.12,1.12,0,0,0,16.37,15.12Zm-7.7-2.07a3.35,3.35,0,0,1,2.51-5.54h.24a3.36,3.36,0,0,1,2.29,1.14,3.35,3.35,0,0,1-.33,4.72A3.34,3.34,0,0,1,8.67,13.05ZM16,16.43A.77.77,0,0,1,15,16.35l-2-2.27a3.26,3.26,0,0,0,.63-.44,3.52,3.52,0,0,0,.53-.56l2,2.27A.78.78,0,0,1,16,16.43Zm-3.09-7.1A2.33,2.33,0,0,0,8.87,10.7a2.29,2.29,0,0,0,.57,1.68,2.32,2.32,0,0,0,1.59.8h.16a2.29,2.29,0,0,0,1.52-.57A2.33,2.33,0,0,0,12.94,9.33Zm-.46,3a2,2,0,0,1-1.43.48,2,2,0,0,1-1.35-.68,1.91,1.91,0,0,1-.48-1.43,2,2,0,0,1,.67-1.35,2,2,0,0,1,1.3-.49h.14a2,2,0,0,1,1.35.67h0A2,2,0,0,1,12.48,12.35Z"/><path class="cls-3" d="M16.37,15.12l-2-2.33a3.71,3.71,0,0,0-2.89-5.62,3.69,3.69,0,1,0-.26,7.38,3.59,3.59,0,0,0,1.47-.31l2,2.34a1.12,1.12,0,0,0,1.57.11,1.14,1.14,0,0,0,.38-.76A1.12,1.12,0,0,0,16.37,15.12Zm-7.7-2.07a3.35,3.35,0,0,1,2.51-5.54h.24a3.36,3.36,0,0,1,2.29,1.14,3.35,3.35,0,0,1-.33,4.72A3.34,3.34,0,0,1,8.67,13.05ZM16,16.43A.77.77,0,0,1,15,16.35l-2-2.27a3.26,3.26,0,0,0,.63-.44,3.52,3.52,0,0,0,.53-.56l2,2.27A.78.78,0,0,1,16,16.43Zm-3.09-7.1A2.33,2.33,0,0,0,8.87,10.7a2.29,2.29,0,0,0,.57,1.68,2.32,2.32,0,0,0,1.59.8h.16a2.29,2.29,0,0,0,1.52-.57A2.33,2.33,0,0,0,12.94,9.33Zm-.46,3a2,2,0,0,1-1.43.48,2,2,0,0,1-1.35-.68,1.91,1.91,0,0,1-.48-1.43,2,2,0,0,1,.67-1.35,2,2,0,0,1,1.3-.49h.14a2,2,0,0,1,1.35.67h0A2,2,0,0,1,12.48,12.35Z"/></g></g></svg>