<svg xmlns="http://www.w3.org/2000/svg" viewBox="0 0 24.14 24.14"><defs><style>.cls-1{fill:#358402;}.cls-2{fill:#fff;}</style></defs><g id="Capa_2" data-name="Capa 2"><g id="Layer_1" data-name="Layer 1"><circle class="cls-1" cx="12.07" cy="12.07" r="12.07"/><g id="WTTQtn.tif"><path class="cls-2" d="M12.09,16.83h0a1,1,0,0,1-.72-.35L10,15.12c-.68-.68-1.36-1.36-2-2A3,3,0,0,1,7.11,11,3.44,3.44,0,0,1,8.68,8.05a3.2,3.2,0,0,1,3.1-.17.58.58,0,0,0,.63,0,3.26,3.26,0,0,1,4,.94A3.21,3.21,0,0,1,16.27,13c-.79.84-1.62,1.66-2.42,2.45l-1.08,1.08A1,1,0,0,1,12.09,16.83ZM10.36,8.31a2.33,2.33,0,0,0-1.28.38A2.69,2.69,0,0,0,7.86,11h0a2.27,2.27,0,0,0,.67,1.56l2,2L11.91,16c.12.12.17.12.18.12h0s.07,0,.15-.1l1.08-1.08c.8-.79,1.62-1.61,2.4-2.44a2.51,2.51,0,0,0-3-3.91,1.32,1.32,0,0,1-1.29,0A2.48,2.48,0,0,0,10.36,8.31Z"/></g></g></g></svg>