<svg xmlns="http://www.w3.org/2000/svg" viewBox="0 0 24.14 24.14"><defs><style>.cls-1{fill:#57b51a;}.cls-2{fill:#fff;}</style></defs><g id="Capa_2" data-name="Capa 2"><g id="Layer_1" data-name="Layer 1"><circle class="cls-1" cx="12.07" cy="12.07" r="12.07"/><path class="cls-2" d="M11.77,14.49l.64-.76.24-.3a.35.35,0,0,1,.36-.12c.72.18,1.44.36,2.16.52a1.18,1.18,0,0,1,.87.75,4.06,4.06,0,0,1,.32,1.61.32.32,0,0,1-.32.35.34.34,0,0,1-.34-.34,3.47,3.47,0,0,0-.25-1.31.75.75,0,0,0-.06-.13.48.48,0,0,0-.35-.28L13.12,14a.11.11,0,0,0-.13,0l-.91,1.1a.34.34,0,0,1-.59,0l-1-1.1a.13.13,0,0,0-.14-.05l-1.8.46a.23.23,0,0,0-.16.14,3.66,3.66,0,0,0-.17.65c0,.29,0,.59-.06.88a.33.33,0,1,1-.66,0,5.5,5.5,0,0,1,.18-1.52,2.08,2.08,0,0,1,.19-.43.76.76,0,0,1,.52-.37l2-.5a.39.39,0,0,1,.45.14l.81.93Z"/><path class="cls-2" d="M14.05,9.62A4.74,4.74,0,0,1,13.42,12a3.11,3.11,0,0,1-.39.49,1.38,1.38,0,0,1-2,.1,2.73,2.73,0,0,1-.76-1.05,5,5,0,0,1-.4-2,2.22,2.22,0,0,1,.2-1,1.59,1.59,0,0,1,1-.9A2.63,2.63,0,0,1,13,7.83a1.74,1.74,0,0,1,1,1.38C14,9.34,14,9.48,14.05,9.62Zm-3.52.06A4.63,4.63,0,0,0,11,11.53a2,2,0,0,0,.51.6.69.69,0,0,0,1-.06,2.05,2.05,0,0,0,.39-.5,3.79,3.79,0,0,0,.46-2.21,1.1,1.1,0,0,0-.76-1,2,2,0,0,0-1.21-.06,1,1,0,0,0-.76.74C10.58,9.27,10.56,9.48,10.53,9.68Z"/></g></g></svg>