<svg xmlns="http://www.w3.org/2000/svg" viewBox="0 0 13.17 13.17"><defs><style>.cls-1{fill:#ff5f5f;}.cls-2{fill:#fff;}</style></defs><g id="Capa_2" data-name="Capa 2"><g id="Layer_1" data-name="Layer 1"><circle class="cls-1" cx="6.59" cy="6.59" r="6.59"/><path class="cls-2" d="M9.19,4.35A.17.17,0,0,0,9,4.5L8.63,9.87H4.41L4,4.5a.16.16,0,0,0-.17-.15.16.16,0,0,0-.15.17L4.1,10a.17.17,0,0,0,.16.15H8.78A.15.15,0,0,0,8.93,10l.41-5.52A.16.16,0,0,0,9.19,4.35Zm-3.45,4V5.58a.21.21,0,0,0-.21-.21.22.22,0,0,0-.21.21V8.33a.21.21,0,0,0,.21.21A.21.21,0,0,0,5.74,8.33ZM9.85,3.61H7.73V3a.16.16,0,0,0-.16-.16h-2A.16.16,0,0,0,5.37,3v.65H3.25a.21.21,0,1,0,0,.42h6.6a.21.21,0,1,0,0-.42Zm-2.44,0H5.69v-.5H7.41Zm.37,4.72V5.58a.21.21,0,0,0-.42,0V8.33a.21.21,0,0,0,.42,0Z"/></g></g></svg>