<svg xmlns="http://www.w3.org/2000/svg" viewBox="0 0 21.71 21.71"><defs><style>.cls-1{fill:#ff5f5f;}.cls-2{fill:#fff;}</style></defs><g id="Capa_2" data-name="Capa 2"><g id="Layer_1" data-name="Layer 1"><circle class="cls-1" cx="10.86" cy="10.86" r="10.86"/><path class="cls-2" d="M15.5,7.14a.27.27,0,0,0-.28.24l-.65,8.86H7.62L7,7.38a.26.26,0,0,0-.52,0l.67,9.1a.25.25,0,0,0,.26.24h7.44a.26.26,0,0,0,.26-.24l.67-9.1A.27.27,0,0,0,15.5,7.14ZM9.82,13.7V9.17a.35.35,0,0,0-.7,0V13.7a.35.35,0,1,0,.7,0Zm6.76-7.78H13.09V4.84a.26.26,0,0,0-.26-.26H9.47a.26.26,0,0,0-.26.26V5.92H5.71a.34.34,0,0,0-.34.35.35.35,0,0,0,.34.35H16.58a.35.35,0,0,0,.35-.35A.34.34,0,0,0,16.58,5.92Zm-4,0H9.73V5.11h2.84Zm.61,7.78V9.17a.35.35,0,0,0-.35-.35.35.35,0,0,0-.35.35V13.7a.35.35,0,0,0,.35.35A.35.35,0,0,0,13.18,13.7Z"/></g></g></svg>