<svg xmlns="http://www.w3.org/2000/svg" viewBox="0 0 9.15 9.16"><defs><style>.cls-1{fill:#57b51a;}</style></defs><g id="Capa_2" data-name="Capa 2"><g id="Layer_1" data-name="Layer 1"><g id="UiPTy6.tif"><path class="cls-1" d="M0,4.62A4.6,4.6,0,0,1,4.19,0a.83.83,0,0,1,.35,0A2.47,2.47,0,0,1,4.92.3c-.11.14-.19.33-.34.39a3.29,3.29,0,0,1-.64.09,3.86,3.86,0,0,0,.89,7.66,3.82,3.82,0,0,0,3.62-4,3.8,3.8,0,0,0-2.1-3.29C6.24,1.09,6.1,1.07,6,1S5.71.63,5.75.5c.07-.29.34-.23.58-.14A4.6,4.6,0,0,1,8.9,6.08a4.55,4.55,0,0,1-5.2,3A4.6,4.6,0,0,1,0,4.62Z"/><path class="cls-1" d="M4.93,4.24H7.07c.12,0,.26,0,.35,0a1.65,1.65,0,0,1,.33.36c-.12.1-.24.3-.37.3-.92,0-1.85,0-2.77,0a.55.55,0,0,1-.36-.38q0-1.36,0-2.73c0-.14.23-.26.36-.39.11.15.3.29.31.44C5,2.65,4.93,3.42,4.93,4.24Z"/></g></g></g></svg>