<svg xmlns="http://www.w3.org/2000/svg" viewBox="0 0 11.91 10.72"><defs><style>.cls-1{fill:#425f66;}</style></defs><g id="Capa_2" data-name="Capa 2"><g id="Layer_1" data-name="Layer 1"><g id="Dk0aEV.tif"><path class="cls-1" d="M11.31,3.57H8.37a.32.32,0,0,1-.29-.15A.29.29,0,0,1,8.33,3h2.84L11,2.61,10.26.68a.12.12,0,0,0-.14-.09H7.77a.29.29,0,0,1-.3-.41A.31.31,0,0,1,7.78,0h2.59a.31.31,0,0,1,.34.23c.37.93.73,1.85,1.11,2.77a1.54,1.54,0,0,1,.09.52v6.83c0,.26-.11.37-.38.37H.37c-.27,0-.37-.11-.37-.38v-7a.45.45,0,0,1,0-.16C.41,2.18.8,1.21,1.19.24A.32.32,0,0,1,1.55,0H4.14a.29.29,0,0,1,.29.42.3.3,0,0,1-.3.17H2c-.11,0-.25,0-.33,0s-.1.19-.14.3c-.27.66-.53,1.32-.79,2a.69.69,0,0,1,0,.1H3.59a.3.3,0,0,1,0,.59H.6v6.55H11.31Z"/><path class="cls-1" d="M6,5.36H4.81A.3.3,0,0,1,4.47,5c0-.58,0-1.16,0-1.73,0-.28,0-.56.08-.84,0-.47.09-.94.14-1.4,0-.26,0-.52.08-.78A.28.28,0,0,1,5.07,0H6.84a.3.3,0,0,1,.3.27L7.29,1.8l.15,1.4V5a.31.31,0,0,1-.36.36ZM6.81,3V2.83C6.73,2.11,6.66,1.4,6.59.68c0-.08,0-.09-.1-.09H5.56c-.24,0-.24,0-.26.25,0,.53-.11,1.07-.16,1.61,0,.17,0,.34,0,.52Zm0,.6H5.06V4.76H6.85Z"/><path class="cls-1" d="M8.79,9.23l.1.11a.3.3,0,0,1,0,.4.28.28,0,0,1-.4,0l-.63-.62a.3.3,0,0,1,0-.42l.53-.52a.29.29,0,1,1,.43.4l0,0h.84L8.52,6.89,8.45,7,7.15,9l-.07.1a.3.3,0,0,1-.39.07.29.29,0,0,1-.11-.36.31.31,0,0,1,0-.1c.54-.83,1.08-1.66,1.61-2.49a.3.3,0,0,1,.55,0l1.62,2.5a.4.4,0,0,1,.06.28.31.31,0,0,1-.31.22H8.79Z"/></g></g></g></svg>