<svg xmlns="http://www.w3.org/2000/svg" viewBox="0 0 10.76 12.55"><defs><style>.cls-1{fill:#425f66;}</style></defs><g id="Capa_2" data-name="Capa 2"><g id="Layer_1" data-name="Layer 1"><g id="dAW7nD.tif"><path class="cls-1" d="M4.94,9.85A.91.91,0,0,0,4,9a.92.92,0,0,0-.91.88H.56C.16,9.86,0,9.7,0,9.3V.56C0,.16.16,0,.56,0H3.13a1,1,0,0,0,.41.74,1,1,0,0,0,.59.15A.92.92,0,0,0,4.94,0h2.6c.37,0,.53.16.53.55V9.32c0,.37-.16.54-.53.54H4.94ZM.46.45v9h2.2c.06,0,.13-.08.16-.14A1.33,1.33,0,0,1,4,8.52a1.28,1.28,0,0,1,1.2.76.23.23,0,0,0,.23.14H7.61V.46H5.42c-.06,0-.14.08-.17.14A1.32,1.32,0,0,1,4,1.34,1.28,1.28,0,0,1,2.83.58.21.21,0,0,0,2.6.45H.46Z"/><path class="cls-1" d="M9,10.75v-9H8.53V1.35a3.11,3.11,0,0,1,.53,0c.23,0,.35.21.35.48,0,.9,0,1.8,0,2.7v6.09c0,.43-.15.58-.58.58H1.93c-.43,0-.58-.15-.58-.59v-.3h.44l0,.43Z"/><path class="cls-1" d="M10.3,3.14H9.88V2.7a3.37,3.37,0,0,1,.55,0,.37.37,0,0,1,.31.31,1.06,1.06,0,0,1,0,.25V12c0,.43-.15.58-.57.58H3.29c-.46,0-.6-.15-.6-.6v-.28h.45v.42H10.3Z"/><path class="cls-1" d="M1.81,7.17V6.74H6.28V7c0,.1,0,.14-.13.13H1.81Z"/><path class="cls-1" d="M6.27,2.7v.42H1.81V2.7Z"/><path class="cls-1" d="M1.8,4.47V4h4v.43Z"/></g></g></g></svg>