<svg xmlns="http://www.w3.org/2000/svg" viewBox="0 0 11.06 11.14"><defs><style>.cls-1{fill:#425f66;}</style></defs><g id="Capa_2" data-name="Capa 2"><g id="Layer_1" data-name="Layer 1"><g id="tJ6pl4.tif"><path class="cls-1" d="M0,5.58v-3a.34.34,0,0,1,.21-.33l5-2.21a.48.48,0,0,1,.39,0l5.26,2.22a.34.34,0,0,1,.22.33c0,2,0,4,0,5.93a.42.42,0,0,1-.28.43q-2.5,1.05-5,2.13a.62.62,0,0,1-.55,0l-5-2.13A.39.39,0,0,1,0,8.54c0-1,0-2,0-3Zm5.18,4.77s0-.07,0-.09V5.05a.14.14,0,0,0-.1-.14L.77,3.1.64,3.05V8.29a.15.15,0,0,0,.1.16l4,1.7Zm2.7-6.24-.12,0-1.83.76a.14.14,0,0,0-.11.16c0,1.72,0,3.44,0,5.16v.12l.11,0L10.3,8.46a.17.17,0,0,0,.12-.18c0-1.7,0-3.4,0-5.1V3.06h-.05l-1.78.74a.13.13,0,0,0-.06.1c0,.21,0,.42,0,.63v.85a.32.32,0,0,1-.32.32.31.31,0,0,1-.32-.32V4.11Zm-.54-.48-.12,0L3,1.8a.25.25,0,0,0-.19,0L1.25,2.5l-.1.06,0,0L5.43,4.36a.22.22,0,0,0,.16,0l.57-.24ZM3.72,1.4l.08,0L8.1,3.26a.33.33,0,0,0,.14,0L9.8,2.61l.09,0-.07,0L5.46.69a.17.17,0,0,0-.14,0c-.14.05-.27.12-.41.18Z"/></g></g></g></svg>