<svg xmlns="http://www.w3.org/2000/svg" viewBox="0 0 67.08 52.95"><defs><style>.cls-1{fill:#ff9045;}</style></defs><g id="Capa_2" data-name="Capa 2"><g id="Layer_1" data-name="Layer 1"><path class="cls-1" d="M39,7.52a1.23,1.23,0,1,0-1.23-1.23A1.23,1.23,0,0,0,39,7.52ZM39,5.9a.4.4,0,0,1,0,.79.4.4,0,0,1,0-.79ZM63.68,32.76A12.27,12.27,0,0,0,60,31.91c-.66-.09-1.27-.17-1.79-.28a.77.77,0,0,0,.29-.47c0-.15,0-.28.06-.42h.11a7.18,7.18,0,0,0,6.95-4.95.77.77,0,0,0-.1-.66.79.79,0,0,0-.57-.36c-2.63-.36-4.68.08-6.09,1.29A4.7,4.7,0,0,0,58,27a5.91,5.91,0,0,0-1.45-2,.81.81,0,0,0-1.13.12.82.82,0,0,0,.11,1.14A4.71,4.71,0,0,1,57,29.79h0a5.63,5.63,0,0,1-.1,1.05.7.7,0,0,0,0,.41L56,31c-2-.73-4.35-1.56-5.85-1-3,1.09-4.43,2.74-5.34,6.31a9.68,9.68,0,0,0-.25,3.07.84.84,0,0,0-.14-.06c-1.77-.6-4.63-.34-9.29.84-5.5,1.39-10.85,3.46-14,5.63a10.72,10.72,0,0,0,.64-3.64c0-3.88-2.5-4.27-4.93-4.66a17.69,17.69,0,0,1-2.79-.6c.41-.88,1-1.63,1.86-1.66a.82.82,0,0,0,.78-.85.82.82,0,0,0-.84-.77,3,3,0,0,0-1.34.37,3.84,3.84,0,0,0-3.65-2.46.81.81,0,0,0-.6.31.83.83,0,0,0-.16.65,4,4,0,0,0,1.72,2.91,2.85,2.85,0,0,0,1,.37c-.09.16-.17.32-.25.48a7.38,7.38,0,0,1-1.15-.79C9.14,33.5,6.69,33,4.47,34.07,1.8,35.32,0,38.54,0,42.08a10.85,10.85,0,0,0,18.25,8c.51,1.65,3.11,2.35,6.71,2.34a55.77,55.77,0,0,0,12.83-1.85c4.66-1.19,7.3-2.32,8.57-3.7a3.56,3.56,0,0,0,.53-.75A8.6,8.6,0,0,0,49,48.27a3.82,3.82,0,0,0,3,.31,4.41,4.41,0,0,1,1.63-.08,4.55,4.55,0,0,1,1.42.8,4.23,4.23,0,0,0,2.37,1,2.35,2.35,0,0,0,.51-.06,13,13,0,0,0,8.79-8.54C67.75,37.5,66.69,34.31,63.68,32.76ZM59.87,27.3a5,5,0,0,1,3.35-1h.4a5.4,5.4,0,0,1-4.89,2.83A3.85,3.85,0,0,1,59.87,27.3ZM12.62,33.92a1.58,1.58,0,0,1-.47-.46,2.16,2.16,0,0,1,.52.49ZM10.87,51.33a9.26,9.26,0,0,1-9.25-9.25c0-2.88,1.46-5.57,3.54-6.54a4,4,0,0,1,1.7-.39,5.51,5.51,0,0,1,3.49,1.48A8.78,8.78,0,0,0,12,37.71a11.73,11.73,0,0,0-.37,1.79.8.8,0,0,0,.71.89h.09a.82.82,0,0,0,.81-.72,11.43,11.43,0,0,1,.27-1.33,19,19,0,0,0,3.08.68c2.44.38,3.56.56,3.56,3A9.26,9.26,0,0,1,10.87,51.33Zm34.3-5.6c-1,1.1-3.56,2.15-7.78,3.23-10.95,2.78-17.29,1.86-17.61.59-.21-.83,1.87-2.72,6.33-4.71A3.23,3.23,0,0,1,27.22,47a.82.82,0,0,0,1.63,0,4.49,4.49,0,0,0-1.15-2.87c.94-.37,2-.75,3.07-1.12a3.45,3.45,0,0,1,1.36,2.42.81.81,0,1,0,1.62,0,4.55,4.55,0,0,0-1.23-3c1-.29,1.95-.57,3-.84l.54-.13.08.09A3.6,3.6,0,0,1,37.6,44.1a.81.81,0,1,0,1.62,0,4.55,4.55,0,0,0-1.26-3,21.88,21.88,0,0,1,4.23-.54,5.45,5.45,0,0,1,1.72.22,1.77,1.77,0,0,1,1,.78,13.63,13.63,0,0,0,.67,2.08A2,2,0,0,1,45.17,45.73Zm2-2.47h0l0-.06c0-.2-.09-.39-.14-.58a7.21,7.21,0,0,0-.58-1.69c0-.06,0-.11,0-.16l.11,0h0a.81.81,0,0,0,.81-.81c0-.92.3-3.38,1.57-4.17.21.45.26,1.83-.94,3.44a.81.81,0,0,0,1,1.2s1.91-1,3-.25a4.59,4.59,0,0,1-3.08.64.82.82,0,0,0-.43,1.57,6.63,6.63,0,0,1,3,1.81,2.6,2.6,0,0,1-3.13-.83A.81.81,0,0,0,47.18,43.26ZM65.1,41.34a11.31,11.31,0,0,1-7.56,7.36c-.43.09-.89-.21-1.59-.71a5.91,5.91,0,0,0-2-1.06,3.69,3.69,0,0,0-.87-.1,9.35,9.35,0,0,0-1.43.15,2.57,2.57,0,0,1-1.76,0,6.58,6.58,0,0,1-1.32-1.27,4.14,4.14,0,0,0,1.72.37,5.18,5.18,0,0,0,2.56-.7.82.82,0,0,0,.39-.78,3.58,3.58,0,0,0-1.66-2.4,3.25,3.25,0,0,0,2-1.41A1.43,1.43,0,0,0,53,38.94a3.59,3.59,0,0,0-2.72-.58,3.91,3.91,0,0,0-.21-3.68,1.39,1.39,0,0,0-1.71-.42,4.08,4.08,0,0,0-1.86,2c.77-2.78,1.8-3.94,4.21-4.81,1-.35,3.16.44,4.76,1,.75.27,1.46.53,2,.67a19.81,19.81,0,0,0,2.25.38,11.41,11.41,0,0,1,3.19.69C65.85,35.7,65.72,38.91,65.1,41.34ZM31.82,23.89c7.11,0,12.25-8.5,12.47-8.86a.78.78,0,0,0,.08-.65.81.81,0,0,0-.44-.5c-11.82-5.37-22.92-.22-23.39,0a.76.76,0,0,0-.42.49.82.82,0,0,0,.07.65C23.7,20.91,27.61,23.89,31.82,23.89ZM42.38,15c-1.4,2-5.54,7.28-10.56,7.28h0c-3.42,0-6.69-2.44-9.74-7.26C24.75,14,33.37,11.3,42.38,15ZM25.45,7.52a1.23,1.23,0,1,0-1.23-1.23A1.23,1.23,0,0,0,25.45,7.52Zm0-1.62a.4.4,0,0,1,0,.79.4.4,0,0,1,0-.79Zm6.79,32.22A19.06,19.06,0,1,0,13.18,19.06,19.08,19.08,0,0,0,32.24,38.12Zm0-36.5A17.44,17.44,0,1,1,14.8,19.06,17.46,17.46,0,0,1,32.24,1.62Z"/></g></g></svg>