<svg xmlns="http://www.w3.org/2000/svg" viewBox="0 0 26.6 21.63"><defs><style>.cls-1{fill:#358402;}.cls-2{fill:#fff;}</style></defs><g id="Capa_2" data-name="Capa 2"><g id="Layer_1" data-name="Layer 1"><rect class="cls-1" width="26.6" height="21.63" rx="7.64"/><g id="RqY5FD.tif"><path class="cls-2" d="M13.79,3.79l.82.11a6.47,6.47,0,0,1,3.11,1.5.23.23,0,0,1,0,.36L15.94,7.54c-.11.11-.21.11-.36,0a3.34,3.34,0,0,0-2.17-.74,3.5,3.5,0,0,0-1.08,6.82,3.76,3.76,0,0,0,2.76-.15,2.61,2.61,0,0,0,1.19-1c.09-.15.21-.19.32-.12s.13.2,0,.35a3.18,3.18,0,0,1-.83.89l1.64,1.27a5.42,5.42,0,0,0,1.33-2,6.38,6.38,0,0,0,.37-3.43H13.74v1.94H16.8a.21.21,0,1,1,0,.42H13.55c-.16,0-.24-.08-.24-.25V9.26c0-.18.08-.26.26-.26h5.72a.23.23,0,0,1,.25.2,6.23,6.23,0,0,1-4.32,7.36,6.5,6.5,0,0,1-8.17-5,6.31,6.31,0,0,1,.42-3.81,6.35,6.35,0,0,1,4.6-3.79c.29-.06.58-.08.87-.12l.15,0Zm-4,5.11a3.94,3.94,0,0,1,6-1.79l1.52-1.54-.1-.08a6.08,6.08,0,0,0-6.86-.39A6,6,0,0,0,8.08,7.41c-.05.1,0,.15.05.21a3.65,3.65,0,0,1,.31.24ZM8.4,13.7a6,6,0,0,0,8.71,1.41h0l-1.63-1.27a.13.13,0,0,0-.12,0,4.06,4.06,0,0,1-1.5.39,3.84,3.84,0,0,1-3.09-1.05,9.89,9.89,0,0,1-.67-.75Zm-.24-.37.11-.07L9.8,12.09c.08-.06.1-.11.06-.2a3.79,3.79,0,0,1-.25-2.44.17.17,0,0,0-.08-.2L7.94,8l-.11-.08A6.18,6.18,0,0,0,8.16,13.33Z"/></g></g></g></svg>