<svg xmlns="http://www.w3.org/2000/svg" viewBox="0 0 26.6 21.63"><defs><style>.cls-1{fill:#57b51a;}.cls-2{fill:#fff;}</style></defs><g id="Capa_2" data-name="Capa 2"><g id="Layer_1" data-name="Layer 1"><rect class="cls-1" width="26.6" height="21.63" rx="7.64"/><g id="yB1nPw.tif"><path class="cls-2" d="M19.37,15.62a.5.5,0,0,1,0,.13,1.07,1.07,0,0,1-1,.82H15.69c-.15,0-.22-.09-.22-.26V12.07c0-.19.08-.26.27-.27H17l.17-1.3H15.75c-.2,0-.28-.08-.28-.28V8.58a.65.65,0,0,1,.68-.68h1V6.59H15.7a1.53,1.53,0,0,0-1.54,1.54v2c0,.27-.06.33-.31.33H12.43v1.3h1.46c.2,0,.27.08.27.27V16.3c0,.17-.08.26-.2.27s-.22-.1-.22-.27V12.23H12.28c-.2,0-.28-.07-.28-.27V10.34c0-.2.08-.27.28-.27h1.46V9.92c0-.59,0-1.18,0-1.77a1.94,1.94,0,0,1,2-2h1.62c.21,0,.28.07.28.27V8.05c0,.2-.07.28-.27.28H16.17c-.2,0-.27.07-.27.27v1.47h1.46c.21,0,.29.1.26.31-.07.53-.13,1.06-.2,1.6,0,.19-.09.25-.29.25H15.91v3.91h2.33a.65.65,0,0,0,.7-.7V5.56a.65.65,0,0,0-.7-.7H8.36a.65.65,0,0,0-.7.7v9.87a.65.65,0,0,0,.72.71h4.7a.21.21,0,0,1,.21.22.21.21,0,0,1-.21.21H8.39A1.08,1.08,0,0,1,7.23,15.4V5.61a1.08,1.08,0,0,1,.91-1.16l0,0H18.42l.09,0a1.09,1.09,0,0,1,.82.78s0,.1,0,.15Z"/></g></g></g></svg>