<svg xmlns="http://www.w3.org/2000/svg" viewBox="0 0 9.44 10.12"><defs><style>.cls-1{fill:#57b51a;}</style></defs><g id="Capa_2" data-name="Capa 2"><g id="Layer_1" data-name="Layer 1"><path class="cls-1" d="M9.16,8.21,7.07,5.8a3.92,3.92,0,0,0,.55-1.72A3.82,3.82,0,1,0,.93,6.32,3.85,3.85,0,0,0,3.81,7.63a3.8,3.8,0,0,0,1.52-.32l2.1,2.41a1.17,1.17,0,0,0,.87.4,1.2,1.2,0,0,0,.75-.28,1.16,1.16,0,0,0,.11-1.63ZM1.21,6.08a3.45,3.45,0,0,1,.34-4.87A3.41,3.41,0,0,1,3.81.36h.24A3.46,3.46,0,0,1,7.26,4.05,3.5,3.5,0,0,1,6.08,6.42,3.45,3.45,0,0,1,1.21,6.08Zm7.6,3.48A.79.79,0,0,1,7.7,9.49l-2-2.35a3.15,3.15,0,0,0,.65-.45,3.35,3.35,0,0,0,.55-.58l2,2.34a.79.79,0,0,1-.08,1.11ZM5.62,2.24A2.4,2.4,0,0,0,2.24,2a2.35,2.35,0,0,0-.82,1.65A2.35,2.35,0,0,0,2,5.39a2.43,2.43,0,0,0,1.65.82h.17a2.36,2.36,0,0,0,1.57-.59A2.39,2.39,0,0,0,5.62,2.24ZM5.15,5.35a2,2,0,0,1-1.48.5,2.06,2.06,0,0,1-1.4-.7,2,2,0,0,1-.49-1.48,2,2,0,0,1,.69-1.39,2,2,0,0,1,1.34-.51H4a2,2,0,0,1,1.4.7h0A2,2,0,0,1,5.15,5.35Z"/></g></g></svg>