<svg xmlns="http://www.w3.org/2000/svg" viewBox="0 0 55.75 47.34"><defs><style>.cls-1{fill:#57b51a;}.cls-2{fill:#fff;}</style></defs><g id="Capa_2" data-name="Capa 2"><g id="NadaHero_Imagen" data-name="NadaHero Imagen"><rect class="cls-1" width="55.75" height="47.34" rx="7.64"/><g id="yB1nPw.tif"><path class="cls-2" d="M40.94,34.88c0,.1-.06.19-.08.29A2.36,2.36,0,0,1,38.64,37c-1.92,0-3.84,0-5.76,0-.33,0-.48-.18-.48-.57V27.1c0-.4.18-.57.59-.57.91,0,1.83,0,2.79,0l.36-2.87H33c-.45,0-.62-.16-.62-.6V19.47A1.43,1.43,0,0,1,33.9,18h2.27V15.12H32.91a3.31,3.31,0,0,0-3.37,3.36V23c0,.57-.13.7-.69.7H25.76v2.87h.3c1,0,1.92,0,2.88,0,.43,0,.6.16.6.58v9.26c0,.36-.17.57-.45.58s-.48-.21-.49-.58V27.46H25.42c-.45,0-.61-.16-.61-.6V23.33c0-.44.16-.6.61-.6H28.6V18.54A4.28,4.28,0,0,1,33,14.18h3.56c.45,0,.61.17.61.61,0,1.18,0,2.35,0,3.53,0,.43-.16.59-.59.6H33.93c-.43,0-.59.16-.59.58v3.23h3.2c.46,0,.63.22.57.67-.15,1.17-.3,2.34-.44,3.5-.06.44-.19.56-.64.56H33.35V36h5.11A1.43,1.43,0,0,0,40,34.48V12.86a1.43,1.43,0,0,0-1.54-1.54H16.83a1.43,1.43,0,0,0-1.53,1.54v21.6A1.43,1.43,0,0,0,16.87,36h10a2.43,2.43,0,0,1,.27,0,.47.47,0,1,1,0,.93H16.91a2.38,2.38,0,0,1-2.55-2.56V13a2.38,2.38,0,0,1,2-2.55s.05,0,.07,0H38.86a1.52,1.52,0,0,0,.2.06,2.36,2.36,0,0,1,1.79,1.71l.09.31Z"/></g></g></g></svg>