<svg xmlns="http://www.w3.org/2000/svg" viewBox="0 0 55.75 47.34"><defs><style>.cls-1{fill:#57b51a;}.cls-2{fill:#fff;}</style></defs><g id="Capa_2" data-name="Capa 2"><g id="NadaHero_Imagen" data-name="NadaHero Imagen"><rect class="cls-1" width="55.75" height="47.34" rx="7.64"/><g id="RqY5FD.tif"><path class="cls-2" d="M29,9.43c.59.08,1.19.13,1.78.24A14.05,14.05,0,0,1,37.54,13a.47.47,0,0,1,0,.77l-3.9,3.9c-.26.25-.47.25-.79,0A7.43,7.43,0,0,0,28.12,16a7.66,7.66,0,0,0-2.36,14.93,8.15,8.15,0,0,0,6-.34,5.6,5.6,0,0,0,2.59-2.27c.2-.32.46-.41.71-.25s.28.43.08.75a6.84,6.84,0,0,1-1.81,1.95L37,33.56a12,12,0,0,0,2.89-4.26,14.07,14.07,0,0,0,.82-7.52H28.85V26h6.68c.33,0,.54.2.53.47a.47.47,0,0,1-.52.45H28.42c-.36,0-.52-.18-.52-.54q0-2.5,0-5c0-.39.17-.56.56-.56H41a.49.49,0,0,1,.55.43c1.18,5.62-1.17,13.74-9.46,16.11a14.2,14.2,0,0,1-17.86-11,13.7,13.7,0,0,1,.9-8.33A13.92,13.92,0,0,1,25.19,9.75c.62-.14,1.27-.18,1.91-.27l.31-.05ZM20.15,20.59a8.44,8.44,0,0,1,5.59-5.16,8.34,8.34,0,0,1,7.45,1.25l3.34-3.36-.22-.18a13.3,13.3,0,0,0-15-.86,13.08,13.08,0,0,0-4.83,5.07c-.11.21-.09.32.11.45s.45.35.68.53Zm-3,10.51c4.52,6.8,13.83,7.48,19.06,3.09a0,0,0,0,0,0,0l-3.57-2.78a.29.29,0,0,0-.27,0,9.31,9.31,0,0,1-3.27.85,8.48,8.48,0,0,1-6.77-2.29,22,22,0,0,1-1.48-1.66Zm-.52-.8c.1-.07.18-.11.25-.17,1.11-.85,2.22-1.7,3.35-2.55a.3.3,0,0,0,.11-.44,8.35,8.35,0,0,1-.54-5.33.37.37,0,0,0-.17-.44l-3.48-2.72-.25-.17A13.53,13.53,0,0,0,16.63,30.3Z"/></g></g></g></svg>