<svg xmlns="http://www.w3.org/2000/svg" viewBox="0 0 18.52 15.73"><defs><style>.cls-1{fill:#57b51a;}.cls-2{fill:#fff;}</style></defs><g id="Capa_2" data-name="Capa 2"><g id="Layer_1" data-name="Layer 1"><rect class="cls-1" width="18.52" height="15.73" rx="3.12"/><g id="RqY5FD.tif"><path class="cls-2" d="M9.62,3.13l.59.08A4.64,4.64,0,0,1,12.47,4.3a.16.16,0,0,1,0,.26l-1.3,1.29c-.08.09-.15.09-.26,0a2.43,2.43,0,0,0-1.58-.53A2.52,2.52,0,0,0,6.93,7.13a2.55,2.55,0,0,0,1.63,3.15,2.72,2.72,0,0,0,2-.12,1.87,1.87,0,0,0,.87-.75c.06-.11.15-.14.23-.09a.17.17,0,0,1,0,.25,2.22,2.22,0,0,1-.61.65l1.2.93a4,4,0,0,0,1-1.42,4.6,4.6,0,0,0,.27-2.5H9.58V8.64H11.8c.11,0,.18.07.18.16S11.91,9,11.8,9H9.44c-.12,0-.17-.06-.17-.18V7.1c0-.12.06-.18.19-.18h4.15a.17.17,0,0,1,.19.14,4.53,4.53,0,0,1-3.15,5.35A4.72,4.72,0,0,1,4.72,8.76,4.62,4.62,0,0,1,5,6,4.61,4.61,0,0,1,8.37,3.24c.21-.05.42-.06.63-.09l.11,0ZM6.69,6.84A2.81,2.81,0,0,1,8.55,5.13,2.78,2.78,0,0,1,11,5.54l1.1-1.11a.22.22,0,0,0-.07-.06,4.41,4.41,0,0,0-5-.29,4.31,4.31,0,0,0-1.6,1.68c0,.07,0,.11,0,.15l.23.18Zm-1,3.49a4.39,4.39,0,0,0,6.33,1h0l-1.19-.93h-.09a3.13,3.13,0,0,1-1.09.28,2.83,2.83,0,0,1-2.25-.76c-.17-.16-.32-.36-.49-.55Zm-.18-.26L5.61,10l1.11-.85a.09.09,0,0,0,0-.14,2.7,2.7,0,0,1-.18-1.77.14.14,0,0,0-.06-.15L5.36,6.2l-.08-.06A4.52,4.52,0,0,0,5.52,10.07Z"/></g></g></g></svg>