<svg xmlns="http://www.w3.org/2000/svg" viewBox="0 0 18.52 15.73"><defs><style>.cls-1{fill:#57b51a;}.cls-2{fill:#fff;}</style></defs><g id="Capa_2" data-name="Capa 2"><g id="Layer_1" data-name="Layer 1"><rect class="cls-1" width="18.52" height="15.73" rx="3.12"/><g id="yB1nPw.tif"><path class="cls-2" d="M13.6,11.59l0,.09a.77.77,0,0,1-.73.59H10.92c-.11,0-.16-.07-.16-.19V9c0-.13.06-.19.2-.19h.93l.12-1H11c-.15,0-.21-.05-.21-.2V6.47a.48.48,0,0,1,.5-.5H12V5H10.93A1.11,1.11,0,0,0,9.81,6.14V7.63c0,.19,0,.23-.23.23h-1v1h1c.15,0,.2.06.2.2v3.07c0,.12-.05.19-.15.19s-.16-.07-.16-.19v-3H8.44c-.14,0-.2,0-.2-.2V7.75c0-.15.06-.2.21-.2H9.5V6.16A1.41,1.41,0,0,1,11,4.71h1.18c.15,0,.21.06.21.2V6.09c0,.14-.06.19-.2.19h-.87c-.14,0-.2.06-.2.2V7.55h1.07c.15,0,.21.07.19.22l-.15,1.17c0,.14-.06.18-.21.18h-.89V12h1.7a.47.47,0,0,0,.51-.51V4.27a.48.48,0,0,0-.52-.51H5.59a.48.48,0,0,0-.51.51v7.18a.49.49,0,0,0,.53.52H9a.15.15,0,0,1,.16.15.15.15,0,0,1-.15.15H5.62a.8.8,0,0,1-.85-.86V4.31a.79.79,0,0,1,.66-.85h7.48l.06,0a.76.76,0,0,1,.6.57l0,.1Z"/></g></g></g></svg>