<svg xmlns="http://www.w3.org/2000/svg" viewBox="0 0 35.16 56.5"><defs><style>.cls-1{fill:#85bf6c;}.cls-2{fill:#e42522;}.cls-3{fill:#f3981a;}</style></defs><g id="Capa_2" data-name="Capa 2"><g id="Layer_1" data-name="Layer 1"><path class="cls-1" d="M16.25,10.77a5,5,0,0,0-3.78-4.44C8.81,5.25,9,4.18,9,4.18S8.42,11,16.25,10.77Z"/><path class="cls-1" d="M11.44,30.64l.05,0a8.11,8.11,0,0,1,6-13.67,8.19,8.19,0,0,1,8,6.35q2.07-1.35,4.05-2.81l3.6-2.57c1.67-1.13,2.86-2.31,1.35-1.56-.62.31-5.12,2.48-5.27,2.27A14.06,14.06,0,0,0,3.42,26.29a33.39,33.39,0,0,0,1,6.87C6.49,32.52,8.89,31.68,11.44,30.64Z"/><path class="cls-2" d="M5.35,36.81c.32,1.08.66,2.19,1,3.3a126.08,126.08,0,0,0,22.38-1.2c1.66-5,2.74-9.79,2.74-12.62a13.84,13.84,0,0,0-.63-4.14c-1.67,1.25-3.39,2.43-5.18,3.56l-.06,0a8.21,8.21,0,0,1-12.23,6.39l-1.21.51c-2.22.91-4.26,1.64-6.06,2.22L0,36.91C2.32,37,5.2,36.28,5.35,36.81Z"/><path class="cls-3" d="M18.35,52.35a60.65,60.65,0,0,1,6.42-3.77,66.16,66.16,0,0,0,3.15-7.25,119.58,119.58,0,0,1-20.75,1c.44,1.19.91,2.36,1.4,3.5,2.95,0,7.53-.16,7.53-.16a67.69,67.69,0,0,1-5.91,3.52c2.24,4.26,4.8,7.32,7.27,7.32,1.66,0,3.46-1.69,5.21-4.3C20.42,52.25,18.35,52.35,18.35,52.35Z"/><path class="cls-1" d="M17.79,10.77A8.26,8.26,0,0,1,24,3.51C30,1.75,29.71,0,29.71,0S30.59,11.2,17.79,10.77Z"/></g></g></svg>