<svg xmlns="http://www.w3.org/2000/svg" viewBox="0 0 10.1 9.39"><defs><style>.cls-1{fill:#57b51a;}</style></defs><g id="Capa_2" data-name="Capa 2"><g id="Layer_1" data-name="Layer 1"><path class="cls-1" d="M9,6.61H8.35a.16.16,0,0,0-.16.16V7.1a.16.16,0,0,0,.16.16H9a.16.16,0,0,0,.16-.16V6.77A.16.16,0,0,0,9,6.61Zm.58-3L8.8,2.64,8.06.71A.2.2,0,0,0,8,.62a.13.13,0,0,0-.12,0L7.4.8,6.84.06A.24.24,0,0,0,6.73,0a.21.21,0,0,0-.12,0L3.9,2.17a.18.18,0,0,0,0,.07L.12,3.75A.17.17,0,0,0,0,4l.37,1L.06,5.2a.17.17,0,0,0,0,.23l1.1,1.44,0,0L1.8,8.53a.14.14,0,0,0,.08.09l.07,0,.06,0,.39-.16.6.86a.17.17,0,0,0,.11.06h0a.21.21,0,0,0,.1,0L4.87,8.06h4.6a.64.64,0,0,0,.63-.64V4.22A.64.64,0,0,0,9.55,3.59ZM7.81,1l.27.7a.86.86,0,0,1-.92-.43ZM6.68.39l.41.54-.38.15A.88.88,0,0,1,6.12.83ZM5.87,1a1.14,1.14,0,0,0,.34.25l-1.36.55ZM.39,5.36l.14-.11.22.58Zm.35-.45L.39,4,1,3.76a.43.43,0,0,0,0,.05A1,1,0,0,1,.74,4.91Zm.12.31a1.25,1.25,0,0,0,.41-1.54l0,0L6.86,1.37a1.16,1.16,0,0,0,1,.64L8.2,2l.62,1.61H6.1a1.33,1.33,0,0,0-1-.58,1.34,1.34,0,0,0-1.19.58H3.69a.64.64,0,0,0-.64.63V7.41a.6.6,0,0,0,.14.39l-.11,0a1.25,1.25,0,0,0-1.45-.63ZM5.67,3.59H4.34a1,1,0,0,1,1.33,0ZM2,8.26l-.29-.74a.92.92,0,0,1,1,.44ZM3.17,9l-.46-.65a.92.92,0,0,1,1.08.16Zm.88-.69a1.44,1.44,0,0,0-.33-.25h.65Zm5.73-.89a.31.31,0,0,1-.31.31H3.69a.31.31,0,0,1-.31-.31V5.8h6.4Zm0-2.26H3.38V4.22a.31.31,0,0,1,.31-.31H9.47a.31.31,0,0,1,.31.31Z"/></g></g></svg>