<svg xmlns="http://www.w3.org/2000/svg" viewBox="0 0 6.54 8.79"><defs><style>.cls-1{fill:#57b51a;}</style></defs><g id="Capa_2" data-name="Capa 2"><g id="Layer_1" data-name="Layer 1"><path class="cls-1" d="M4.65,5.2a.19.19,0,0,0-.19.2V7.28H3.1v-6A.19.19,0,0,0,3,1.14L1.17.39H4.46V2.34a.19.19,0,0,0,.38,0V.19A.19.19,0,0,0,4.65,0H.16L.1,0h0l0,0s0,0,0,0A.24.24,0,0,0,0,.19V7.47s0,0,0,.07v0l0,0h0l.05,0h0L2.83,8.77l.07,0a.2.2,0,0,0,.11,0A.22.22,0,0,0,3.1,8.6V7.67H4.65a.19.19,0,0,0,.19-.2V5.4A.19.19,0,0,0,4.65,5.2ZM2.71,8.31l-2.32-1V.48l2.32,1ZM6.47,3.64l-1.1-.91a.2.2,0,0,0-.27,0,.18.18,0,0,0,0,.27l.68.57H3.66a.19.19,0,1,0,0,.38H5.82l-.7.6a.2.2,0,0,0,0,.28.22.22,0,0,0,.28,0l1.09-.94a.2.2,0,0,0,0-.3Z"/></g></g></svg>