<svg xmlns="http://www.w3.org/2000/svg" viewBox="0 0 7.85 8.94"><defs><style>.cls-1{fill:#425f66;}</style></defs><g id="Capa_2" data-name="Capa 2"><g id="Layer_1" data-name="Layer 1"><path class="cls-1" d="M6.07,5.18H1.78A1.78,1.78,0,0,0,0,7v.42a.14.14,0,0,0,.06.12,5.91,5.91,0,0,0,7.73,0,.14.14,0,0,0,.06-.12V7A1.78,1.78,0,0,0,6.07,5.18ZM7.52,7.3a5.75,5.75,0,0,1-1.35.84V6.77A.18.18,0,0,0,6,6.6a.17.17,0,0,0-.16.17v1.5a5.42,5.42,0,0,1-1.91.34A5.49,5.49,0,0,1,2,8.28V6.77a.17.17,0,0,0-.16-.17.18.18,0,0,0-.17.17V8.15A6,6,0,0,1,.33,7.3V7A1.45,1.45,0,0,1,1.78,5.51H6.07A1.45,1.45,0,0,1,7.52,7ZM3.93,4.43A2.22,2.22,0,1,0,1.71,2.22,2.21,2.21,0,0,0,3.93,4.43Zm0-4.1A1.89,1.89,0,1,1,2,2.22,1.89,1.89,0,0,1,3.93.33Z"/></g></g></svg>