<svg xmlns="http://www.w3.org/2000/svg" viewBox="0 0 12.56 12.56"><defs><style>.cls-1{fill:#57b51a;}</style></defs><g id="Capa_2" data-name="Capa 2"><g id="Layer_1" data-name="Layer 1"><g id="Mgm4Fc.tif"><path class="cls-1" d="M6.67,12.56H5.89l-.11,0A5.91,5.91,0,0,1,3.71,12,6.23,6.23,0,0,1,.09,7.35C.05,7.13,0,6.9,0,6.67V5.89c0-.28.07-.55.12-.82A6.29,6.29,0,0,1,5.66,0,6,6,0,0,1,9.42.85a6.1,6.1,0,0,1,3.13,5.33,5.87,5.87,0,0,1-1,3.56,6.18,6.18,0,0,1-4.15,2.72C7.14,12.51,6.91,12.53,6.67,12.56Zm4.84-6.27a5.23,5.23,0,1,0-5.24,5.22A5.22,5.22,0,0,0,11.51,6.29Z"/><path class="cls-1" d="M5.43,7.39a1.49,1.49,0,0,1,.11-.15L8.72,4.06a.53.53,0,0,1,.56-.17.51.51,0,0,1,.28.79l-.13.15L5.88,8.38a.55.55,0,0,1-.9,0L3.6,7a.5.5,0,0,1-.15-.53.48.48,0,0,1,.39-.36.5.5,0,0,1,.5.16l1,1Z"/></g></g></g></svg>