<svg xmlns="http://www.w3.org/2000/svg" viewBox="0 0 6.75 7.11"><defs><style>.cls-1{fill:#fff;}</style></defs><g id="Capa_2" data-name="Capa 2"><g id="Layer_1" data-name="Layer 1"><path class="cls-1" d="M5.92,1.49a.16.16,0,0,0-.17.15L5.37,6.8h-4L.94,1.64a.16.16,0,0,0-.16-.15.16.16,0,0,0-.15.17L1,7a.16.16,0,0,0,.16.14H5.51A.15.15,0,0,0,5.67,7l.39-5.31A.16.16,0,0,0,5.92,1.49ZM2.6,5.32V2.68a.2.2,0,0,0-.2-.2.2.2,0,0,0-.21.2V5.32a.21.21,0,1,0,.41,0Zm4-4.54h-2V.15A.16.16,0,0,0,4.35,0H2.4a.16.16,0,0,0-.16.15V.78H.2A.2.2,0,0,0,0,1a.2.2,0,0,0,.2.21H6.55A.2.2,0,0,0,6.75,1,.2.2,0,0,0,6.55.78ZM4.2.78H2.55V.31H4.2Zm.36,4.54V2.68a.2.2,0,0,0-.21-.2.2.2,0,0,0-.2.2V5.32a.21.21,0,1,0,.41,0Z"/></g></g></svg>