<svg xmlns="http://www.w3.org/2000/svg" viewBox="0 0 25.86 27.82"><defs><style>.cls-1{fill:#8d9c9e;}</style></defs><g id="Capa_2" data-name="Capa 2"><g id="NadaHero_Imagen" data-name="NadaHero Imagen"><path class="cls-1" d="M4,11.82a4.06,4.06,0,0,1,1.65.24.44.44,0,0,0,.22,0,.5.5,0,0,0,.21-.95A4.71,4.71,0,0,0,4,10.82a.5.5,0,0,0-.49.51A.52.52,0,0,0,4,11.82Zm19.71,2.06H21.59C24.64,7.63,25.58,2.49,24,.65a2,2,0,0,0-2.26-.5C19.46.93,16.8,7.44,15.4,11.3a3.4,3.4,0,0,0-.3-1.53A4.52,4.52,0,0,0,15.77,8,4.65,4.65,0,0,0,8.43,3.52,4.6,4.6,0,0,0,6.65,6.24a1.87,1.87,0,0,0-1.9-.17,1.77,1.77,0,0,0-.93,1.21.86.86,0,0,1-.21.45c-.08.07-.24.07-.5.06a1.91,1.91,0,0,0-1.51.47,2.31,2.31,0,0,0-.42,2.65,2.76,2.76,0,0,0,.36.49c.45.54.78,1,.54,1.62a2.8,2.8,0,0,0-.2.89,2.14,2.14,0,0,0,.27,4.26h.23l2.35,9.27a.49.49,0,0,0,.48.38H20.68a.51.51,0,0,0,.49-.38l2.34-9.27h.2a2.15,2.15,0,1,0,0-4.29ZM16.6,11a1.92,1.92,0,0,0,1.15,1.53,1.53,1.53,0,0,0,.47.07,3.51,3.51,0,0,0,2-.94.56.56,0,0,0,.15-.37.48.48,0,0,0-.15-.36,4.19,4.19,0,0,0-3.28-.82c.31-.81.65-1.64,1-2.44A1.82,1.82,0,0,0,19,8.87a1.58,1.58,0,0,0,.47.07,3.44,3.44,0,0,0,2-.95.51.51,0,0,0,0-.72,4,4,0,0,0-3-.85c.33-.7.65-1.38,1-2a1.56,1.56,0,0,0,.89.81,1.26,1.26,0,0,0,.47.08,3.41,3.41,0,0,0,2-1,.48.48,0,0,0,0-.72,3.6,3.6,0,0,0-2.39-.87A4.13,4.13,0,0,1,22.05,1.1c.76-.26,1.07.09,1.17.21,1.09,1.25.68,5.71-2.74,12.57H15.57C15.87,13,16.22,12,16.6,11Zm1,.06a3.49,3.49,0,0,1,1.36.25,1.26,1.26,0,0,1-1,.26A.78.78,0,0,1,17.65,11ZM18.91,7.4a3.4,3.4,0,0,1,1.36.25,1.26,1.26,0,0,1-.95.26A.78.78,0,0,1,18.91,7.4Zm1.32-3.62A3.17,3.17,0,0,1,21.6,4a1.26,1.26,0,0,1-1,.26A.79.79,0,0,1,20.23,3.78ZM7.57,6.71a3.65,3.65,0,0,1,4.16-3,3.65,3.65,0,0,1,3,4.16,3.45,3.45,0,0,1-.67,1.6.52.52,0,0,0,0,.55,2.4,2.4,0,0,1-.85,3.28.51.51,0,0,0-.19.62H11.93v-.25a2.11,2.11,0,0,1-.35,0,2.44,2.44,0,0,1-2.05-2.73.51.51,0,0,0-.24-.49A3.63,3.63,0,0,1,7.57,6.71Zm7.16,6.51c-.09.27-.16.5-.22.66H14.1A3.58,3.58,0,0,0,14.73,13.22ZM2.07,10.45A1.31,1.31,0,0,1,2.29,9c.2-.2.43-.2.8-.19a1.63,1.63,0,0,0,1.18-.32,1.69,1.69,0,0,0,.51-.91c.1-.32.16-.47.42-.6.63-.32,1.17.31,1.34.53a4.64,4.64,0,0,0,2,3.58,3.42,3.42,0,0,0,1.29,2.8H8.43A14.11,14.11,0,0,0,6.1,8.33.5.5,0,0,0,5.31,9a13.21,13.21,0,0,1,2.1,4.93H6.87a.43.43,0,0,0-.21-.21,4.84,4.84,0,0,0-2.11-.34.49.49,0,0,0-.49.51s0,0,0,0H2.88A1.88,1.88,0,0,1,3,13.39a2.53,2.53,0,0,0-.7-2.64A2.05,2.05,0,0,1,2.07,10.45ZM20.29,26.82H5.6L3.42,18.17H22.48Zm3.42-9.65H2.15a1.15,1.15,0,1,1,0-2.29H23.71a1.15,1.15,0,1,1,0,2.29ZM11.57,23.54H9.05a.5.5,0,0,0,0,1h2.52a.5.5,0,0,0,0-1Zm5.89,0H14.94a.5.5,0,1,0,0,1h2.52a.5.5,0,0,0,0-1Zm0-2.18H20a.5.5,0,0,0,0-1H17.47a.5.5,0,0,0,0,1Zm-5.46,0h2.52a.5.5,0,1,0,0-1H12a.5.5,0,1,0,0,1Zm-5.89,0H8.64a.5.5,0,0,0,0-1H6.12a.5.5,0,0,0,0,1Z"/></g></g></svg>