<svg xmlns="http://www.w3.org/2000/svg" viewBox="0 0 25.1 28.58"><defs><style>.cls-1{fill:#57b51a;}</style></defs><g id="Capa_2" data-name="Capa 2"><g id="NadaHero_Imagen" data-name="NadaHero Imagen"><path class="cls-1" d="M19.39,16.55H5.7A5.71,5.71,0,0,0,0,22.26v1.32a.55.55,0,0,0,.18.4,18.92,18.92,0,0,0,24.73,0,.53.53,0,0,0,.19-.4V22.26A5.71,5.71,0,0,0,19.39,16.55ZM24,23.33A17.81,17.81,0,0,1,19.71,26V21.63a.53.53,0,0,0-.53-.53.53.53,0,0,0-.53.53v4.81a17.77,17.77,0,0,1-12.12,0V21.63a.53.53,0,0,0-1.06,0V26a17.64,17.64,0,0,1-4.41-2.71V22.26A4.65,4.65,0,0,1,5.7,17.61H19.39A4.65,4.65,0,0,1,24,22.26ZM12.55,14.16A7.08,7.08,0,1,0,5.47,7.08,7.09,7.09,0,0,0,12.55,14.16Zm0-13.1a6,6,0,1,1-6,6A6,6,0,0,1,12.55,1.06Z"/></g></g></svg>