<svg xmlns="http://www.w3.org/2000/svg" viewBox="0 0 30.52 28.36"><defs><style>.cls-1{fill:#57b51a;}</style></defs><g id="Capa_2" data-name="Capa 2"><g id="NadaHero_Imagen" data-name="NadaHero Imagen"><path class="cls-1" d="M27.1,20H25.23a.49.49,0,0,0-.49.49v1a.49.49,0,0,0,.49.49H27.1a.49.49,0,0,0,.49-.49v-1A.49.49,0,0,0,27.1,20Zm1.77-9.1L26.59,8,24.35,2.15a.51.51,0,0,0-.27-.27.55.55,0,0,0-.38,0l-1.34.55L20.65.19A.51.51,0,0,0,20.33,0,.5.5,0,0,0,20,.11L11.79,6.55a.51.51,0,0,0-.15.21L.36,11.33A.5.5,0,0,0,.08,12L1.22,14.9l-1,.81a.49.49,0,0,0-.09.68l3.32,4.36.08.06,1.93,5a.46.46,0,0,0,.26.27.43.43,0,0,0,.19,0,.63.63,0,0,0,.19,0l1.18-.48,1.83,2.57a.5.5,0,0,0,.33.2h.07a.46.46,0,0,0,.3-.11l4.93-3.89s0,0,0-.05H28.61a1.92,1.92,0,0,0,1.91-1.91V12.74A1.91,1.91,0,0,0,28.87,10.86ZM23.61,3l.81,2.09a2.58,2.58,0,0,1-2.78-1.29ZM20.18,1.18,21.41,2.8l-1.12.46a2.6,2.6,0,0,1-1.78-.76ZM17.73,3.11a3.71,3.71,0,0,0,1,.76L14.66,5.54ZM1.17,16.18l.42-.33.68,1.77Zm1.07-1.36L1.17,12.06l1.74-.7a.51.51,0,0,0,0,.17A2.87,2.87,0,0,1,2.24,14.82Zm.37,1a3.8,3.8,0,0,0,1.23-4.66A.76.76,0,0,0,3.76,11l17-6.87a3.52,3.52,0,0,0,3.19,1.94A4.59,4.59,0,0,0,24.78,6l1.87,4.84H18.43a4.05,4.05,0,0,0-6.64,0h-.65a1.91,1.91,0,0,0-1.91,1.91V22.4a1.89,1.89,0,0,0,.4,1.16l-.32.12a3.77,3.77,0,0,0-4.38-1.89Zm14.51-4.95h-4a3.08,3.08,0,0,1,4,0ZM6.16,25l-.87-2.24a2.74,2.74,0,0,1,3.1,1.34Zm3.42,2.2L8.2,25.21a2.73,2.73,0,0,1,3.26.47Zm2.66-2.09a4.24,4.24,0,0,0-1-.76h2Zm17.3-2.67a.93.93,0,0,1-.93.93H11.14a.93.93,0,0,1-.93-.93V17.52H29.54Zm0-6.84H10.21V12.74a.93.93,0,0,1,.93-.93h7l.07,0,0,0H28.61a.93.93,0,0,1,.93.93Z"/></g></g></svg>