<svg xmlns="http://www.w3.org/2000/svg" viewBox="0 0 21.03 19.62"><defs><style>.cls-1{fill:#8d9c9e;}</style></defs><g id="Capa_2" data-name="Capa 2"><g id="NadaHero_Imagen" data-name="NadaHero Imagen"><g id="WTTQtn.tif"><path class="cls-1" d="M10.46,19.62h0a2.6,2.6,0,0,1-1.85-.86l-2.68-2.7L5.84,16c-1.31-1.32-2.62-2.63-3.92-4A6.5,6.5,0,0,1,0,7.44,7.39,7.39,0,0,1,3.38,1.11,6.92,6.92,0,0,1,10.11.74a.6.6,0,0,0,.71,0,7,7,0,0,1,8.7,2,7,7,0,0,1-.33,9.05c-1.56,1.66-3.2,3.28-4.78,4.85-.75.74-1.46,1.44-2.17,2.16A2.47,2.47,0,0,1,10.46,19.62ZM7.06,1.09A5.89,5.89,0,0,0,3.93,2,6.39,6.39,0,0,0,1,7.45a5.49,5.49,0,0,0,1.63,3.83c1.29,1.32,2.6,2.64,3.91,4l.09.09L9.36,18a1.57,1.57,0,0,0,1.1.56v0a1.47,1.47,0,0,0,1-.51l2.14-2.13c1.61-1.6,3.24-3.21,4.79-4.86a5.92,5.92,0,0,0,.27-7.69,6,6,0,0,0-7.41-1.73,1.58,1.58,0,0,1-1.64,0A6.08,6.08,0,0,0,7.06,1.09Z"/></g></g></g></svg>