<svg xmlns="http://www.w3.org/2000/svg" viewBox="0 0 38.61 38.62"><defs><style>.cls-1{fill:#8d9c9e;}</style></defs><g id="Capa_2" data-name="Capa 2"><g id="NadaHero_Imagen" data-name="NadaHero Imagen"><path class="cls-1" d="M34.86,15.55a3.76,3.76,0,0,0-3.7,3.21h-4a.55.55,0,0,0-.54.55.54.54,0,0,0,.54.54h4a3.75,3.75,0,1,0,3.7-4.3Zm0,6.42a2.67,2.67,0,1,1,2.67-2.66A2.66,2.66,0,0,1,34.86,22ZM18.76,7.45v4a.55.55,0,0,0,.55.55.54.54,0,0,0,.54-.55v-4a3.76,3.76,0,1,0-1.09,0Zm.55-6.36a2.67,2.67,0,1,1-2.67,2.66A2.66,2.66,0,0,1,19.31,1.09Zm2.76,19H16.52a2.65,2.65,0,0,0-2.64,2.64v.54a.53.53,0,0,0,.19.41,8,8,0,0,0,10.45,0,.53.53,0,0,0,.19-.41v-.54A2.65,2.65,0,0,0,22.07,20.05ZM23.62,23a7.09,7.09,0,0,1-1.09.72V22.44A.55.55,0,0,0,22,21.9a.54.54,0,0,0-.54.54v1.71a7.07,7.07,0,0,1-2.15.35,6.74,6.74,0,0,1-2.1-.34V22.44a.55.55,0,0,0-.55-.54.54.54,0,0,0-.54.54V23.7A5.89,5.89,0,0,1,15,23v-.28a1.56,1.56,0,0,1,1.55-1.55h5.55a1.56,1.56,0,0,1,1.55,1.55ZM11.47,18.76h-4a3.76,3.76,0,1,0,0,1.09h4a.54.54,0,0,0,.55-.54A.55.55,0,0,0,11.47,18.76ZM3.75,22a2.67,2.67,0,1,1,2.67-2.66A2.66,2.66,0,0,1,3.75,22Zm16.1,9.19v-4a.54.54,0,0,0-.54-.54.55.55,0,0,0-.55.54v4a3.76,3.76,0,1,0,1.09,0Zm-.54,6.37A2.67,2.67,0,1,1,22,34.86,2.68,2.68,0,0,1,19.31,37.53Zm0-24.19a3.2,3.2,0,1,0,3.2,3.2A3.2,3.2,0,0,0,19.29,13.34Zm0,5.31a2.11,2.11,0,1,1,2.11-2.11A2.1,2.1,0,0,1,19.29,18.65Z"/></g></g></svg>