<svg xmlns="http://www.w3.org/2000/svg" viewBox="0 0 19.33 25.97"><defs><style>.cls-1{fill:#57b51a;}</style></defs><g id="Capa_2" data-name="Capa 2"><g id="NadaHero_Imagen" data-name="NadaHero Imagen"><path class="cls-1" d="M13.74,15.37a.57.57,0,0,0-.57.58v5.56h-4V3.88a.55.55,0,0,0-.36-.52L3.45,1.14h9.72V6.9a.57.57,0,0,0,.57.58.58.58,0,0,0,.57-.58V.57A.58.58,0,0,0,13.74,0H.46L.29.08l0,0s0,0,0,0L.1.26l0,.06A.54.54,0,0,0,0,.57V22.09a.71.71,0,0,0,0,.2l0,.05a.42.42,0,0,0,.08.12l0,0a.58.58,0,0,0,.15.11h0l8,3.32a.6.6,0,0,0,.22,0,.51.51,0,0,0,.32-.1.56.56,0,0,0,.26-.47V22.66h4.59a.58.58,0,0,0,.57-.57V16A.58.58,0,0,0,13.74,15.37ZM8,24.54,1.14,21.7V1.43L8,4.27ZM19.12,10.76,15.88,8.08a.57.57,0,1,0-.73.88l2,1.67H10.81a.56.56,0,0,0-.57.57.57.57,0,0,0,.57.57h6.4l-2.07,1.77a.57.57,0,0,0-.06.81.56.56,0,0,0,.8.06l3.25-2.78a.57.57,0,0,0,.2-.44A.55.55,0,0,0,19.12,10.76Z"/></g></g></svg>