<svg xmlns="http://www.w3.org/2000/svg" viewBox="0 0 33.16 33.16"><defs><style>.cls-1{fill:#425f66;}</style></defs><g id="Capa_2" data-name="Capa 2"><g id="NadaHero_Imagen" data-name="NadaHero Imagen"><path class="cls-1" d="M16.58,0A16.58,16.58,0,1,0,33.16,16.58,16.6,16.6,0,0,0,16.58,0Zm0,32A15.42,15.42,0,1,1,32,16.58,15.44,15.44,0,0,1,16.58,32Z"/><path class="cls-1" d="M22.1,17.92l-4.94-1.73V8.37a.58.58,0,0,0-1.16,0V16.6a.58.58,0,0,0,.39.54L21.72,19l.19,0a.57.57,0,0,0,.19-1.12Z"/></g></g></svg>