<svg xmlns="http://www.w3.org/2000/svg" viewBox="0 0 24.95 24.95"><defs><style>.cls-1{fill:#ff9045;}</style></defs><g id="Capa_2" data-name="Capa 2"><g id="NadaHero_Imagen" data-name="NadaHero Imagen"><path class="cls-1" d="M12.47,0A12.48,12.48,0,1,0,25,12.47,12.49,12.49,0,0,0,12.47,0Zm0,24.08A11.61,11.61,0,1,1,24.08,12.47,11.62,11.62,0,0,1,12.47,24.08Z"/><path class="cls-1" d="M16.63,13.48l-3.72-1.3V6.29a.44.44,0,0,0-.44-.43.43.43,0,0,0-.43.43v6.2a.45.45,0,0,0,.29.41l4,1.4.15,0a.44.44,0,0,0,.14-.85Z"/></g></g></svg>