<svg xmlns="http://www.w3.org/2000/svg" viewBox="0 0 44.31 51.05"><defs><style>.cls-1{fill:#57b51a;}</style></defs><g id="Capa_2" data-name="Capa 2"><g id="NadaHero_Imagen" data-name="NadaHero Imagen"><path class="cls-1" d="M19,18.47A7.21,7.21,0,0,0,21.7,19a7.45,7.45,0,0,0,2.92-.6,7.39,7.39,0,1,0-5.65.07Zm-2.74-9a5.91,5.91,0,0,1,5.48-3.71,6,6,0,0,1,2.17.42A5.89,5.89,0,0,1,24,17a5.88,5.88,0,0,1-7.73-3.08A5.81,5.81,0,0,1,16.23,9.44Zm5.19,17.12a.72.72,0,0,0,.34-.09l8-4.15A.75.75,0,1,0,29.12,21l-8,4.15a.75.75,0,0,0,.35,1.42Zm-2.39,3A.75.75,0,0,0,19,29l-1.57-3a.8.8,0,0,0-.44-.37.75.75,0,0,0-.57.05l-3.63,1.87a.79.79,0,0,0-.38.44.75.75,0,0,0,0,.57L14,31.55a.76.76,0,0,0,.67.41.73.73,0,0,0,.35-.09L18.66,30A.77.77,0,0,0,19,29.56Zm-4,.64-.89-1.72,2.3-1.18L17.3,29Zm9,2.31a.74.74,0,0,0,.67.41.72.72,0,0,0,.34-.09l8.05-4.15a.75.75,0,0,0-.69-1.33l-8,4.15A.75.75,0,0,0,24,32.51Zm-1.77,2.84L20.68,32.3a.75.75,0,0,0-.43-.37.78.78,0,0,0-.58.05L16,33.85a.76.76,0,0,0-.32,1l1.57,3a.76.76,0,0,0,.44.37.62.62,0,0,0,.23,0,.67.67,0,0,0,.34-.09l3.63-1.87A.75.75,0,0,0,22.26,35.35Zm-4,1.21-.88-1.72,2.29-1.18.89,1.71ZM40.66,22.81a3.65,3.65,0,0,0,1.36-7L33.28,12.3A11.6,11.6,0,0,0,11.06,7L.41,12.49a.75.75,0,0,0-.33,1L19.23,50.64a.76.76,0,0,0,.67.41.84.84,0,0,0,.34-.08L42.89,39.29a.73.73,0,0,0,.37-.44.75.75,0,0,0,0-.57L34,20.44l5.3,2.11A3.55,3.55,0,0,0,40.66,22.81ZM12.31,7.88a10.12,10.12,0,1,1,.11,7.73A10.11,10.11,0,0,1,12.31,7.88ZM14.19,23,11.9,24.17,11,22.45l2.3-1.18ZM41.54,38.3l-21.32,11L1.76,13.48,10.4,9A11.41,11.41,0,0,0,11,16.2a11.55,11.55,0,0,0,2.24,3.4L9.66,21.46a.73.73,0,0,0-.37.44.71.71,0,0,0,.05.57l1.57,3.05a.74.74,0,0,0,.67.41.84.84,0,0,0,.34-.08L15.55,24a.75.75,0,0,0,.37-.43.78.78,0,0,0-.05-.58l-1-2a11.92,11.92,0,0,0,2.57,1.43,11.48,11.48,0,0,0,4.27.82,11.69,11.69,0,0,0,8.91-4.14l1.4.55a.68.68,0,0,0,.08.31Zm-10-20.48a11.08,11.08,0,0,0,1-1.91,11.35,11.35,0,0,0,.61-2.07l8.37,3.33a2.15,2.15,0,0,1-1.58,4ZM24,38.66a.77.77,0,0,0-.44-.37.76.76,0,0,0-.57.05l-3.63,1.87a.75.75,0,0,0-.32,1l1.57,3.05a.73.73,0,0,0,.44.37.59.59,0,0,0,.23,0,.69.69,0,0,0,.34-.09l3.63-1.87a.76.76,0,0,0,.33-1Zm-2.4,4.26-.88-1.72L23,40l.89,1.71Zm5.75-4.05a.74.74,0,0,0,.66.41.73.73,0,0,0,.35-.09l8-4.15a.75.75,0,0,0-.69-1.33l-8,4.15A.75.75,0,0,0,27.31,38.87Z"/></g></g></svg>