<svg xmlns="http://www.w3.org/2000/svg" viewBox="0 0 49.87 56.82"><defs><style>.cls-1{fill:#425f66;}</style></defs><g id="Capa_2" data-name="Capa 2"><g id="NadaHero_Imagen" data-name="NadaHero Imagen"><path class="cls-1" d="M10.57,25.88A6,6,0,0,0,16,29.38a5.85,5.85,0,0,0,2.46-.54A6,6,0,0,0,22,23.67a4.44,4.44,0,0,0,1.68-5.62.08.08,0,0,0,0-.05l1.1-1.1a2.18,2.18,0,0,0,3.14-1.12,2.2,2.2,0,0,0-.06-1.67A2.17,2.17,0,0,0,26.59,13a2.42,2.42,0,0,0-.69-.14,2.32,2.32,0,0,0-.16-.51A2.08,2.08,0,0,0,22,14a1.85,1.85,0,0,0,.24.4L21,15.66a4.43,4.43,0,0,0-3.24.17,4.32,4.32,0,0,0-1.87,1.62,5.87,5.87,0,0,0-2.33.53,5.62,5.62,0,0,0-1.28.8V3a.75.75,0,0,0-1.5,0V20.24a.76.76,0,0,0,.06.26A6,6,0,0,0,10.57,25.88Zm3.59-6.54a4.48,4.48,0,0,1,1.84-.4h.25a.73.73,0,0,0,.7-.41,2.92,2.92,0,0,1,3.88-1.32.75.75,0,0,0,.85-.15l2.16-2.15a.76.76,0,0,0,.2-.67.73.73,0,0,0-.43-.55.55.55,0,0,1-.29-.28.58.58,0,0,1,0-.45.56.56,0,0,1,.3-.32.58.58,0,0,1,.76.29.55.55,0,0,1,0,.53.76.76,0,0,0,.14.94.74.74,0,0,0,.94.05l.12-.06a.63.63,0,0,1,.52,0,.71.71,0,0,1,.39.35.69.69,0,0,1,0,.53.69.69,0,0,1-.35.38.7.7,0,0,1-.83-.21.78.78,0,0,0-.54-.3.75.75,0,0,0-.58.22l-2,2a.8.8,0,0,0-.08,1,2.84,2.84,0,0,1-1.19,4.24.75.75,0,0,0-.42.69,4.47,4.47,0,1,1-6.31-3.91Zm31.76,10.8H40.85l.08-.06A2.81,2.81,0,0,0,41.49,28a2.28,2.28,0,0,1,.21-1.35h0a.51.51,0,0,0,.16-.13,2.73,2.73,0,0,0,.37-3.62A2.32,2.32,0,0,0,40.39,22a1.1,1.1,0,0,1-.55-.13,1.13,1.13,0,0,1-.17-.54,2.59,2.59,0,0,0-1-1.83,3,3,0,0,0-3.53.19,3.45,3.45,0,0,0-.53.59c-.56.71-1,1.2-1.77,1.07a3.5,3.5,0,0,0-2.73.59,3,3,0,0,0-1.22,1.95A4,4,0,0,0,29,25.42c.16.67.19.93-.07,1.22a4.12,4.12,0,0,1-.41.43,3.59,3.59,0,0,0-1.39,3.07H4a4,4,0,0,0,0,7.91h.63l4.61,18.2a.75.75,0,0,0,.73.57H40a.74.74,0,0,0,.73-.57l4.61-18.2h.57a4,4,0,0,0,0-7.91Zm-16.33-2c.16-.16.32-.32.46-.48a2.57,2.57,0,0,0,.41-2.57,2.73,2.73,0,0,1-.13-1,1.47,1.47,0,0,1,.62-.94,2.07,2.07,0,0,1,1.59-.34,3.3,3.3,0,0,0,3.21-1.61,3.54,3.54,0,0,1,.29-.35,1.57,1.57,0,0,1,1.75-.12c.26.18.32.42.4.87a2.19,2.19,0,0,0,.75,1.47,2.4,2.4,0,0,0,1.33.41c.42,0,.58.06.78.31.49.62,0,1.37-.28,1.65A3,3,0,0,0,40,28c0,.77-.12,1-.16,1s0,.05-.21.05a.76.76,0,0,0-.74.76.82.82,0,0,0,.07.28H33.72A17.79,17.79,0,0,0,40,25.75a.75.75,0,0,0-.11-1.05.74.74,0,0,0-1.05.1,18.21,18.21,0,0,1-8.61,5,.72.72,0,0,0-.43.33H28.66C28.4,29.44,28.76,29,29.59,28.12Zm9.84,27.2H10.5L6.13,38.05H43.8Zm6.49-18.77H4a2.46,2.46,0,0,1,0-4.91h42a2.46,2.46,0,0,1,0,4.91ZM36.66,18.32a.75.75,0,0,0,.75-.75V7.67a.75.75,0,0,0-1.5,0v9.9A.76.76,0,0,0,36.66,18.32ZM22.34,7.82a.76.76,0,0,0,.75-.75V.75a.75.75,0,0,0-1.5,0V7.07A.75.75,0,0,0,22.34,7.82ZM16.63,49.69a.76.76,0,0,0,.75.75h4.91a.75.75,0,0,0,0-1.5H17.38A.76.76,0,0,0,16.63,49.69Zm17.15-5.44h4.9a.75.75,0,1,0,0-1.5h-4.9a.75.75,0,0,0,0,1.5Zm-22.1,0h4.91a.75.75,0,1,0,0-1.5H11.68a.75.75,0,0,0,0,1.5Zm11.46,0h4.91a.75.75,0,0,0,0-1.5H23.14a.75.75,0,0,0,0,1.5Zm5,5.44a.75.75,0,0,0,.75.75h4.9a.75.75,0,0,0,0-1.5h-4.9A.75.75,0,0,0,28.1,49.69Z"/></g></g></svg>