<svg xmlns="http://www.w3.org/2000/svg" viewBox="0 0 63.59 46.9"><defs><style>.cls-1{fill:#cbd3d3;}</style></defs><g id="Capa_2" data-name="Capa 2"><g id="NadaHero_Imagen" data-name="NadaHero Imagen"><path class="cls-1" d="M17.42,28.84a.91.91,0,1,0,0-1.82h-9a.91.91,0,1,0,0,1.82Zm30-6.43a1.09,1.09,0,0,0,.26,0L52.46,21a.91.91,0,0,0,.62-1.13.92.92,0,0,0-1.14-.62l-4.77,1.43a.92.92,0,0,0-.61,1.14A.91.91,0,0,0,47.43,22.41ZM18,37.43H.91a.92.92,0,0,0,0,1.83H18a.92.92,0,0,0,0-1.83Zm10.59-2.57a6,6,0,1,0,6,6A6,6,0,0,0,28.61,34.86Zm0,10.22a4.2,4.2,0,1,1,4.2-4.2A4.2,4.2,0,0,1,28.61,45.08Zm14.2-15.64a.91.91,0,0,0,.88.65.82.82,0,0,0,.26,0l4.77-1.42a.92.92,0,0,0,.61-1.14.91.91,0,0,0-1.13-.61l-4.78,1.43A.91.91,0,0,0,42.81,29.44Zm15.38-3.59a1.13,1.13,0,0,0,0-.18l-.55-12.85.5-.15a4.12,4.12,0,0,0,2.47-2,4.15,4.15,0,0,0-4.85-6L35.55,10.75,16.55.5A4.11,4.11,0,0,0,13.38.18a4.16,4.16,0,0,0-.78,7.65l11.67,6.29L15,16.9a4,4,0,0,0-1.62.94.58.58,0,0,0-.19,0h-9a.91.91,0,1,0,0,1.82h8a4.15,4.15,0,0,0,5.16,5.25l.44-.13,6.08,10.18a.91.91,0,0,0,.78.44A.91.91,0,0,0,25.45,34L19.61,24.2,55.87,13.36l.53,12.39a.83.83,0,0,0,0,.15,6,6,0,0,0-4.89,5.9,6.4,6.4,0,0,0,.09.88.93.93,0,0,0-.33,0L35.38,37.47a.91.91,0,0,0,.26,1.79,1.09,1.09,0,0,0,.26,0l15.93-4.76a.85.85,0,0,0,.28-.16,6,6,0,1,0,6.08-8.45ZM18,22.79h0l-1.13.34a2.34,2.34,0,0,1-2.73-3.35,2.3,2.3,0,0,1,1.39-1.13l11-3.28.07,0,5.84,3.15Zm16.82-5.06L13.47,6.22a2.32,2.32,0,0,1-1.14-1.39,2.35,2.35,0,0,1,2.25-3,2.32,2.32,0,0,1,1.11.28L41.11,15.82Zm8.85-2.61L37.81,12l18.5-5.53a2.34,2.34,0,0,1,1.34,4.49l-1.18.35h0ZM57.57,36a4.2,4.2,0,1,1,4.2-4.2A4.2,4.2,0,0,1,57.57,36ZM36.28,25.75a.75.75,0,0,0,.26,0l4.78-1.43a.91.91,0,0,0,.61-1.13.93.93,0,0,0-1.14-.61L36,24a.91.91,0,0,0,.26,1.78Zm-4.69.49a.93.93,0,0,0-1.14-.61l-4.77,1.43a.91.91,0,0,0,.26,1.78.75.75,0,0,0,.26,0L31,27.38A.92.92,0,0,0,31.59,26.24Zm.07,6.54a.92.92,0,0,0,.88.65,1.27,1.27,0,0,0,.26,0L37.57,32a.91.91,0,0,0-.52-1.74l-4.77,1.42A.92.92,0,0,0,31.66,32.78Z"/></g></g></svg>