<svg xmlns="http://www.w3.org/2000/svg" viewBox="0 0 62.06 48.99"><defs><style>.cls-1{fill:#cbd3d3;}</style></defs><g id="Capa_2" data-name="Capa 2"><g id="NadaHero_Imagen" data-name="NadaHero Imagen"><path class="cls-1" d="M36.1,7A1.14,1.14,0,1,0,35,5.82,1.14,1.14,0,0,0,36.1,7Zm0-1.5a.36.36,0,0,1,.36.36.36.36,0,1,1-.72,0A.36.36,0,0,1,36.1,5.46ZM58.91,30.31a11.16,11.16,0,0,0-3.44-.79c-.61-.08-1.18-.15-1.65-.26a.71.71,0,0,0,.26-.44c0-.13,0-.25.06-.38h.1a6.63,6.63,0,0,0,6.43-4.57.75.75,0,0,0-.62-.95c-2.43-.33-4.33.07-5.64,1.2a5.08,5.08,0,0,0-.74.82,5.48,5.48,0,0,0-1.33-1.85.75.75,0,0,0-1,1.17,4.33,4.33,0,0,1,1.32,3.3h0a6.8,6.8,0,0,1-.1,1,.61.61,0,0,0,0,.38l-.84-.29c-1.88-.67-4-1.44-5.41-.94-2.8,1-4.1,2.53-4.94,5.84a9.11,9.11,0,0,0-.22,2.84.84.84,0,0,0-.14-.06c-1.63-.56-4.28-.32-8.59.78-5.08,1.29-10,3.2-13,5.21a10,10,0,0,0,.59-3.37c0-3.59-2.32-4-4.56-4.31A16.19,16.19,0,0,1,13,34.06c.38-.81.93-1.51,1.73-1.54a.75.75,0,0,0,.72-.78.79.79,0,0,0-.78-.72,2.84,2.84,0,0,0-1.25.35A3.53,3.53,0,0,0,10,29.1a.7.7,0,0,0-.55.28.73.73,0,0,0-.15.6,3.7,3.7,0,0,0,1.59,2.69,2.44,2.44,0,0,0,.92.35c-.08.14-.15.29-.23.44a6.28,6.28,0,0,1-1.06-.73C8.46,31,6.19,30.56,4.14,31.52,1.66,32.67,0,35.65,0,38.93A10,10,0,0,0,16.88,46.3c.48,1.52,2.88,2.16,6.21,2.16A50.79,50.79,0,0,0,35,46.74c4.31-1.09,6.75-2.14,7.93-3.41a3.72,3.72,0,0,0,.49-.7,8,8,0,0,0,1.93,2,3.59,3.59,0,0,0,2.75.29,3.78,3.78,0,0,1,1.51-.08,4.26,4.26,0,0,1,1.31.74,3.93,3.93,0,0,0,2.2,1,2.69,2.69,0,0,0,.47,0,12,12,0,0,0,8.13-7.9C62.68,34.69,61.7,31.74,58.91,30.31Zm-3.52-5a4.6,4.6,0,0,1,3.09-1h.38a5,5,0,0,1-4.52,2.62A3.46,3.46,0,0,1,55.39,25.26ZM11.67,31.38a1.46,1.46,0,0,1-.43-.43,2.08,2.08,0,0,1,.48.46ZM10.06,47.49A8.57,8.57,0,0,1,1.5,38.93c0-2.66,1.35-5.15,3.27-6a3.67,3.67,0,0,1,1.57-.36,5.13,5.13,0,0,1,3.24,1.36,8.34,8.34,0,0,0,1.49,1,10.85,10.85,0,0,0-.34,1.65.75.75,0,0,0,.66.83h.08a.76.76,0,0,0,.75-.66,9.75,9.75,0,0,1,.25-1.23,16.9,16.9,0,0,0,2.85.62c2.26.36,3.29.52,3.29,2.83A8.57,8.57,0,0,1,10.06,47.49Zm31.72-5.18c-.93,1-3.28,2-7.19,3-10.13,2.57-16,1.72-16.3.55-.19-.77,1.74-2.52,5.86-4.36a3,3,0,0,1,1,2,.75.75,0,0,0,1.5,0,4.18,4.18,0,0,0-1.07-2.66c.87-.34,1.82-.69,2.85-1a3.21,3.21,0,0,1,1.26,2.24.75.75,0,0,0,1.5,0,4.19,4.19,0,0,0-1.15-2.75c.89-.27,1.81-.53,2.8-.78l.49-.12.08.08a3.3,3.3,0,0,1,1.34,2.3.75.75,0,0,0,1.5,0A4.26,4.26,0,0,0,35.12,38a20.45,20.45,0,0,1,3.92-.5,5,5,0,0,1,1.58.21,1.7,1.7,0,0,1,.94.71,12.74,12.74,0,0,0,.61,1.93A1.89,1.89,0,0,1,41.78,42.31ZM43.65,40h0l0-.05c0-.19-.08-.37-.13-.54A6.81,6.81,0,0,0,43,37.87l0-.14.1,0h0a.76.76,0,0,0,.75-.75c0-.85.27-3.13,1.45-3.86a3.59,3.59,0,0,1-.87,3.18.75.75,0,0,0,0,.94.74.74,0,0,0,.92.17s1.77-.93,2.79-.23a4.29,4.29,0,0,1-2.86.59.75.75,0,0,0-.39,1.45,6.23,6.23,0,0,1,2.75,1.68,2.42,2.42,0,0,1-2.9-.77A.75.75,0,0,0,43.65,40Zm16.57-1.77a10.47,10.47,0,0,1-7,6.8c-.4.09-.82-.19-1.47-.66a5.56,5.56,0,0,0-1.82-1,3.21,3.21,0,0,0-.81-.1,8.08,8.08,0,0,0-1.32.15c-.69.11-1.28.21-1.63,0A6.1,6.1,0,0,1,45,42.26a3.83,3.83,0,0,0,1.59.34A4.73,4.73,0,0,0,48.92,42a.74.74,0,0,0,.36-.71A3.25,3.25,0,0,0,47.74,39a3,3,0,0,0,1.83-1.31A1.33,1.33,0,0,0,49,36a3.32,3.32,0,0,0-2.52-.53,3.58,3.58,0,0,0-.19-3.41,1.29,1.29,0,0,0-1.58-.38A3.77,3.77,0,0,0,43,33.55c.72-2.57,1.66-3.64,3.9-4.45.89-.31,2.92.41,4.4.94a19.53,19.53,0,0,0,1.89.62,17.27,17.27,0,0,0,2.08.35,10.75,10.75,0,0,1,2.95.63C60.92,33,60.8,36,60.22,38.25ZM29.44,22.1C36,22.1,40.77,14.24,41,13.91A.73.73,0,0,0,41,13.3a.76.76,0,0,0-.4-.46c-10.94-5-21.2-.2-21.64,0a.72.72,0,0,0-.39.46.78.78,0,0,0,.07.6C21.92,19.34,25.54,22.1,29.44,22.1Zm9.77-8.24c-1.3,1.87-5.13,6.74-9.77,6.74h0c-3.16,0-6.19-2.26-9-6.72C22.89,12.94,30.87,10.45,39.21,13.86ZM23.55,7a1.14,1.14,0,1,0-1.14-1.14A1.14,1.14,0,0,0,23.55,7Zm0-1.5a.36.36,0,0,1,.36.36.37.37,0,0,1-.36.37.38.38,0,0,1-.37-.37A.37.37,0,0,1,23.55,5.46Zm6.28,29.8A17.63,17.63,0,1,0,12.2,17.63,17.65,17.65,0,0,0,29.83,35.26Zm0-33.76A16.13,16.13,0,1,1,13.7,17.63,16.15,16.15,0,0,1,29.83,1.5Z"/></g></g></svg>