<svg xmlns="http://www.w3.org/2000/svg" viewBox="0 0 26.31 47.88"><defs><style>.cls-1{fill:#425f66;}</style></defs><g id="Capa_2" data-name="Capa 2"><g id="NadaHero_Imagen" data-name="NadaHero Imagen"><path class="cls-1" d="M13.15,19.07a5.06,5.06,0,1,0,5.06,5.06A5.06,5.06,0,0,0,13.15,19.07Zm0,8.62a3.56,3.56,0,1,1,3.56-3.56A3.56,3.56,0,0,1,13.15,27.69Zm4.31-14a12,12,0,0,0,5.41-3.16A13.79,13.79,0,0,0,26.3.78c0-.05,0-.09,0-.13A.75.75,0,0,0,25.46,0a.77.77,0,0,0-.67.78c0,.13-.46,1.72-6.31,3.44a10.67,10.67,0,0,0-7.87,8.93l-.41.1a6.85,6.85,0,0,0-5-5.66c-3.12-.92-3.6-1.75-3.66-1.88A.75.75,0,0,0,.84,5,.73.73,0,0,0,0,5.64a.45.45,0,0,0,0,.12,8.72,8.72,0,0,0,2.17,6.16,8.3,8.3,0,0,0,5.28,2.37A12.23,12.23,0,0,0,.92,25.12c0,3.11,1.7,8.5,4.33,13.72,1.38,2.72,4.89,9,7.9,9,4.74,0,12.24-16.34,12.24-22.76A12.25,12.25,0,0,0,17.46,13.67Zm1.44-8a19.14,19.14,0,0,0,5.77-2.51,11.48,11.48,0,0,1-2.89,6.33c-2.16,2.26-5.4,3.4-9.61,3.4h0A9.17,9.17,0,0,1,18.9,5.66ZM3.28,10.89A6.41,6.41,0,0,1,1.7,7.81,14.21,14.21,0,0,0,4.75,9,5.3,5.3,0,0,1,8.6,12.87,7.31,7.31,0,0,1,3.28,10.89Zm9.87,35.49c-3.21,0-10.73-14.9-10.73-21.26a10.74,10.74,0,1,1,21.47,0C23.89,31.48,16.37,46.38,13.15,46.38Z"/></g></g></svg>