<svg xmlns="http://www.w3.org/2000/svg" viewBox="0 0 61.53 61.95"><defs><style>.cls-1{fill:#57b51a;}</style></defs><g id="Capa_2" data-name="Capa 2"><g id="NadaHero_Imagen" data-name="NadaHero Imagen"><path class="cls-1" d="M30.82,22.34a11,11,0,0,0-3.31,1.18l-1.22.54a.71.71,0,0,0-.05-.29,2.14,2.14,0,0,0-.1-.22,6.55,6.55,0,0,0,2.93-7.31.92.92,0,0,0-1.25-.56c-2.22,1-3.6,2.39-4.11,4.05a6.3,6.3,0,0,0-.17.82,5,5,0,0,0-1.89-.69.91.91,0,0,0-.21,1.8,4.21,4.21,0,0,1,3.11,2.78.5.5,0,0,0,.08.12l-.56.13c-1.93.44-4.12.94-5.05,2.14-1.82,2.35-2.09,4.33-1,7.55,1.21,3.69,5.5,7.09,9.16,7.26h.12a3.78,3.78,0,0,0,2.43-1.25,3.68,3.68,0,0,1,1.13-.82,4,4,0,0,1,1.41-.07,3.41,3.41,0,0,0,2.8-.7,11.9,11.9,0,0,0,2.59-10.95C36.37,24,34,22.05,30.82,22.34Zm-5.36-2.1a4.4,4.4,0,0,1,2-2.32,4.65,4.65,0,0,1-2.07,3.94A3.11,3.11,0,0,1,25.46,20.24Zm8.32,17.27c-.23.23-.7.22-1.43.18a5.29,5.29,0,0,0-2.07.16A5.15,5.15,0,0,0,28.49,39c-.46.41-.88.8-1.24.79-2.9-.14-6.56-3.06-7.53-6-.87-2.65-.7-4,.74-5.88.53-.68,2.63-1.16,4-1.48.7-.16,1.37-.31,1.89-.48a19.23,19.23,0,0,0,1.91-.82,10.33,10.33,0,0,1,2.71-1l.41,0c2.55,0,3.86,2.3,4.51,4.28h0A10,10,0,0,1,33.78,37.51ZM57.18,36a3,3,0,0,1,.32.08.9.9,0,0,0,.7,0,.88.88,0,0,0,.47-.51l2.52-6.71A5.32,5.32,0,0,0,58.09,22l-6.35-2.38h0l-2.46-.92a.58.58,0,0,0,0-.19l-7-15.38a5.29,5.29,0,0,0-7-2.64l-6.53,3a.92.92,0,0,0-.45,1.21c.9,2,.77,4.41-1.4,5.61l-10.74-4a5.3,5.3,0,0,0-6.84,3.1L6.74,16.05a.91.91,0,0,0,.53,1.17A4.61,4.61,0,1,1,4,25.85a.87.87,0,0,0-.69,0,.92.92,0,0,0-.48.51L.34,33.09a5.31,5.31,0,0,0,3.11,6.84l19.27,7.24L28,58.84A5.32,5.32,0,0,0,32.86,62a5.43,5.43,0,0,0,2.19-.47l6.53-3a.9.9,0,0,0,.45-1.2,2.86,2.86,0,0,1,0-2.91l3.44,1.29A5.31,5.31,0,0,0,51.49,54s.1,0,.14,0l6.53-3a5.31,5.31,0,0,0,2.64-7ZM30.23,4.74,36,2.13A3.44,3.44,0,0,1,38.65,2a3.5,3.5,0,0,1,2,1.83L46.93,17.8,28.87,11A5.8,5.8,0,0,0,30.23,4.74ZM4.09,38.23a3.48,3.48,0,0,1-2-4.5l2.23-5.92a6.42,6.42,0,0,0,7.23-8.93,6.34,6.34,0,0,0-2.76-3L11,10a3.5,3.5,0,0,1,4.5-2L50.25,21,38.87,51.29Zm36,19L34.3,59.82a3.51,3.51,0,0,1-4.63-1.73l-4.55-10,14,5.24h0l1.19.45A4.35,4.35,0,0,0,40,57.21ZM50.57,52a3.5,3.5,0,0,1-4.5,2l-5.5-2.06L52,21.63l5.5,2.06a3.5,3.5,0,0,1,2,4.5l-2.22,5.92a6.44,6.44,0,0,0-4.05.43A6.43,6.43,0,0,0,52.8,46Zm6.84-2.62-4.72,2.14,2.1-5.6a.87.87,0,0,0,0-.69.92.92,0,0,0-.51-.48,4.59,4.59,0,0,1-2.69-5.93h0A4.56,4.56,0,0,1,54,36.19a4.45,4.45,0,0,1,1.17-.33.61.61,0,0,0,0,.11l4,8.73A3.51,3.51,0,0,1,57.41,49.33Z"/></g></g></svg>