<svg xmlns="http://www.w3.org/2000/svg" viewBox="0 0 24.26 24.27"><defs><style>.cls-1{fill:#57b51a;}</style></defs><g id="Capa_2" data-name="Capa 2"><g id="NadaHero_Imagen" data-name="NadaHero Imagen"><g id="Mgm4Fc.tif"><path class="cls-1" d="M12.89,24.27H11.37a.65.65,0,0,0-.2,0,11.31,11.31,0,0,1-4-1,12,12,0,0,1-7-9C.1,13.77.06,13.33,0,12.89V11.38c.08-.53.13-1.07.23-1.59A12.14,12.14,0,0,1,10.94.06a11.56,11.56,0,0,1,7.25,1.58,11.83,11.83,0,0,1,6.06,10.29,11.37,11.37,0,0,1-2,6.89,11.94,11.94,0,0,1-8,5.26C13.8,24.16,13.34,24.21,12.89,24.27Zm9.35-12.12A10.11,10.11,0,1,0,12.12,22.24,10.1,10.1,0,0,0,22.24,12.15Z"/><path class="cls-1" d="M10.5,14.28a1.94,1.94,0,0,1,.2-.29l6.14-6.15a1.06,1.06,0,0,1,1.1-.33A1,1,0,0,1,18.47,9a1.74,1.74,0,0,1-.25.29l-6.86,6.86a1.06,1.06,0,0,1-1.73,0L7,13.51a1,1,0,0,1-.28-1,.94.94,0,0,1,.75-.71,1,1,0,0,1,1,.31L10.29,14A1.65,1.65,0,0,1,10.5,14.28Z"/></g></g></g></svg>