<svg xmlns="http://www.w3.org/2000/svg" viewBox="0 0 28.5 28.49"><defs><style>.cls-1{fill:#fff;}</style></defs><g id="Capa_2" data-name="Capa 2"><g id="NadaHero_Imagen" data-name="NadaHero Imagen"><g id="xQngwC.tif"><path class="cls-1" d="M0,4c.24-.6.42-.73,1.08-.73H14.34a1.2,1.2,0,0,1,.38,0,.85.85,0,0,1,.6,1,.82.82,0,0,1-.86.78H1.81V26.68H23.45V14.34a1.67,1.67,0,0,1,0-.39.84.84,0,0,1,.87-.61.91.91,0,0,1,.86.69,1.27,1.27,0,0,1,0,.28V27.55a.84.84,0,0,1-.7.92l0,0H.73l-.14,0A.77.77,0,0,1,.07,28,1.46,1.46,0,0,1,0,27.76Z"/><path class="cls-1" d="M0,27.76A1.46,1.46,0,0,0,.07,28a.77.77,0,0,0,.52.49l.14,0H0Z"/><path class="cls-1" d="M8.59,20.94a.9.9,0,0,1-.85-1.18A5.34,5.34,0,0,1,8,19c.73-1.87,1.47-3.75,2.21-5.61a1.42,1.42,0,0,1,.31-.48L23.1.34A1,1,0,0,1,23.73,0a.93.93,0,0,1,.74.3l1.86,1.87L28.17,4a.88.88,0,0,1,0,1.37L15.69,18a1.4,1.4,0,0,1-.47.32L9,20.79C8.88,20.85,8.73,20.89,8.59,20.94Zm6.3-4.81,7.56-7.65L19.92,6,12.36,13.6ZM21.32,4.68l2.49,2.49L26.3,4.69,23.8,2.2ZM10,18.31l3.13-1.25-1.78-1.79Z"/></g></g></g></svg>