<svg xmlns="http://www.w3.org/2000/svg" viewBox="0 0 73.24 56.91"><defs><style>.cls-1{fill:#010101;}.cls-2{fill:#ea001b;}.cls-3{fill:#ff5f01;}.cls-4{fill:#c0c2c4;}.cls-5{fill:#f79e1c;}</style></defs><g id="Capa_2" data-name="Capa 2"><g id="NadaHero_Imagen" data-name="NadaHero Imagen"><path class="cls-1" d="M12.55,51.09a2.15,2.15,0,0,0-.75-.5,2.59,2.59,0,0,0-1-.17,3.69,3.69,0,0,0-.56,0,2.87,2.87,0,0,0-.57.17,2.18,2.18,0,0,0-.54.33,1.94,1.94,0,0,0-.44.53,2.22,2.22,0,0,0-.82-.79,2.41,2.41,0,0,0-1.19-.28,2.53,2.53,0,0,0-.46,0,2.1,2.1,0,0,0-.47.14,1.68,1.68,0,0,0-.46.27,2.11,2.11,0,0,0-.39.44v-.74H3.7v6H5V53.24a1.78,1.78,0,0,1,.12-.67,1.35,1.35,0,0,1,.32-.5,1.52,1.52,0,0,1,.48-.31,1.81,1.81,0,0,1,.58-.1,1.21,1.21,0,0,1,1,.41,1.7,1.7,0,0,1,.36,1.16v3.33H9.09V53.24a1.78,1.78,0,0,1,.12-.67,1.35,1.35,0,0,1,.32-.5,1.42,1.42,0,0,1,.48-.31,1.81,1.81,0,0,1,.58-.1,1.2,1.2,0,0,1,1,.41,1.7,1.7,0,0,1,.36,1.16v3.33h1.27V52.8a2.69,2.69,0,0,0-.17-1,2.08,2.08,0,0,0-.49-.75"/><path class="cls-1" d="M19.25,51.3a2.28,2.28,0,0,0-1.88-.88,2.92,2.92,0,0,0-1.18.23,3,3,0,0,0-1.59,1.66,3.39,3.39,0,0,0-.22,1.25,3.51,3.51,0,0,0,.22,1.28,3.19,3.19,0,0,0,.64,1,3,3,0,0,0,1,.66,3.1,3.1,0,0,0,1.18.23,2.45,2.45,0,0,0,1.1-.23,2.25,2.25,0,0,0,.78-.65v.72h1.31v-6H19.25Zm-.05,3a1.88,1.88,0,0,1-.37.6,1.83,1.83,0,0,1-.57.4,1.75,1.75,0,0,1-.74.15,1.7,1.7,0,0,1-.76-.16,1.76,1.76,0,0,1-.56-.41,2,2,0,0,1-.36-.61,2.27,2.27,0,0,1-.12-.75,2.19,2.19,0,0,1,.12-.73,1.93,1.93,0,0,1,.36-.61,1.51,1.51,0,0,1,.56-.41,1.7,1.7,0,0,1,.76-.16,1.91,1.91,0,0,1,.74.14,1.85,1.85,0,0,1,.57.41,1.68,1.68,0,0,1,.37.6,2.13,2.13,0,0,1,.13.76,2.2,2.2,0,0,1-.13.78"/><path class="cls-1" d="M26.57,53.56A3.25,3.25,0,0,0,25,53l-.62-.09L24,52.82a1.33,1.33,0,0,1-.32-.11.71.71,0,0,1-.21-.17.57.57,0,0,1-.08-.26.61.61,0,0,1,.3-.52,1.51,1.51,0,0,1,.84-.2,2.56,2.56,0,0,1,.55,0,4,4,0,0,1,.52.12,4.49,4.49,0,0,1,.44.17l.34.17.56-1a3.73,3.73,0,0,0-1.09-.46,5.29,5.29,0,0,0-1.34-.17,3.54,3.54,0,0,0-1,.14,2.32,2.32,0,0,0-.79.38,1.67,1.67,0,0,0-.49.6,1.78,1.78,0,0,0-.17.81,1.46,1.46,0,0,0,.52,1.17,2.92,2.92,0,0,0,1.51.58l.62.08a1.94,1.94,0,0,1,.79.24.48.48,0,0,1,.25.42.59.59,0,0,1-.34.54,2.11,2.11,0,0,1-1,.2,4.43,4.43,0,0,1-.66,0,3.71,3.71,0,0,1-.53-.14,3.46,3.46,0,0,1-.43-.19,3.07,3.07,0,0,1-.35-.24l-.61,1a3,3,0,0,0,.68.4,4.08,4.08,0,0,0,.7.23,6,6,0,0,0,.65.12,5.34,5.34,0,0,0,.54,0,4.47,4.47,0,0,0,1.15-.14,2.46,2.46,0,0,0,.86-.41,1.71,1.71,0,0,0,.53-.61,1.76,1.76,0,0,0,.18-.79,1.44,1.44,0,0,0-.54-1.2"/><path class="cls-1" d="M38.8,51.29a2.56,2.56,0,0,0-.89-.64,2.75,2.75,0,0,0-1.15-.23,3,3,0,0,0-1.22.23,2.62,2.62,0,0,0-.93.64,3,3,0,0,0-.62,1,3.78,3.78,0,0,0-.21,1.28,3.55,3.55,0,0,0,.22,1.3,2.81,2.81,0,0,0,.64,1,2.63,2.63,0,0,0,1,.63,3.3,3.3,0,0,0,1.24.23,4.26,4.26,0,0,0,1.3-.19,3.21,3.21,0,0,0,1.16-.65l-.65-.94a3.08,3.08,0,0,1-.83.47,2.56,2.56,0,0,1-.9.17,2,2,0,0,1-.61-.09,1.5,1.5,0,0,1-.53-.28,1.45,1.45,0,0,1-.41-.47,1.93,1.93,0,0,1-.23-.69h4.42a.9.9,0,0,0,0-.24,2,2,0,0,0,0-.25,3.78,3.78,0,0,0-.21-1.28,3.12,3.12,0,0,0-.58-1m-3.65,1.76a2.24,2.24,0,0,1,.17-.59,1.56,1.56,0,0,1,.32-.47,1.38,1.38,0,0,1,.47-.31,2,2,0,0,1,.62-.1,1.46,1.46,0,0,1,1,.39,1.84,1.84,0,0,1,.49,1.08Z"/><path class="cls-1" d="M56.16,51.3a2.25,2.25,0,0,0-1.88-.88,2.89,2.89,0,0,0-1.18.23,3.12,3.12,0,0,0-1,.66,3,3,0,0,0-.64,1,3.39,3.39,0,0,0-.23,1.25,3.51,3.51,0,0,0,.23,1.28,3,3,0,0,0,.64,1,3,3,0,0,0,1,.66,3.06,3.06,0,0,0,1.18.23,2.53,2.53,0,0,0,1.11-.23,2.31,2.31,0,0,0,.77-.65v.72h1.31v-6H56.16Zm0,3a2.07,2.07,0,0,1-.37.6,2,2,0,0,1-.57.4,1.75,1.75,0,0,1-.74.15,1.65,1.65,0,0,1-.75-.16,1.61,1.61,0,0,1-.57-.41,1.86,1.86,0,0,1-.36-.61,2.27,2.27,0,0,1-.13-.75,2.2,2.2,0,0,1,.13-.73,1.76,1.76,0,0,1,.36-.61,1.39,1.39,0,0,1,.57-.41,1.65,1.65,0,0,1,.75-.16,1.91,1.91,0,0,1,.74.14,2,2,0,0,1,.57.41,1.84,1.84,0,0,1,.37.6,2.13,2.13,0,0,1,.13.76,2.2,2.2,0,0,1-.13.78"/><path class="cls-1" d="M32.17,55.37a1.75,1.75,0,0,1-.62.12,1.16,1.16,0,0,1-.38-.06.79.79,0,0,1-.3-.2,1.15,1.15,0,0,1-.2-.35,1.53,1.53,0,0,1-.07-.51V51.76h2.09V50.57H30.6V48.76H29.28v1.81H28.09v1.19h1.19V54.4a2.36,2.36,0,0,0,.57,1.75,2.14,2.14,0,0,0,1.58.57,3,3,0,0,0,1-.17,4.68,4.68,0,0,0,.55-.27l-.44-1.09a2.87,2.87,0,0,1-.4.18"/><path class="cls-1" d="M44,50.42a2.61,2.61,0,0,0-1,.19,2.13,2.13,0,0,0-.74.75v-.79H41v6h1.2V53.27a2.32,2.32,0,0,1,.1-.68,1.6,1.6,0,0,1,.3-.51,1.17,1.17,0,0,1,.45-.31,1.52,1.52,0,0,1,.57-.11,2.44,2.44,0,0,1,.52.06,1.34,1.34,0,0,1,.27.07l.38-1.26-.32-.07a3.09,3.09,0,0,0-.55,0"/><path class="cls-1" d="M62.13,50.42a2.61,2.61,0,0,0-1,.19,2.15,2.15,0,0,0-.75.75v-.79H59.21v6H60.4V53.27a2,2,0,0,1,.11-.68,1.44,1.44,0,0,1,.3-.51,1.1,1.1,0,0,1,.45-.31,1.52,1.52,0,0,1,.57-.11,2.52,2.52,0,0,1,.52.06.91.91,0,0,1,.25.07L63,50.53l-.32-.07a3,3,0,0,0-.54,0"/><path class="cls-1" d="M68.23,48.14V51.3a2.19,2.19,0,0,0-.77-.64,2.27,2.27,0,0,0-1.11-.24,2.84,2.84,0,0,0-1.17.23,2.9,2.9,0,0,0-1,.66,2.81,2.81,0,0,0-.64,1,3.39,3.39,0,0,0-.23,1.25,3.51,3.51,0,0,0,.23,1.28,2.86,2.86,0,0,0,.64,1,2.75,2.75,0,0,0,1,.66,3,3,0,0,0,1.17.23,2.53,2.53,0,0,0,1.11-.23,2.21,2.21,0,0,0,.77-.65v.72h1.31V48.14Zm0,6.2a2.31,2.31,0,0,1-.37.6,2,2,0,0,1-.57.4,1.78,1.78,0,0,1-.74.15,1.7,1.7,0,0,1-.76-.16,1.66,1.66,0,0,1-.56-.41,1.7,1.7,0,0,1-.36-.61,2,2,0,0,1-.13-.75,2,2,0,0,1,.13-.73,1.62,1.62,0,0,1,.36-.61,1.43,1.43,0,0,1,.56-.41,1.7,1.7,0,0,1,.76-.16,2,2,0,0,1,.74.14,2,2,0,0,1,.57.41,2,2,0,0,1,.37.6,2.38,2.38,0,0,1,.13.76,2.45,2.45,0,0,1-.13.78"/><path class="cls-1" d="M47.1,52.18a1.6,1.6,0,0,1,.59-.39,2,2,0,0,1,.74-.14,2.39,2.39,0,0,1,.82.14,2,2,0,0,1,.63.38l.64-1.05a3.2,3.2,0,0,0-.8-.46,3.25,3.25,0,0,0-1.29-.24,3.17,3.17,0,0,0-1.28.24,3,3,0,0,0-1,.66,2.89,2.89,0,0,0-.67,1,3.25,3.25,0,0,0,0,2.5,2.94,2.94,0,0,0,.67,1,2.73,2.73,0,0,0,1,.66,3.18,3.18,0,0,0,1.28.25,3.26,3.26,0,0,0,1.29-.25,3.5,3.5,0,0,0,.8-.45L49.88,55a1.81,1.81,0,0,1-.63.37,2.18,2.18,0,0,1-.82.15,1.81,1.81,0,0,1-.74-.15A1.49,1.49,0,0,1,47.1,55a1.55,1.55,0,0,1-.4-.6,2.1,2.1,0,0,1,0-1.56,1.75,1.75,0,0,1,.4-.61"/><path class="cls-1" d="M72.3,55.69a.67.67,0,0,1,.24,0,.66.66,0,0,1,.2.14.53.53,0,0,1,.13.19.47.47,0,0,1,0,.24.46.46,0,0,1,0,.23.69.69,0,0,1-.13.2.86.86,0,0,1-.2.13.69.69,0,0,1-.24,0,.62.62,0,0,1-.25,0,.58.58,0,0,1-.2-.13.56.56,0,0,1-.14-.2.59.59,0,0,1,0-.23.6.6,0,0,1,0-.24.45.45,0,0,1,.14-.19.48.48,0,0,1,.2-.14.62.62,0,0,1,.25,0m0,1.05.17,0a.71.71,0,0,0,.14-.1.67.67,0,0,0,.09-.14.51.51,0,0,0,0-.17.57.57,0,0,0,0-.18.39.39,0,0,0-.23-.23l-.17,0A.43.43,0,0,0,72,56a.71.71,0,0,0-.1.14,1.13,1.13,0,0,0,0,.18,1,1,0,0,0,0,.17.71.71,0,0,0,.1.14.5.5,0,0,0,.14.1.48.48,0,0,0,.18,0m0-.71a.22.22,0,0,1,.17,0,.14.14,0,0,1,0,.13.15.15,0,0,1,0,.11.17.17,0,0,1-.11.06l.17.19h-.19l-.15-.19h0v.19h-.15V56Zm-.12.12v.11h.17a0,0,0,0,0,0,0s0,0,0,0,0,0,0,0Z"/><path class="cls-2" d="M28,22.57A22.51,22.51,0,0,1,36.58,4.88a22.57,22.57,0,1,0-14,40.27,22.48,22.48,0,0,0,14-4.88A22.51,22.51,0,0,1,28,22.57"/><path class="cls-3" d="M28,22.57a22.51,22.51,0,0,0,8.57,17.7,22.55,22.55,0,0,0,0-35.39A22.51,22.51,0,0,0,28,22.57"/><path class="cls-4" d="M71.62,34.79v-.66h-.26v-.19h.73v.19h-.27v.66Zm1.42,0V34.2l-.19.51h-.21l-.19-.51v.59h-.2v-.85h.29l.2.54.21-.54h.29v.85Z"/><path class="cls-5" d="M50.58,0a22.41,22.41,0,0,0-14,4.88,22.55,22.55,0,0,1,0,35.39A22.57,22.57,0,1,0,50.58,0"/></g></g></svg>