<svg xmlns="http://www.w3.org/2000/svg" viewBox="0 0 286.64 288.62"><defs><style>.cls-1{fill:#57b51a;}</style></defs><g id="Capa_2" data-name="Capa 2"><g id="NadaHero_Imagen" data-name="NadaHero Imagen"><path class="cls-1" d="M266.39,167.65c.49.15,1,.22,1.48.4a4.23,4.23,0,0,0,5.45-2.48l11.74-31.28a24.76,24.76,0,0,0-14.47-31.85L241,91.34h0l-11.43-4.29a3.51,3.51,0,0,0-.2-.85L196.84,14.52a24.75,24.75,0,0,0-32.75-12.3L133.67,16a4.22,4.22,0,0,0-2.1,5.6c4.18,9.21,3.57,20.58-6.55,26.15L75,29A24.73,24.73,0,0,0,43.15,43.48L31.4,74.76A4.28,4.28,0,0,0,31.51,78a4.22,4.22,0,0,0,2.37,2.21,21.48,21.48,0,0,1-15.1,40.21,4.23,4.23,0,0,0-5.44,2.47L1.59,154.17A24.75,24.75,0,0,0,16.06,186l89.78,33.7,24.69,54.36a24.68,24.68,0,0,0,32.75,12.3l30.43-13.82a4.22,4.22,0,0,0,2.09-5.6c-2.66-5.88-2.47-8.86-.2-13.54l16.05,6a24.69,24.69,0,0,0,28.22-8,3.58,3.58,0,0,0,.65-.14l30.42-13.81a24.76,24.76,0,0,0,12.29-32.75ZM140.82,22.09,167.59,9.93A16.27,16.27,0,0,1,189.14,18l29.48,64.91L134.5,51.35C142.07,44.29,144.58,33.47,140.82,22.09ZM19,178.11a16.28,16.28,0,0,1-9.52-21l10.36-27.6a29.94,29.94,0,0,0,20.84-55.5l10.36-27.6a16.27,16.27,0,0,1,21-9.52L234.09,97.77,181.1,239Zm167.52,88.42-26.77,12.15a16.27,16.27,0,0,1-21.55-8.09L117,223.94l65,24.41h0l5.56,2.09C185,256.22,184.68,260.85,186.55,266.53Zm49-24.52a16.29,16.29,0,0,1-21,9.52L189,241.92l53-141.17,25.61,9.61a16.3,16.3,0,0,1,9.52,21l-10.36,27.6A29.94,29.94,0,0,0,246,214.42Zm31.85-12.22-22,10,9.78-26.07a4.23,4.23,0,0,0-2.47-5.44,21.47,21.47,0,0,1-12.56-27.65h0a21.35,21.35,0,0,1,11.23-12,21.82,21.82,0,0,1,5.48-1.57,4.56,4.56,0,0,0,.13.53l18.47,40.68A16.29,16.29,0,0,1,267.44,229.79ZM143.57,104.08c-4.7.43-10.15,3-15.41,5.47-2,1-3.92,1.8-5.67,2.52a4.35,4.35,0,0,0-.25-1.36c-.14-.35-.3-.65-.45-1,15.74-10.21,16-26.44,13.63-34.07a4.24,4.24,0,0,0-5.82-2.6c-10.35,4.77-16.79,11.13-19.14,18.88a22.62,22.62,0,0,0-.78,3.79,25.07,25.07,0,0,0-8.8-3.22,4.23,4.23,0,0,0-1,8.4c.4.06,9.92,1.46,14.51,12.95.09.21.23.38.34.58l-2.58.59c-9,2.06-19.22,4.39-23.52,10-8.49,11-9.74,20.18-4.79,35.21,5.66,17.19,25.62,33,42.72,33.8l.52,0c4.83,0,8.41-3.23,11.31-5.84,1.86-1.68,3.62-3.26,5.31-3.82s4.11-.46,6.56-.33c4.13.22,9.24.5,13.05-3.26,11.78-11.69,17.3-35.06,12-51C169.45,111.84,158.16,102.74,143.57,104.08Zm-25-9.79c1.26-4.07,4.43-7.69,9.44-10.83.05,5-1.48,12.53-9.66,18.38A14.49,14.49,0,0,1,118.59,94.29Zm38.75,80.45c-1.07,1-3.22,1-6.63.82-3-.16-6.35-.34-9.66.75s-6,3.48-8.33,5.57c-2.13,1.92-4.09,3.71-5.77,3.65-13.51-.64-30.56-14.25-35.09-28-4.06-12.32-3.25-18.72,3.45-27.38,2.45-3.17,12.23-5.4,18.71-6.88,3.28-.75,6.39-1.46,8.82-2.26a84.48,84.48,0,0,0,8.92-3.8c4.39-2.07,9.37-4.41,12.59-4.71q1-.09,1.92-.09c11.89,0,18,10.71,21,20h0C171.6,145.41,167,165.21,157.34,174.74Z"/></g></g></svg>