<svg xmlns="http://www.w3.org/2000/svg" viewBox="0 0 45.83 45.83"><defs><style>.cls-1{fill:#ff9045;}.cls-2{fill:#fff;}</style></defs><g id="Capa_2" data-name="Capa 2"><g id="NadaHero_Imagen" data-name="NadaHero Imagen"><circle class="cls-1" cx="22.91" cy="22.91" r="22.91"/><path class="cls-2" d="M16,33.9a.53.53,0,0,1-.32-.12l-2.29-2a.49.49,0,0,1-.07-.67L29.56,10.6a.48.48,0,0,1,.33-.18.52.52,0,0,1,.36.11,5,5,0,0,1,.68,6.81L25,24.87a.45.45,0,0,1-.33.19l-1.54.14-6.72,8.51a.48.48,0,0,1-.33.18Zm-1.63-2.51L16,32.72l6.54-8.29a.52.52,0,0,1,.34-.18l1.53-.14,5.79-7.37A4,4,0,0,0,30,11.62Z"/><path class="cls-2" d="M21.39,20.11a.51.51,0,0,1-.37-.17l-.71-.85a.51.51,0,0,1-.1-.43l.49-2-4.9-5.43a.49.49,0,0,1,0-.69.48.48,0,0,1,.68,0l5.07,5.63a.46.46,0,0,1,.11.44l-.49,2,.56.66a.5.5,0,0,1-.06.69A.54.54,0,0,1,21.39,20.11Z"/><path class="cls-2" d="M31.35,33.08a.47.47,0,0,1-.35-.15.48.48,0,0,1,0-.68l.46-.45L26.1,25.91a.49.49,0,1,1,.72-.65l5.69,6.24a.49.49,0,0,1,0,.68l-.81.77A.46.46,0,0,1,31.35,33.08Z"/><path class="cls-2" d="M19.56,21.78a.49.49,0,0,1-.37-.16L18.68,21l-1.93.33a.5.5,0,0,1-.45-.15l-5.07-5.63a.49.49,0,0,1,.72-.65l4.89,5.43L18.78,20a.5.5,0,0,1,.45.15l.69.79a.48.48,0,0,1,0,.68A.49.49,0,0,1,19.56,21.78Z"/><path class="cls-2" d="M30.34,34.05h0a.51.51,0,0,1-.34-.17L23.9,26.94a.48.48,0,0,1,.72-.64l5.75,6.56.44-.42a.49.49,0,0,1,.68,0,.47.47,0,0,1,0,.68l-.8.77A.47.47,0,0,1,30.34,34.05Z"/><path class="cls-2" d="M17.87,19.52a.5.5,0,0,1-.37-.17L13,14.26a.48.48,0,0,1,0-.68.49.49,0,0,1,.69,0l4.5,5.09a.48.48,0,0,1-.36.81Z"/><path class="cls-2" d="M19.29,18.16a.48.48,0,0,1-.36-.17L14.42,12.9a.49.49,0,0,1,.73-.64l4.5,5.09a.48.48,0,0,1-.36.81Z"/></g></g></svg>