<svg xmlns="http://www.w3.org/2000/svg" viewBox="0 0 45.83 45.83"><defs><style>.cls-1{fill:#57b51a;}.cls-2{fill:#fff;}</style></defs><g id="Capa_2" data-name="Capa 2"><g id="NadaHero_Imagen" data-name="NadaHero Imagen"><circle class="cls-1" cx="22.91" cy="22.91" r="22.91"/><path class="cls-2" d="M16,34.22a.47.47,0,0,1-.32-.12l-2.29-2a.49.49,0,0,1-.07-.67l16.2-20.56a.48.48,0,0,1,.33-.18.52.52,0,0,1,.36.11,5,5,0,0,1,.68,6.81L25,25.2a.48.48,0,0,1-.33.18l-1.53.14L16.37,34a.49.49,0,0,1-.33.19Zm-1.63-2.51L15.92,33l6.54-8.29a.52.52,0,0,1,.34-.18l1.53-.14,5.79-7.37a4,4,0,0,0-.18-5.12Z"/><path class="cls-2" d="M21.35,20.43a.52.52,0,0,1-.38-.17l-.71-.85a.51.51,0,0,1-.1-.43l.49-2-4.9-5.44a.49.49,0,0,1,.72-.65l5.07,5.63a.47.47,0,0,1,.11.44l-.49,2,.56.66a.49.49,0,0,1-.06.68A.45.45,0,0,1,21.35,20.43Z"/><path class="cls-2" d="M31.3,33.4a.47.47,0,0,1-.35-.15.48.48,0,0,1,0-.68l.47-.44-5.38-5.9a.49.49,0,0,1,.72-.65l5.69,6.24a.49.49,0,0,1,0,.68l-.81.77A.46.46,0,0,1,31.3,33.4Z"/><path class="cls-2" d="M19.51,22.11a.46.46,0,0,1-.36-.17l-.52-.58-1.93.34a.51.51,0,0,1-.45-.16l-5.07-5.62a.49.49,0,0,1,0-.69.48.48,0,0,1,.68,0l4.9,5.42,1.93-.33a.48.48,0,0,1,.45.16l.69.78a.48.48,0,0,1-.36.81Z"/><path class="cls-2" d="M30.29,34.37h0a.51.51,0,0,1-.35-.17l-6.07-6.94a.48.48,0,0,1,0-.68.49.49,0,0,1,.69,0l5.74,6.56.44-.41a.48.48,0,0,1,.68,0,.49.49,0,0,1,0,.69l-.81.77A.51.51,0,0,1,30.29,34.37Z"/><path class="cls-2" d="M17.82,19.84a.48.48,0,0,1-.36-.16L13,14.58a.48.48,0,0,1,0-.68.49.49,0,0,1,.69,0L18.18,19a.48.48,0,0,1-.36.81Z"/><path class="cls-2" d="M19.24,18.48a.5.5,0,0,1-.36-.16l-4.51-5.1a.49.49,0,0,1,.05-.68.48.48,0,0,1,.68,0l4.5,5.09a.49.49,0,0,1,0,.69A.47.47,0,0,1,19.24,18.48Z"/></g></g></svg>