<svg xmlns="http://www.w3.org/2000/svg" viewBox="0 0 45.83 45.83"><defs><style>.cls-1{fill:#ff9045;}.cls-2{fill:#fff;}</style></defs><g id="Capa_2" data-name="Capa 2"><g id="NadaHero_Imagen" data-name="NadaHero Imagen"><circle class="cls-1" cx="22.91" cy="22.91" r="22.91"/><path class="cls-2" d="M24.92,16.87a6.35,6.35,0,0,0,2.87-1.68A7.24,7.24,0,0,0,29.6,10V10a.39.39,0,0,0-.44-.34.39.39,0,0,0-.35.41c0,.07-.25.91-3.35,1.82a5.64,5.64,0,0,0-4.16,4.73l-.22.05a3.62,3.62,0,0,0-2.67-3c-1.65-.48-1.9-.92-1.93-1a.41.41,0,0,0-.36-.38.4.4,0,0,0-.43.34s0,0,0,.07a4.63,4.63,0,0,0,1.16,3.25,4.35,4.35,0,0,0,2.79,1.26,6.49,6.49,0,0,0-3.47,5.73,19.35,19.35,0,0,0,2.3,7.27c.73,1.44,2.59,4.79,4.18,4.79,2.51,0,6.48-8.65,6.48-12.06A6.47,6.47,0,0,0,24.92,16.87Zm.77-4.25a9.9,9.9,0,0,0,3-1.33,6.05,6.05,0,0,1-1.53,3.35,6.74,6.74,0,0,1-5.09,1.8h0A4.82,4.82,0,0,1,25.69,12.62Zm-8.28,2.77a3.39,3.39,0,0,1-.83-1.63,7.61,7.61,0,0,0,1.61.64,2.83,2.83,0,0,1,2,2A3.87,3.87,0,0,1,17.41,15.39Zm5.23,18.8c-1.7,0-5.68-7.9-5.68-11.27a5.69,5.69,0,0,1,11.37,0C28.33,26.29,24.34,34.19,22.64,34.19Zm0-14.47a2.68,2.68,0,1,0,2.68,2.68A2.68,2.68,0,0,0,22.64,19.72Zm0,4.57a1.89,1.89,0,1,1,1.89-1.89A1.89,1.89,0,0,1,22.64,24.29Z"/></g></g></svg>