<svg xmlns="http://www.w3.org/2000/svg" viewBox="0 0 45.83 45.83"><defs><style>.cls-1{fill:#ff9045;}.cls-2{fill:#fff;}</style></defs><g id="Capa_2" data-name="Capa 2"><g id="NadaHero_Imagen" data-name="NadaHero Imagen"><circle class="cls-1" cx="22.91" cy="22.91" r="22.91"/><path class="cls-2" d="M27.48,24.09H16.62a4.53,4.53,0,0,0-4.52,4.53v1.05a.43.43,0,0,0,.14.32,15,15,0,0,0,19.61,0,.41.41,0,0,0,.15-.32V28.62A4.53,4.53,0,0,0,27.48,24.09Zm3.68,5.38a14,14,0,0,1-3.43,2.12V28.13a.42.42,0,0,0-.84,0v3.81a14,14,0,0,1-9.62,0V28.13a.41.41,0,0,0-.42-.42.42.42,0,0,0-.42.42v3.49a14.16,14.16,0,0,1-3.49-2.15v-.85a3.69,3.69,0,0,1,3.68-3.69H27.48a3.69,3.69,0,0,1,3.68,3.69ZM22.05,22.2a5.62,5.62,0,1,0-5.62-5.62A5.62,5.62,0,0,0,22.05,22.2Zm0-10.39a4.78,4.78,0,1,1-4.78,4.77A4.78,4.78,0,0,1,22.05,11.81Z"/></g></g></svg>