<svg xmlns="http://www.w3.org/2000/svg" viewBox="0 0 45.83 45.83"><defs><style>.cls-1{fill:#ff9045;}.cls-2{fill:#fff;}</style></defs><g id="Capa_2" data-name="Capa 2"><g id="NadaHero_Imagen" data-name="NadaHero Imagen"><circle class="cls-1" cx="22.91" cy="22.91" r="22.91"/><path class="cls-2" d="M33.45,19.53H28.22l5-5A2.08,2.08,0,0,0,33.84,13a2.09,2.09,0,0,0-3.57-1.48l-8,8h-11a2.09,2.09,0,1,0,0,4.17h.34l2.43,9.62a.39.39,0,0,0,.38.3h15.9a.39.39,0,0,0,.38-.3l2.44-9.62h.3a2.09,2.09,0,1,0,0-4.17Zm-2.62-7.41a1.3,1.3,0,0,1,2.22.92,1.3,1.3,0,0,1-.38.91h0l-8.94,8.94H20.07ZM10,21.61a1.29,1.29,0,0,1,1.29-1.29H21.52l-2.59,2.59H11.28A1.3,1.3,0,0,1,10,21.61ZM30,32.83H14.74L12.43,23.7h19.9Zm3.43-9.92H24.83l2.61-2.61.06,0h6a1.3,1.3,0,0,1,0,2.59Z"/><path class="cls-2" d="M15.36,27H18a.4.4,0,0,0,.39-.4.39.39,0,0,0-.39-.39h-2.6a.38.38,0,0,0-.39.39A.39.39,0,0,0,15.36,27Z"/><path class="cls-2" d="M21.42,27H24a.4.4,0,0,0,.4-.4.39.39,0,0,0-.4-.39H21.42a.39.39,0,0,0-.4.39A.4.4,0,0,0,21.42,27Z"/><path class="cls-2" d="M18,29.85a.4.4,0,0,0,.4.4H21a.39.39,0,0,0,.39-.4.38.38,0,0,0-.39-.39H18.38A.39.39,0,0,0,18,29.85Z"/><path class="cls-2" d="M24,29.85a.39.39,0,0,0,.39.4H27a.4.4,0,0,0,.4-.4.39.39,0,0,0-.4-.39H24.43A.38.38,0,0,0,24,29.85Z"/><path class="cls-2" d="M27,27h2.59a.39.39,0,0,0,.39-.4.38.38,0,0,0-.39-.39H27a.39.39,0,0,0-.4.39A.4.4,0,0,0,27,27Z"/></g></g></svg>