<svg xmlns="http://www.w3.org/2000/svg" viewBox="0 0 16.14 21.69"><defs><style>.cls-1{fill:#fff;}</style></defs><g id="Capa_2" data-name="Capa 2"><g id="NadaHero_Imagen" data-name="NadaHero Imagen"><path class="cls-1" d="M11.47,12.84a.48.48,0,0,0-.48.48V18H7.64V3.24a.49.49,0,0,0-.3-.44L2.88,1H11V5.77a.48.48,0,0,0,.48.47A.47.47,0,0,0,12,5.77V.48A.47.47,0,0,0,11.47,0H.38A.29.29,0,0,0,.25.07h0l0,0a.35.35,0,0,0-.1.11l0,.05A.46.46,0,0,0,0,.48v18a.47.47,0,0,0,0,.17l0,.05s0,.06.06.1l0,0a.34.34,0,0,0,.12.09h0L7,21.65a.39.39,0,0,0,.18,0,.53.53,0,0,0,.27-.08.49.49,0,0,0,.21-.4V18.92h3.83a.47.47,0,0,0,.48-.48V13.32A.47.47,0,0,0,11.47,12.84ZM6.68,20.49,1,18.12V1.19L6.68,3.56ZM16,9,13.26,6.75a.48.48,0,0,0-.61.73l1.69,1.39H9a.48.48,0,0,0-.48.48A.47.47,0,0,0,9,9.83h5.34l-1.73,1.48a.47.47,0,0,0-.05.67.49.49,0,0,0,.36.17.45.45,0,0,0,.31-.12L16,9.71A.49.49,0,0,0,16,9Z"/></g></g></svg>