<svg xmlns="http://www.w3.org/2000/svg" viewBox="0 0 21.44 22.97"><defs><style>.cls-1{fill:#57b51a;}</style></defs><g id="Capa_2" data-name="Capa 2"><g id="NadaHero_Imagen" data-name="NadaHero Imagen"><path class="cls-1" d="M20.8,18.65,16,13.18a8.71,8.71,0,1,0-3.94,3.41l4.77,5.48a2.6,2.6,0,1,0,3.93-3.42ZM2.74,13.8a7.83,7.83,0,0,1,5.9-13,5.24,5.24,0,0,1,.56,0A7.82,7.82,0,0,1,16.47,9.2a7.75,7.75,0,0,1-2.67,5.37A7.85,7.85,0,0,1,2.74,13.8ZM20,21.71a1.8,1.8,0,0,1-2.53-.17l-4.62-5.32a9.14,9.14,0,0,0,1.48-1,8.45,8.45,0,0,0,1.22-1.32l4.62,5.32A1.78,1.78,0,0,1,20,21.71ZM12.76,5.08a5.45,5.45,0,0,0-8.22,7.15,5.41,5.41,0,0,0,3.74,1.86l.38,0a5.45,5.45,0,0,0,4.1-9Zm-1.07,7.07A4.62,4.62,0,0,1,4,8.34,4.57,4.57,0,0,1,5.62,5.16,4.62,4.62,0,0,1,8.65,4H9a4.59,4.59,0,0,1,3.18,1.58h0A4.63,4.63,0,0,1,11.69,12.15Z"/></g></g></svg>