<svg xmlns="http://www.w3.org/2000/svg" viewBox="0 0 36.18 33.62"><defs><style>.cls-1{fill:#ffe6e6;}</style></defs><g id="Capa_2" data-name="Capa 2"><g id="NadaHero_Imagen" data-name="NadaHero Imagen"><g id="WTTQtn.tif"><path class="cls-1" d="M18,33.62h0a3.76,3.76,0,0,1-2.67-1.28c-1.62-1.64-3.25-3.27-4.87-4.9Q6.81,23.81,3.2,20.13A10.88,10.88,0,0,1,0,12.53,12.46,12.46,0,0,1,5.67,1.86a11.62,11.62,0,0,1,11.27-.61,2,2,0,0,0,2.12,0A11.84,11.84,0,0,1,33.65,4.61a11.64,11.64,0,0,1-.56,15.15c-2.82,3-5.8,6-8.68,8.82l-3.87,3.85A3.58,3.58,0,0,1,18,33.62ZM11.81,3.07A8.44,8.44,0,0,0,7.27,4.4,9.45,9.45,0,0,0,3,12.54v0A7.9,7.9,0,0,0,5.35,18c2.39,2.44,4.81,4.86,7.22,7.29q2.44,2.45,4.88,4.9a1.29,1.29,0,0,0,.54.39,1.07,1.07,0,0,0,.43-.31l3.88-3.87c2.86-2.83,5.82-5.76,8.6-8.73a8.64,8.64,0,0,0,.37-11.26A8.71,8.71,0,0,0,20.4,3.9,4.86,4.86,0,0,1,15.64,4,8.76,8.76,0,0,0,11.81,3.07Z"/></g></g></g></svg>