<svg xmlns="http://www.w3.org/2000/svg" viewBox="0 0 36.18 33.62"><defs><style>.cls-1{fill:red;}</style></defs><g id="Capa_2" data-name="Capa 2"><g id="NadaHero_Imagen" data-name="NadaHero Imagen"><g id="WTTQtn.tif"><path class="cls-1" d="M18,33.62h0a3.76,3.76,0,0,1-2.67-1.28l-4.86-4.89C8,25,5.6,22.59,3.2,20.13A10.87,10.87,0,0,1,0,12.54,12.46,12.46,0,0,1,5.67,1.86a11.62,11.62,0,0,1,11.27-.61,2,2,0,0,0,2.12,0A11.84,11.84,0,0,1,33.65,4.61a11.64,11.64,0,0,1-.56,15.15c-2.82,3-5.8,6-8.67,8.81q-2,1.92-3.88,3.86A3.58,3.58,0,0,1,18,33.62Z"/></g></g></g></svg>