<svg xmlns="http://www.w3.org/2000/svg" viewBox="0 0 86.71 139.32"><defs><style>.cls-1{fill:#85bf6c;}.cls-2{fill:#e42522;}.cls-3{fill:#f3981a;}</style></defs><g id="Capa_2" data-name="Capa 2"><g id="NadaHero_Imagen" data-name="NadaHero Imagen"><path class="cls-1" d="M40.08,26.57a12.46,12.46,0,0,0-9.33-11c-9-2.65-8.66-5.29-8.66-5.29S20.75,27.22,40.08,26.57Z"/><path class="cls-1" d="M28.21,75.55l.11,0A20,20,0,0,1,43.1,41.8,20.17,20.17,0,0,1,62.8,57.46q5.11-3.33,10-6.94c.44-.33,8.45-6,8.89-6.34,4.13-2.78,7.06-5.69,3.33-3.84-1.52.76-12.64,6.11-13,5.59A34.68,34.68,0,0,0,8.43,64.82a82,82,0,0,0,2.44,17C16,80.18,21.93,78.12,28.21,75.55Z"/><path class="cls-2" d="M13.2,90.76c.77,2.68,1.63,5.42,2.55,8.15a311,311,0,0,0,55.2-3c4.1-12.26,6.75-24.15,6.75-31.12a34.09,34.09,0,0,0-1.55-10.2c-4.11,3.07-8.38,6-12.77,8.77l-.17.1A20.22,20.22,0,0,1,33.08,79.25l-3,1.25c-5.48,2.24-10.52,4-15,5.49C14.1,86.32,1,90.73,0,91,5.73,91.29,12.83,89.47,13.2,90.76Z"/><path class="cls-3" d="M45.25,129.08c-1,.65,9.68-6.53,15.83-9.28a165.83,165.83,0,0,0,7.76-17.88c-5.29,1.14-35.13,3.66-51.17,2.43,1.09,2.94,2.25,5.83,3.47,8.63,7.27.14,18.56-.39,18.56-.39a165.37,165.37,0,0,1-14.58,8.69c5.54,10.49,11.85,18,17.94,18,4.09,0,8.53-4.16,12.84-10.6C50.35,128.84,45.25,129.08,45.25,129.08Z"/><path class="cls-1" d="M43.88,26.56S44.35,13,59.11,8.65,73.25,0,73.25,0,75.44,27.63,43.88,26.56Z"/></g></g></svg>