<svg xmlns="http://www.w3.org/2000/svg" xmlns:xlink="http://www.w3.org/1999/xlink" viewBox="0 0 164.58 53.83"><defs><style>.cls-1{fill:none;}.cls-2{fill:#999;}.cls-3{clip-path:url(#clip-path);}.cls-4{fill:url(#linear-gradient);}.cls-5{fill:url(#linear-gradient-2);}.cls-6{fill:url(#linear-gradient-3);}.cls-7{fill:url(#linear-gradient-4);}.cls-8{fill:#f9f9f9;}.cls-9{fill:#fbfbfb;}</style><clipPath id="clip-path"><path class="cls-1" d="M35.67,23.56l-7.43-4.29S14.73,11.46,13.93,11s-1.59-.18-1.59.77V45.46c0,.72.57,1,1.26.63l14.64-8.46,7.43-4.28,7.13-4.12c.84-.48.76-1.15.05-1.53S35.67,23.56,35.67,23.56Z"/></clipPath><linearGradient id="linear-gradient" x1="21.54" y1="10.22" x2="21.54" y2="46.68" gradientUnits="userSpaceOnUse"><stop offset="0" stop-color="#316199"/><stop offset="0.28" stop-color="#4d839d"/><stop offset="0.76" stop-color="#7abaa3"/><stop offset="1" stop-color="#8bd0a5"/></linearGradient><linearGradient id="linear-gradient-2" x1="12.34" y1="19.27" x2="35.67" y2="19.27" gradientUnits="userSpaceOnUse"><stop offset="0" stop-color="#5dbc91"/><stop offset="1" stop-color="#daef7e"/></linearGradient><linearGradient id="linear-gradient-3" x1="24" y1="28.45" x2="24" y2="46.81" gradientUnits="userSpaceOnUse"><stop offset="0" stop-color="#f91b1c"/><stop offset="0.36" stop-color="#c71e49"/><stop offset="0.79" stop-color="#90227a"/><stop offset="1" stop-color="#7a238d"/></linearGradient><linearGradient id="linear-gradient-4" x1="37.44" y1="23.56" x2="37.44" y2="33.35" gradientUnits="userSpaceOnUse"><stop offset="0" stop-color="#fa6c61"/><stop offset="0.11" stop-color="#fb775f"/><stop offset="0.71" stop-color="#fdae58"/><stop offset="1" stop-color="#fec455"/></linearGradient></defs><g id="Capa_2" data-name="Capa 2"><g id="NadaHero_Imagen" data-name="NadaHero Imagen"><path class="cls-2" d="M7.28,0h150a7.28,7.28,0,0,1,7.28,7.28V46.56a7.28,7.28,0,0,1-7.28,7.28H7.27A7.27,7.27,0,0,1,0,46.56V7.28A7.28,7.28,0,0,1,7.28,0Z"/><g id="PLAY"><g class="cls-3"><polygon class="cls-4" points="12.34 10.22 12.34 28.45 12.34 46.68 30.73 28.45 12.34 10.22"/><polygon class="cls-5" points="35.67 23.55 28.25 19.27 12.34 10.09 12.34 10.22 30.73 28.45 35.67 23.55"/><polygon class="cls-6" points="12.34 46.68 12.34 46.81 28.25 37.63 35.66 33.35 30.73 28.45 12.34 46.68"/><polygon class="cls-7" points="35.67 23.55 30.73 28.45 35.66 33.35 44.15 28.45 35.67 23.55"/></g></g><path class="cls-8" d="M128.08,35.58a4.66,4.66,0,0,1-1.89-.38A3.64,3.64,0,0,1,124.75,34h-.11a15.82,15.82,0,0,1,.11,1.76v4.36h-1.6V24.78h1.3l.23,1.45h.07A3.7,3.7,0,0,1,126.2,25a4.3,4.3,0,0,1,1.88-.39A3.93,3.93,0,0,1,131.34,26a6.37,6.37,0,0,1,1.14,4,6.33,6.33,0,0,1-1.16,4.06A3.92,3.92,0,0,1,128.08,35.58ZM127.85,26a2.84,2.84,0,0,0-2.35.9,4.65,4.65,0,0,0-.75,2.87v.35a5.28,5.28,0,0,0,.75,3.2,2.84,2.84,0,0,0,2.39,1A2.49,2.49,0,0,0,130,33.12a5.26,5.26,0,0,0,.78-3.07,5.08,5.08,0,0,0-.78-3A2.58,2.58,0,0,0,127.85,26Z"/><path class="cls-8" d="M136.2,35.38h-1.6V20.33h1.6Z"/><path class="cls-8" d="M145.43,35.38l-.32-1.5H145a4.4,4.4,0,0,1-1.59,1.34,4.7,4.7,0,0,1-2,.36,3.58,3.58,0,0,1-2.48-.81,3,3,0,0,1-.89-2.32q0-3.21,5.14-3.36l1.8-.06v-.66a2.66,2.66,0,0,0-.54-1.84,2.2,2.2,0,0,0-1.72-.6,6.93,6.93,0,0,0-3,.82l-.49-1.23a7.08,7.08,0,0,1,1.72-.67,7.44,7.44,0,0,1,1.87-.24,4.05,4.05,0,0,1,2.81.84,3.51,3.51,0,0,1,.91,2.7v7.23Zm-3.62-1.13a3.25,3.25,0,0,0,2.35-.82,3,3,0,0,0,.86-2.3v-1l-1.61.07a5.77,5.77,0,0,0-2.76.59,1.79,1.79,0,0,0-.85,1.64,1.67,1.67,0,0,0,.53,1.33A2.2,2.2,0,0,0,141.81,34.25Z"/><path class="cls-8" d="M147.55,24.78h1.73l2.32,6a23.88,23.88,0,0,1,1,3h.07c.09-.33.26-.89.53-1.69s1.14-3.25,2.63-7.35h1.72l-4.56,12.07a6.11,6.11,0,0,1-1.58,2.55,3.4,3.4,0,0,1-2.22.74,6.44,6.44,0,0,1-1.45-.16V38.69a5.38,5.38,0,0,0,1.19.12A2.45,2.45,0,0,0,151.24,37l.59-1.51Z"/><path class="cls-8" d="M98.33,25.77a3.61,3.61,0,0,1-.28,6.14A1.57,1.57,0,0,0,97.42,33,1.24,1.24,0,0,0,98,34l.8.62c1,.82,1.86,1.58,1.86,3.11,0,2.08-2,4.19-5.83,4.19-3.22,0-4.77-1.53-4.77-3.17A3.2,3.2,0,0,1,91.77,36,9.62,9.62,0,0,1,96,35a2.29,2.29,0,0,1-.67-1.51,2,2,0,0,1,.22-.86c-.24,0-.49,0-.71,0a3.5,3.5,0,0,1-3.68-3.48,4,4,0,0,1,1.42-3,6,6,0,0,1,4-1.22h4.57l-1.42.8Zm-1.57,9.84a4,4,0,0,0-.51,0,9,9,0,0,0-2.33.36A2.48,2.48,0,0,0,92,38.23c0,1.57,1.53,2.71,3.91,2.71,2.13,0,3.26-1,3.26-2.4C99.18,37.41,98.45,36.81,96.76,35.61Zm.64-4.21A2.25,2.25,0,0,0,98,29.78c0-1.6-1-4.08-2.8-4.08a2.1,2.1,0,0,0-1.55.73,2.56,2.56,0,0,0-.49,1.64c0,1.49.87,4,2.77,4A2.23,2.23,0,0,0,97.4,31.4Z"/><path class="cls-8" d="M84.37,35.26A5.23,5.23,0,0,1,79,30a5.49,5.49,0,0,1,5.74-5.38A5.18,5.18,0,0,1,90,29.88,5.42,5.42,0,0,1,84.37,35.26Zm2.77-1.79A4,4,0,0,0,87.81,31c0-2-.93-5.67-3.68-5.67a3.1,3.1,0,0,0-2,.75,3.35,3.35,0,0,0-1,2.71c0,2.19,1.08,5.79,3.76,5.79A2.84,2.84,0,0,0,87.14,33.47Z"/><path class="cls-8" d="M72.37,35.26A5.23,5.23,0,0,1,67,30a5.49,5.49,0,0,1,5.74-5.38A5.18,5.18,0,0,1,78,29.88,5.42,5.42,0,0,1,72.37,35.26Zm2.77-1.79A4,4,0,0,0,75.81,31c0-2-.94-5.67-3.68-5.67a3.1,3.1,0,0,0-2,.75,3.35,3.35,0,0,0-1,2.71c0,2.19,1.08,5.79,3.76,5.79A2.84,2.84,0,0,0,75.14,33.47Z"/><path class="cls-8" d="M65.28,34.91l-3.18.74a23.78,23.78,0,0,1-3.68.37c-6.14,0-8.48-4.51-8.48-8.05,0-4.32,3.32-8.33,9-8.33a12.81,12.81,0,0,1,3.4.47,8.83,8.83,0,0,1,2.94,1.38l-1.85,1.76-.78.18.56-.9a6.39,6.39,0,0,0-4.76-2.09c-3.52,0-6.17,2.68-6.17,6.57a7.87,7.87,0,0,0,7.88,8.12A6.65,6.65,0,0,0,63,34.58V31l-3.36.18,1.78-1h4.71l-.57.56a.53.53,0,0,0-.23.36c0,.2,0,.84,0,1.07Z"/><path class="cls-8" d="M105.37,34.27c-.74-.07-.89-.2-.89-1.07V20.6a.61.61,0,0,0,0-.14c.09-.78.31-.91,1-1.31h-3.19l-1.67.8h1.7V33.69c0,.45-.09.51-.6,1.18h3.94l.83-.49C106.13,34.34,105.75,34.32,105.37,34.27Z"/><path class="cls-8" d="M114.43,34.48c-.25.13-.49.28-.73.39a5,5,0,0,1-2.15.42,4.71,4.71,0,0,1-2.94-.86,5.71,5.71,0,0,1-2.25-4.66,5,5,0,0,1,5.06-5.11,4.29,4.29,0,0,1,2.28.62,3.65,3.65,0,0,1,1.54,2.19l-5.19,2.1-1.7.13c.55,2.81,2.45,4.44,4.55,4.44a5.66,5.66,0,0,0,2.7-.77Zm-2.08-6.59c.42-.16.64-.29.64-.6a2.19,2.19,0,0,0-2.19-1.9c-.88,0-2.54.69-2.54,3.07,0,.38,0,.78.07,1.17Z"/><path class="cls-8" d="M116.56,24.81v1.46h-.18V24.81h-.48v-.15H117v.15Z"/><path class="cls-8" d="M118.55,26.27V24.8h0l-.45,1.47H118l-.45-1.47h0v1.47h-.16V24.66h.28L118,26h0l.4-1.3h.28v1.61Z"/><path class="cls-9" d="M54.36,15.31h-1.1A7.59,7.59,0,0,0,52.94,14H51.35A6.34,6.34,0,0,0,51,15.31H50a23.49,23.49,0,0,1,.81-2.21,16.59,16.59,0,0,0,.8-2.29H52.9a20.79,20.79,0,0,0,.73,2.25A19,19,0,0,1,54.36,15.31Zm-1.59-2a18.09,18.09,0,0,1-.59-1.93h-.06a19.58,19.58,0,0,1-.61,1.93Z"/><path class="cls-9" d="M58.82,15.31H58a8.27,8.27,0,0,0-.95-1.5,8,8,0,0,1-1.14-2h-.05c.05.5.08,1,.08,1.37,0,.57,0,1.26.05,2.08h-.85c0-.72,0-1.5,0-2.36s0-1.55,0-2.14h1A6.36,6.36,0,0,0,57,12.27a8.73,8.73,0,0,1,1,1.84h.05A11.92,11.92,0,0,1,58,12.73c0-.62,0-1.27,0-1.92h.86c0,.57,0,1.28,0,2.14S58.79,14.61,58.82,15.31Z"/><path class="cls-9" d="M63.83,12.9a2.55,2.55,0,0,1-.63,1.72,2.19,2.19,0,0,1-1.76.73c-.34,0-.81,0-1.41,0,0-.7,0-1.48,0-2.36s0-1.55,0-2.14h1.43a2.32,2.32,0,0,1,1.81.62A2.16,2.16,0,0,1,63.83,12.9Zm-.94.15a1.68,1.68,0,0,0-.39-1.12,1.47,1.47,0,0,0-1.18-.45l-.41,0q0,.69,0,1.44c0,.56,0,1.1,0,1.64a2.3,2.3,0,0,0,.45.05,1.33,1.33,0,0,0,1.1-.46A1.8,1.8,0,0,0,62.89,13.05Z"/><path class="cls-9" d="M68.45,15.31h-1a6.86,6.86,0,0,0-.62-1.51.8.8,0,0,0-.69-.29h-.38c0,.6,0,1.19,0,1.8h-1c0-.7,0-1.48,0-2.36s0-1.55,0-2.14h1.64c1.06,0,1.58.36,1.58,1.08a1.21,1.21,0,0,1-.9,1.2v0a1.1,1.1,0,0,1,.61.55A11.5,11.5,0,0,1,68.45,15.31Zm-1.3-3.18c0-.46-.29-.69-.88-.69a3.3,3.3,0,0,0-.58.05c0,.36,0,.82,0,1.4h.32C66.79,12.89,67.15,12.64,67.15,12.13Z"/><path class="cls-9" d="M73.4,13a2.44,2.44,0,0,1-.65,1.76,2.07,2.07,0,0,1-1.6.7,2,2,0,0,1-1.53-.64A2.27,2.27,0,0,1,69,13.16a2.5,2.5,0,0,1,.65-1.76,2.14,2.14,0,0,1,1.61-.7,2.06,2.06,0,0,1,1.53.64A2.26,2.26,0,0,1,73.4,13Zm-1,.11a1.77,1.77,0,0,0-.37-1.18,1.14,1.14,0,0,0-.91-.45,1.07,1.07,0,0,0-.86.46A1.82,1.82,0,0,0,70,13.05a1.76,1.76,0,0,0,.37,1.17,1.14,1.14,0,0,0,.91.45,1.06,1.06,0,0,0,.86-.45A1.86,1.86,0,0,0,72.45,13.08Z"/><path class="cls-9" d="M75.36,15.31h-1c0-.72.05-1.5.05-2.36s0-1.55-.05-2.14h1c0,.58,0,1.29,0,2.14S75.33,14.61,75.36,15.31Z"/><path class="cls-9" d="M80.37,12.9a2.55,2.55,0,0,1-.63,1.72,2.19,2.19,0,0,1-1.76.73c-.34,0-.81,0-1.41,0,0-.7,0-1.48,0-2.36s0-1.55,0-2.14H78a2.32,2.32,0,0,1,1.81.62A2.16,2.16,0,0,1,80.37,12.9Zm-1,.15A1.67,1.67,0,0,0,79,11.93a1.47,1.47,0,0,0-1.18-.45l-.41,0q0,.69,0,1.44c0,.56,0,1.1,0,1.64a2.3,2.3,0,0,0,.45.05,1.33,1.33,0,0,0,1.1-.46A1.79,1.79,0,0,0,79.42,13.05Z"/><path class="cls-9" d="M87,15.31h-1.1A7.59,7.59,0,0,0,85.59,14H84a6.34,6.34,0,0,0-.33,1.29h-1a23.49,23.49,0,0,1,.81-2.21,17.59,17.59,0,0,0,.81-2.29h1.3a20.79,20.79,0,0,0,.73,2.25A19,19,0,0,1,87,15.31Zm-1.59-2a18.09,18.09,0,0,1-.59-1.93h-.06a19.58,19.58,0,0,1-.61,1.93Z"/><path class="cls-9" d="M91.05,12a1.36,1.36,0,0,1-.62,1.22,2.75,2.75,0,0,1-1.5.39H88.7c0,.44,0,1,0,1.72h-1c0-.67,0-1.45,0-2.36s0-1.54,0-2.14h1.72a2,2,0,0,1,1.11.29A1,1,0,0,1,91.05,12Zm-.9.19c0-.5-.32-.74-1-.74a2.46,2.46,0,0,0-.52.05c0,.43,0,.93,0,1.48h.2C89.73,13,90.15,12.71,90.15,12.18Z"/><path class="cls-9" d="M95.19,12a1.35,1.35,0,0,1-.61,1.22,2.76,2.76,0,0,1-1.51.39h-.23c0,.44,0,1,0,1.72h-1c0-.67,0-1.45,0-2.36s0-1.54,0-2.14h1.72a2,2,0,0,1,1.11.29A1,1,0,0,1,95.19,12Zm-.89.19c0-.5-.33-.74-1-.74a2.4,2.4,0,0,0-.52.05c0,.43,0,.93,0,1.48H93C93.88,13,94.3,12.71,94.3,12.18Z"/><path class="cls-9" d="M102,13a2.48,2.48,0,0,1-.65,1.76,2.09,2.09,0,0,1-1.61.7,2,2,0,0,1-1.52-.64,2.27,2.27,0,0,1-.62-1.63,2.5,2.5,0,0,1,.65-1.76,2.13,2.13,0,0,1,1.61-.7,2,2,0,0,1,1.52.64A2.27,2.27,0,0,1,102,13Zm-1,.11a1.83,1.83,0,0,0-.37-1.18,1.15,1.15,0,0,0-.92-.45,1.06,1.06,0,0,0-.85.46,1.77,1.77,0,0,0-.36,1.14,1.77,1.77,0,0,0,.38,1.17,1.13,1.13,0,0,0,.91.45,1,1,0,0,0,.85-.45A1.81,1.81,0,0,0,101,13.08Z"/><path class="cls-9" d="M106.66,15.31h-.86a8.27,8.27,0,0,0-1-1.5,8.21,8.21,0,0,1-1.13-2h-.06a11.62,11.62,0,0,1,.09,1.37c0,.57,0,1.26,0,2.08H103c0-.72,0-1.5,0-2.36s0-1.55,0-2.14h1a6.65,6.65,0,0,0,.86,1.46,9,9,0,0,1,1,1.84h0c0-.51-.08-1-.08-1.38,0-.62,0-1.27,0-1.92h.87c0,.57,0,1.28,0,2.14S106.62,14.61,106.66,15.31Z"/></g></g></svg>