<svg xmlns="http://www.w3.org/2000/svg" viewBox="0 0 167.87 54.91"><defs><style>.cls-1{fill:#fff;}</style></defs><g id="Capa_2" data-name="Capa 2"><g id="NadaHero_Imagen" data-name="NadaHero Imagen"><rect width="167.87" height="54.91" rx="7.42"/><path class="cls-1" d="M43.78,36.3a27.93,27.93,0,0,1-2.46,4.59c-1.6,2.43-3.85,5.45-6.64,5.48-2.48,0-3.11-1.61-6.47-1.6s-4.07,1.63-6.55,1.6c-2.78,0-4.92-2.75-6.51-5.18-4.47-6.8-4.93-14.78-2.18-19a9.88,9.88,0,0,1,8-4.77c2.95,0,4.81,1.62,7.25,1.62S32,17.39,35.4,17.39a9.66,9.66,0,0,1,7.27,3.84A8.32,8.32,0,0,0,43.78,36.3Z"/><path class="cls-1" d="M32.81,14.68a8.29,8.29,0,0,0,1.84-6.14,9,9,0,0,0-5.78,3.11,7.66,7.66,0,0,0-1.89,6A7.55,7.55,0,0,0,32.81,14.68Z"/><path class="cls-1" d="M57.38,22.07,51,40.9h2.93l1.91-5.78H62l2,5.78h3L60.56,22.07Zm1.51,3.1c.22.84.45,1.71.75,2.65l1.73,5H56.46l1.7-5C58.42,27,58.66,26.1,58.89,25.17Z"/><path class="cls-1" d="M75.26,27a5.35,5.35,0,0,0-4.53,2.17l-.11-1.87H68l0,.24c.07,1.17.11,2.45.11,4.29V46.29H71V39.52a5,5,0,0,0,3.9,1.68,5.87,5.87,0,0,0,4.31-1.84,7.77,7.77,0,0,0,1.91-5.48,7.54,7.54,0,0,0-1.66-5A5.42,5.42,0,0,0,75.26,27Zm-.71,2.36c2.54,0,3.67,2.35,3.67,4.68,0,3-1.45,4.88-3.78,4.88a3.45,3.45,0,0,1-3.35-2.65A3.41,3.41,0,0,1,71,35.3V33a3.69,3.69,0,0,1,.1-.7,1.57,1.57,0,0,1,0-.23A3.6,3.6,0,0,1,74.55,29.31Z"/><path class="cls-1" d="M89.92,27a5.33,5.33,0,0,0-4.52,2.17l-.12-1.87h-2.6v.24c.08,1.17.11,2.45.11,4.29V46.29h2.85V39.52a5,5,0,0,0,3.89,1.68,5.89,5.89,0,0,0,4.32-1.84,7.77,7.77,0,0,0,1.91-5.48,7.59,7.59,0,0,0-1.66-5A5.44,5.44,0,0,0,89.92,27Zm-.7,2.36c2.53,0,3.67,2.35,3.67,4.68,0,3-1.45,4.88-3.78,4.88a3.46,3.46,0,0,1-3.36-2.65,3.91,3.91,0,0,1-.1-.92V33a4.92,4.92,0,0,1,.09-.71,1.7,1.7,0,0,0,0-.22A3.62,3.62,0,0,1,89.22,29.31Z"/><path class="cls-1" d="M108.3,30.05c-2.66-1-3.51-1.84-3.51-3.34,0-1.26,1-2.53,3.24-2.53a6.56,6.56,0,0,1,3.34.84l.24.15.8-2.38-.15-.09a8.28,8.28,0,0,0-4.15-.93c-3.63,0-6.17,2.15-6.17,5.21,0,2.48,1.59,4.21,5,5.45,2.42.9,3.31,1.83,3.31,3.42,0,1.79-1.38,2.91-3.62,2.91a7.78,7.78,0,0,1-4.1-1.17l-.25-.16-.76,2.43.14.1a9.72,9.72,0,0,0,4.81,1.24c4.9,0,6.63-3,6.63-5.55S111.71,31.39,108.3,30.05Z"/><path class="cls-1" d="M118.23,24l-2.79.87v2.37h-2v2.28h2v7a5.32,5.32,0,0,0,1,3.61,3.66,3.66,0,0,0,2.76,1.09,6.94,6.94,0,0,0,2.2-.34l.16-.06-.14-2.28-.27.08a4.3,4.3,0,0,1-1.33.16c-1.1,0-1.57-.7-1.57-2.34V29.53h3.44V27.25h-3.44Z"/><path class="cls-1" d="M128.72,27c-4,0-6.76,3-6.76,7.23s2.69,7,6.55,7h0c3.26,0,6.77-2.28,6.77-7.26a7.19,7.19,0,0,0-1.82-5A6.34,6.34,0,0,0,128.72,27Zm-.08,2.25c2.56,0,3.73,2.5,3.73,4.82,0,2.85-1.59,4.93-3.78,4.93h0c-2.16,0-3.73-2-3.73-4.85C124.83,31.66,126,29.2,128.64,29.2Z"/><path class="cls-1" d="M144,27.08l-.17,0a2.82,2.82,0,0,0-.71-.09,4.08,4.08,0,0,0-3.57,2.29l-.08-2h-2.56l0,.24c.08,1.13.11,2.39.11,4.1l0,9.31h2.85V33.64a7.62,7.62,0,0,1,.08-1.11,3.14,3.14,0,0,1,3-2.87c.3,0,.52,0,.77.05l.3,0Z"/><path class="cls-1" d="M150.43,26.92c-3.8,0-6.44,3-6.44,7.37,0,4.18,2.63,6.88,6.71,6.88a10.86,10.86,0,0,0,4.51-.87l.17-.07-.55-2.13-.24.1a8.67,8.67,0,0,1-3.56.64,4,4,0,0,1-4.27-4.13l9.19,0,0-.19a6.07,6.07,0,0,0,.09-1.18C156.08,30.39,154.6,26.92,150.43,26.92Zm-.19,2.17a2.82,2.82,0,0,1,2.09.8,4,4,0,0,1,1,2.65h-6.5C147.08,30.9,148.11,29.09,150.24,29.09Z"/><path class="cls-1" d="M51,9.21A21.78,21.78,0,0,1,53.71,9a6.12,6.12,0,0,1,4,1.09,3.91,3.91,0,0,1,1.41,3.22,4.51,4.51,0,0,1-1.42,3.46,6.63,6.63,0,0,1-4.39,1.28A19.87,19.87,0,0,1,51,18Zm1.29,7.89a8.27,8.27,0,0,0,1.3.06c2.73,0,4.21-1.38,4.21-3.78,0-2.13-1.31-3.44-4-3.44a7.75,7.75,0,0,0-1.5.12Z"/><path class="cls-1" d="M63.71,18.15a3.21,3.21,0,0,1-3.4-3.29,3.3,3.3,0,0,1,3.52-3.4,3.18,3.18,0,0,1,3.42,3.28,3.31,3.31,0,0,1-3.52,3.41Zm0-.87a2.28,2.28,0,0,0,2.16-2.5,2.18,2.18,0,1,0-4.31,0,2.24,2.24,0,0,0,2.13,2.46Z"/><path class="cls-1" d="M69.3,11.6l1,3.24c.19.72.38,1.39.52,2.05h0c.16-.65.4-1.33.63-2L72.6,11.6h1.09l1.1,3.2a21.55,21.55,0,0,1,.63,2.09h0A16.77,16.77,0,0,1,76,14.82l1-3.22H78.3L76,18H74.84L73.75,15a19.15,19.15,0,0,1-.63-2.12h0A18.32,18.32,0,0,1,72.44,15L71.3,18H70.12L68,11.6Z"/><path class="cls-1" d="M79.6,13.34c0-.68,0-1.21-.06-1.74h1.14l.08,1.05h0a2.7,2.7,0,0,1,2.35-1.19,2.44,2.44,0,0,1,2.52,2.72V18h-1.3V14.31c0-1-.42-1.9-1.64-1.9A1.83,1.83,0,0,0,81,13.6a1.57,1.57,0,0,0-.09.54V18H79.6Z"/><path class="cls-1" d="M87.75,8.62H89V18H87.75Z"/><path class="cls-1" d="M94.08,18.15a3.21,3.21,0,0,1-3.41-3.29,3.3,3.3,0,0,1,3.53-3.4,3.18,3.18,0,0,1,3.42,3.28,3.32,3.32,0,0,1-3.53,3.41Zm0-.87a2.28,2.28,0,0,0,2.16-2.5,2.17,2.17,0,1,0-4.3,0,2.24,2.24,0,0,0,2.13,2.46Z"/><path class="cls-1" d="M104.26,16.47a10.07,10.07,0,0,0,.1,1.53H103.2l-.12-.8h0a2.74,2.74,0,0,1-2.18.95,1.94,1.94,0,0,1-2.17-1.84c0-1.55,1.53-2.39,4.27-2.38V13.8c0-.53-.16-1.49-1.61-1.48a3.76,3.76,0,0,0-1.87.47L99.19,12a5,5,0,0,1,2.35-.55c2.19,0,2.72,1.33,2.72,2.62ZM103,14.74c-1.41,0-3,.2-3,1.44a1.08,1.08,0,0,0,1.21,1.11,1.78,1.78,0,0,0,1.74-1.07,1,1,0,0,0,.06-.37Z"/><path class="cls-1" d="M112.47,8.62v7.73a16.45,16.45,0,0,0,.06,1.65h-1.16l-.06-1.11h0a2.66,2.66,0,0,1-2.41,1.26,3.05,3.05,0,0,1-3.06-3.25A3.19,3.19,0,0,1,109,11.46a2.46,2.46,0,0,1,2.15,1h0V8.62Zm-1.29,5.59a2.14,2.14,0,0,0-.06-.5,1.87,1.87,0,0,0-1.87-1.34,2.19,2.19,0,0,0-2.13,2.46,2.12,2.12,0,0,0,2.1,2.38,1.93,1.93,0,0,0,1.9-1.39,2,2,0,0,0,.06-.5Z"/><path class="cls-1" d="M120.62,18.15a3.21,3.21,0,0,1-3.41-3.29,3.3,3.3,0,0,1,3.53-3.4,3.18,3.18,0,0,1,3.42,3.28,3.31,3.31,0,0,1-3.52,3.41Zm0-.87a2.28,2.28,0,0,0,2.16-2.5,2.17,2.17,0,1,0-4.3,0,2.24,2.24,0,0,0,2.13,2.46Z"/><path class="cls-1" d="M125.79,13.34c0-.68,0-1.21-.06-1.74h1.15l.07,1.05h0a2.69,2.69,0,0,1,2.35-1.19,2.43,2.43,0,0,1,2.51,2.72V18h-1.29V14.31c0-1-.43-1.9-1.65-1.9a1.85,1.85,0,0,0-1.73,1.19,1.57,1.57,0,0,0-.09.54V18h-1.29Z"/><path class="cls-1" d="M138.61,10.07V11.6h1.85v.89h-1.85v3.45c0,.79.25,1.24,1,1.24a2.39,2.39,0,0,0,.75-.08l.06.89a3.86,3.86,0,0,1-1.14.16,2,2,0,0,1-1.4-.49,2.35,2.35,0,0,1-.5-1.68V12.49h-1.1V11.6h1.1V10.43Z"/><path class="cls-1" d="M141.92,8.62h1.29v4h0a2.26,2.26,0,0,1,.93-.82,2.72,2.72,0,0,1,1.32-.33A2.43,2.43,0,0,1,148,14.2V18h-1.29V14.33c0-1.05-.43-1.91-1.65-1.91a1.86,1.86,0,0,0-1.73,1.17,1.32,1.32,0,0,0-.09.55V18h-1.29Z"/><path class="cls-1" d="M150.81,15a2.17,2.17,0,0,0,2.42,2.22,5.48,5.48,0,0,0,2-.31l.23.81a6.23,6.23,0,0,1-2.38.41c-2.17,0-3.49-1.3-3.49-3.22a3.26,3.26,0,0,1,3.35-3.46,2.79,2.79,0,0,1,2.92,3,2.68,2.68,0,0,1-.05.56Zm3.77-.83a1.72,1.72,0,0,0-1.78-1.89,2,2,0,0,0-2,1.89Z"/></g></g></svg>