<svg xmlns="http://www.w3.org/2000/svg" viewBox="0 0 37.95 37.95"><defs><style>.cls-1{fill:#57b51a;}.cls-2{fill:#fff;}</style></defs><g id="Capa_2" data-name="Capa 2"><g id="NadaHero_Imagen" data-name="NadaHero Imagen"><circle class="cls-1" cx="18.97" cy="18.97" r="18.97"/><g id="HEmuSH.tif"><path class="cls-2" d="M24.8,14.74a.64.64,0,0,1-.68.41h-3c-.43,0-.63.2-.63.62v1.56h3.22a.55.55,0,0,1,.58.68l-.54,3.19a.54.54,0,0,1-.56.48h-2.7V27c0,.42-.2.62-.63.62H16.16a.54.54,0,0,1-.6-.6V21.67H12.89a.54.54,0,0,1-.59-.59V17.9a.54.54,0,0,1,.58-.58h2.68v-.19c0-1.27,0-2.54,0-3.81a2.94,2.94,0,0,1,.94-2.18,3.46,3.46,0,0,1,1.87-.85l.14,0h5.91a.8.8,0,0,1,.38.41Zm-1.74,3.67H20a.55.55,0,0,1-.61-.62V15.66A1.6,1.6,0,0,1,21,14.06H23.7V11.34H19a3.26,3.26,0,0,0-.7.07,1.87,1.87,0,0,0-1.57,1.31,3.28,3.28,0,0,0-.12.88c0,1.41,0,2.81,0,4.22a.55.55,0,0,1-.59.59H13.4v2.17H16a.54.54,0,0,1,.61.61v5.36h2.71V21.19a.54.54,0,0,1,.61-.61h2.58c.08,0,.16,0,.18-.11C22.83,19.79,23,19.11,23.06,18.41Z"/></g></g></g></svg>