<svg xmlns="http://www.w3.org/2000/svg" viewBox="0 0 37.95 37.95"><defs><style>.cls-1{fill:#57b51a;}.cls-2{fill:#fff;}</style></defs><g id="Capa_2" data-name="Capa 2"><g id="NadaHero_Imagen" data-name="NadaHero Imagen"><circle class="cls-1" cx="18.97" cy="18.97" r="18.97"/><g id="_3iLQ19.tif" data-name="3iLQ19.tif"><path class="cls-2" d="M16.72,10.25a4.32,4.32,0,0,1,.51.16,2.15,2.15,0,0,1,1.36,2v2.72h.21c1.35,0,2.71,0,4.07,0a2.18,2.18,0,0,1,.46,4.32,3.55,3.55,0,0,1-.46,0H18.59v3a.67.67,0,0,0,.68.78,3.89,3.89,0,0,0,.49,0h2.63a2.17,2.17,0,0,1,.47,4.3,2.21,2.21,0,0,1-.51,0c-1.76,0-3.53,0-5.29,0a2.5,2.5,0,0,1-2.64-2.06,8.36,8.36,0,0,1-.14-.85l0-.15V12.12l0-.06a2,2,0,0,1,1.07-1.52,5,5,0,0,1,.76-.29Zm-1.39,8.11h0c0,1.92,0,3.83,0,5.74a4,4,0,0,0,.26,1.58,1.28,1.28,0,0,0,.94.83,3,3,0,0,0,.52,0H20.4c.66,0,1.31,0,2,0a1.09,1.09,0,1,0,0-2.17h-2.8a2.67,2.67,0,0,1-1-.19,1.69,1.69,0,0,1-1.05-1.58c0-1.21,0-2.42,0-3.63a.54.54,0,0,1,.57-.58h2c.95,0,1.91,0,2.86,0A1.08,1.08,0,0,0,24,17.08a1.1,1.1,0,0,0-1.12-.85H18.12a.55.55,0,0,1-.62-.62c0-1,0-2.1,0-3.16a1.09,1.09,0,1,0-2.17,0Z"/></g></g></g></svg>