<svg xmlns="http://www.w3.org/2000/svg" viewBox="0 0 37.95 37.95"><defs><style>.cls-1{fill:#57b51a;}.cls-2{fill:#fff;}</style></defs><g id="Capa_2" data-name="Capa 2"><g id="NadaHero_Imagen" data-name="NadaHero Imagen"><circle class="cls-1" cx="18.97" cy="18.97" r="18.97"/><g id="DZ3mre.tif"><path class="cls-2" d="M19.27,27.63H18.19l-.12,0A8.45,8.45,0,0,1,13.69,26a.28.28,0,0,0-.28,0l-2.52,1a.61.61,0,0,1-.66-.1.62.62,0,0,1-.14-.67L10.9,23a.45.45,0,0,0,0-.36,8.68,8.68,0,1,1,9.47,4.85C20,27.55,19.63,27.58,19.27,27.63Zm-7.81-2.11c.64-.26,1.24-.49,1.83-.74a.78.78,0,0,1,.84.11A7.33,7.33,0,0,0,20,26.37a7.53,7.53,0,1,0-7.93-4,.81.81,0,0,1,.07.61c-.07.25-.13.51-.2.76C11.76,24.32,11.62,24.9,11.46,25.52Z"/><path class="cls-2" d="M17.94,18.07l1.67,1.68c.11-.13.22-.26.34-.38a1.73,1.73,0,0,1,2.52,0l.76.75a1.74,1.74,0,0,1,0,2.51,7.7,7.7,0,0,1-1.11,1,3.27,3.27,0,0,1-2.81.35,6.42,6.42,0,0,1-2.25-1.19,11.53,11.53,0,0,1-2.73-3,4.75,4.75,0,0,1-.81-2.69,2.89,2.89,0,0,1,.89-2.07l.64-.64a1.73,1.73,0,0,1,2.49,0c.27.26.54.52.8.79a1.74,1.74,0,0,1,0,2.48ZM20.41,23a1.86,1.86,0,0,0,1.24-.43c.27-.25.52-.51.77-.77a.58.58,0,0,0,0-.87l-.75-.75a.59.59,0,0,0-.9,0L20,21a.58.58,0,0,1-.87,0l-2.4-2.41a.57.57,0,0,1,0-.87c.26-.26.52-.51.77-.77a.59.59,0,0,0,0-.86l-.78-.77a.58.58,0,0,0-.87,0c-.22.22-.43.45-.66.66a1.65,1.65,0,0,0-.45.79,2.81,2.81,0,0,0,.3,2,9.3,9.3,0,0,0,3.78,3.83A3.28,3.28,0,0,0,20.41,23Z"/></g></g></g></svg>