<svg xmlns="http://www.w3.org/2000/svg" viewBox="0 0 37.95 37.95"><defs><style>.cls-1{fill:#57b51a;}.cls-2{fill:#fff;}</style></defs><g id="Capa_2" data-name="Capa 2"><g id="NadaHero_Imagen" data-name="NadaHero Imagen"><circle class="cls-1" cx="18.97" cy="18.97" r="18.97"/><g id="ur6kcG.tif"><path class="cls-2" d="M12.36,10.71H25.75a.28.28,0,0,0,.12,0A4.74,4.74,0,0,1,29.78,14,9.47,9.47,0,0,1,30,15v7.9c0,.13-.06.26-.08.39a4.79,4.79,0,0,1-4.63,3.89q-6.28,0-12.55,0a3.82,3.82,0,0,1-.68-.05,4.84,4.84,0,0,1-4-4.8c0-2.26,0-4.52,0-6.78a4.87,4.87,0,0,1,0-.66A4.7,4.7,0,0,1,11.33,11C11.66,10.85,12,10.8,12.36,10.71ZM19,25.81c2,0,4.05,0,6.08,0a3.48,3.48,0,0,0,3.55-3.52V15.6a3.33,3.33,0,0,0-.07-.7,3.41,3.41,0,0,0-3.46-2.81H13a3.82,3.82,0,0,0-.68.05,3.43,3.43,0,0,0-2.85,3.42c0,2.26,0,4.52,0,6.78a3.7,3.7,0,0,0,.19,1.15,3.39,3.39,0,0,0,3.29,2.32C15,25.82,17,25.81,19,25.81Z"/><path class="cls-2" d="M15.62,18.94V16.26a.68.68,0,0,1,1-.66l6.08,2.69a.68.68,0,0,1,.46.66.69.69,0,0,1-.46.66L16.63,22.3a.68.68,0,0,1-1-.66ZM17,20.63,20.78,19,17,17.27Z"/></g></g></g></svg>