<svg xmlns="http://www.w3.org/2000/svg" viewBox="0 0 37.95 37.95"><defs><style>.cls-1{fill:#57b51a;}.cls-2{fill:#fff;}</style></defs><g id="Capa_2" data-name="Capa 2"><g id="NadaHero_Imagen" data-name="NadaHero Imagen"><circle class="cls-1" cx="18.97" cy="18.97" r="18.97"/><g id="fACvXz.tif"><path class="cls-2" d="M14,10.8H24l.08,0a3.5,3.5,0,0,1,2.91,2.37,6.82,6.82,0,0,1,.19.78v9.94l-.06.29a3.56,3.56,0,0,1-3.44,2.89H14.32a2.92,2.92,0,0,1-.51,0,3.59,3.59,0,0,1-3-3.56c0-3,0-6.07,0-9.11a4,4,0,0,1,0-.49A3.49,3.49,0,0,1,13.24,11,6.66,6.66,0,0,1,14,10.8ZM26.11,19V14.46a2.5,2.5,0,0,0-.05-.55,2.54,2.54,0,0,0-2.57-2.09h-9a2.92,2.92,0,0,0-.51,0,2.54,2.54,0,0,0-2.11,2.52v9.14a2.55,2.55,0,0,0,2.56,2.56q4.57,0,9.16,0a2.54,2.54,0,0,0,2.55-2.58C26.13,22,26.11,20.47,26.11,19Z"/><path class="cls-2" d="M19,13.85a5.1,5.1,0,1,1-5.11,5.07A5.09,5.09,0,0,1,19,13.85Zm0,1A4.08,4.08,0,1,0,23.05,19,4.09,4.09,0,0,0,19,14.87Z"/><path class="cls-2" d="M22,19a3.06,3.06,0,1,1-3-3.06A3,3,0,0,1,22,19ZM19,21a2,2,0,1,0-2-2A2.06,2.06,0,0,0,19,21Z"/></g></g></g></svg>