<svg xmlns="http://www.w3.org/2000/svg" viewBox="0 0 25.78 25.04"><defs><style>.cls-1{fill:red;}.cls-2{fill:#fff;}</style></defs><g id="Capa_2" data-name="Capa 2"><g id="NadaHero_Imagen" data-name="NadaHero Imagen"><rect class="cls-1" width="25.78" height="25.04" rx="5.59"/><path class="cls-2" d="M17.8,8.54a.31.31,0,0,0-.32.27l-.73,10H8.91l-.73-10a.29.29,0,0,0-.32-.27.29.29,0,0,0-.27.31l.75,10.27a.3.3,0,0,0,.3.27H17a.29.29,0,0,0,.29-.27l.75-10.27A.28.28,0,0,0,17.8,8.54Zm-6.41,7.4V10.83a.4.4,0,0,0-.79,0v5.11a.4.4,0,0,0,.79,0ZM19,7.16H15.08V6a.29.29,0,0,0-.3-.3H11a.29.29,0,0,0-.3.3V7.16H6.76a.39.39,0,0,0-.4.39.4.4,0,0,0,.4.4H19a.39.39,0,0,0,.39-.4A.38.38,0,0,0,19,7.16Zm-4.53,0h-3.2V6.24h3.2Zm.69,8.78V10.83a.39.39,0,0,0-.4-.39.38.38,0,0,0-.39.39v5.11a.38.38,0,0,0,.39.39A.39.39,0,0,0,15.18,15.94Z"/></g></g></svg>