<svg xmlns="http://www.w3.org/2000/svg" viewBox="0 0 9.72 15.62"><defs><style>.cls-1{fill:#85bf6c;}.cls-2{fill:#e42522;}.cls-3{fill:#f3981a;}</style></defs><g id="Capa_2" data-name="Capa 2"><g id="Layer_1" data-name="Layer 1"><path class="cls-1" d="M4.49,3a1.39,1.39,0,0,0-1-1.23c-1-.3-1-.59-1-.59A1.71,1.71,0,0,0,4.49,3Z"/><path class="cls-1" d="M3.16,8.47h0A2.26,2.26,0,1,1,7,6.44c.38-.25.76-.51,1.12-.78l1-.71c.46-.31.79-.63.37-.43a9.72,9.72,0,0,1-1.46.63A3.89,3.89,0,0,0,.94,7.27a8.94,8.94,0,0,0,.28,1.9C1.79,9,2.46,8.76,3.16,8.47Z"/><path class="cls-2" d="M1.48,10.18c.09.3.18.6.29.91A35.08,35.08,0,0,0,8,10.76a12.92,12.92,0,0,0,.75-3.49,3.88,3.88,0,0,0-.17-1.14c-.46.34-.94.67-1.43,1h0A2.26,2.26,0,0,1,4.83,9.18a2.33,2.33,0,0,1-1.12-.29L3.37,9c-.61.25-1.18.45-1.67.61L0,10.21C.64,10.24,1.44,10,1.48,10.18Z"/><path class="cls-3" d="M5.07,14.47a19,19,0,0,1,1.78-1,19.4,19.4,0,0,0,.87-2A33,33,0,0,1,2,11.7c.12.33.25.65.39,1,.82,0,2.08-.05,2.08-.05a15.24,15.24,0,0,1-1.63,1c.62,1.18,1.33,2,2,2,.46,0,1-.46,1.44-1.19Z"/><path class="cls-1" d="M4.92,3A2.28,2.28,0,0,1,6.63,1C8.28.48,8.21,0,8.21,0S8.46,3.1,4.92,3Z"/></g></g></svg>