<svg xmlns="http://www.w3.org/2000/svg" viewBox="0 0 8.34 8.97"><defs><style>.cls-1{fill:#425f66;}</style></defs><g id="Capa_2" data-name="Capa 2"><g id="Layer_1" data-name="Layer 1"><path class="cls-1" d="M5.63,6.89h.82a.16.16,0,0,0,.16-.16.17.17,0,0,0-.16-.17H5.63a.17.17,0,0,0-.16.17A.16.16,0,0,0,5.63,6.89ZM2,6.89h.82A.17.17,0,0,0,3,6.73a.17.17,0,0,0-.16-.17H2a.17.17,0,0,0-.16.17A.16.16,0,0,0,2,6.89Zm1.9,0h.82a.17.17,0,0,0,.16-.16.17.17,0,0,0-.16-.17H3.87a.17.17,0,0,0-.16.17A.16.16,0,0,0,3.87,6.89ZM7.65,4.47H7c1-2,1.29-3.67.77-4.26A.63.63,0,0,0,7,.05C6.27.3,5.42,2.4,5,3.64a1.23,1.23,0,0,0-.1-.49A1.5,1.5,0,1,0,2.14,2a.59.59,0,0,0-.61,0,.57.57,0,0,0-.3.39c0,.07,0,.11-.07.14s-.07,0-.16,0a.65.65,0,0,0-.48.15.76.76,0,0,0-.14.86.79.79,0,0,0,.12.15c.14.18.25.33.17.53a.71.71,0,0,0-.06.28A.7.7,0,0,0,0,5.17a.69.69,0,0,0,.69.69H.77l.75,3A.17.17,0,0,0,1.68,9h5a.15.15,0,0,0,.15-.12l.76-3h.07a.69.69,0,0,0,.69-.69A.7.7,0,0,0,7.65,4.47Zm-2.3-.93A.64.64,0,0,0,5.72,4l.16,0a1.1,1.1,0,0,0,.64-.31.16.16,0,0,0,.05-.11.17.17,0,0,0-.05-.12,1.32,1.32,0,0,0-1.06-.26c.1-.27.21-.53.32-.79a.57.57,0,0,0,.35.4l.15,0a1.1,1.1,0,0,0,.64-.3.15.15,0,0,0,0-.12.12.12,0,0,0,0-.12,1.26,1.26,0,0,0-1-.27c.1-.23.21-.44.31-.64a.49.49,0,0,0,.29.26.39.39,0,0,0,.15,0,1.07,1.07,0,0,0,.64-.3.17.17,0,0,0,.05-.12.16.16,0,0,0-.05-.11A1.12,1.12,0,0,0,6.58.9,1.39,1.39,0,0,1,7.11.35a.32.32,0,0,1,.38.07c.35.4.22,1.84-.89,4.05H5C5.12,4.18,5.23,3.86,5.35,3.54Zm.34,0a1.47,1.47,0,0,1,.44.08.39.39,0,0,1-.31.09A.26.26,0,0,1,5.69,3.55ZM6.1,2.39a1.08,1.08,0,0,1,.44.08.44.44,0,0,1-.31.08A.27.27,0,0,1,6.1,2.39Zm.42-1.17A1,1,0,0,1,7,1.3a.4.4,0,0,1-.3.08A.28.28,0,0,1,6.52,1.22Zm-4.08.94a1.12,1.12,0,0,1,.47-.76,1.13,1.13,0,0,1,.87-.22,1.19,1.19,0,0,1,1,1.34A1.21,1.21,0,0,1,4.55,3a.17.17,0,0,0,0,.18.83.83,0,0,1,.1.51.83.83,0,0,1-.37.55.15.15,0,0,0-.06.19H3.85V4.39H3.73a.79.79,0,0,1-.66-.88A.15.15,0,0,0,3,3.35,1.18,1.18,0,0,1,2.44,2.16Zm2.31,2.1c0,.09,0,.16-.07.21H4.55A1.34,1.34,0,0,0,4.75,4.26ZM.67,3.37A.41.41,0,0,1,.74,2.9c.06-.07.14-.07.26-.06a.52.52,0,0,0,.38-.11.53.53,0,0,0,.16-.29c0-.1.05-.15.14-.19s.37.1.43.17a1.48,1.48,0,0,0,.63,1.15,1.1,1.1,0,0,0,.42.9H2.72A4.69,4.69,0,0,0,2,2.68a.16.16,0,0,0-.23,0,.17.17,0,0,0,0,.23,4.18,4.18,0,0,1,.68,1.58H2.22s0,0-.07-.06a1.45,1.45,0,0,0-.68-.11.16.16,0,0,0-.16.16H.93a.83.83,0,0,1,0-.15.8.8,0,0,0-.23-.85ZM6.54,8.65H1.81L1.1,5.86H7.25ZM7.65,5.54h-7a.38.38,0,0,1-.37-.37A.37.37,0,0,1,.69,4.8h7A.36.36,0,0,1,8,5.17.37.37,0,0,1,7.65,5.54ZM3.73,7.59H2.92a.16.16,0,0,0,0,.32h.81a.16.16,0,1,0,0-.32Zm1.9,0H4.82a.16.16,0,0,0,0,.32h.81a.16.16,0,0,0,0-.32ZM1.29,3.81a1.3,1.3,0,0,1,.53.08h.07A.16.16,0,0,0,2,3.81.16.16,0,0,0,2,3.6a1.57,1.57,0,0,0-.68-.11.16.16,0,0,0-.16.16A.17.17,0,0,0,1.29,3.81Z"/></g></g></svg>