<svg xmlns="http://www.w3.org/2000/svg" viewBox="0 0 11.29 13.01"><defs><style>.cls-1{fill:#cbd3d3;}</style></defs><g id="Capa_2" data-name="Capa 2"><g id="Layer_1" data-name="Layer 1"><path class="cls-1" d="M4.83,4.71a1.89,1.89,0,0,0,.7.13A1.87,1.87,0,0,0,7.28,3.65a1.91,1.91,0,0,0,0-1.43,1.88,1.88,0,0,0-3.48,0,1.85,1.85,0,0,0,0,1.44A1.92,1.92,0,0,0,4.83,4.71ZM4.14,2.4a1.49,1.49,0,0,1,1.39-.94,1.35,1.35,0,0,1,.55.11,1.48,1.48,0,0,1,.83.8,1.5,1.5,0,0,1,0,1.14,1.48,1.48,0,0,1-.8.83A1.53,1.53,0,0,1,5,4.35a1.5,1.5,0,0,1-.82-.8A1.48,1.48,0,0,1,4.14,2.4ZM5.46,6.77a.11.11,0,0,0,.08,0l2.05-1a.19.19,0,0,0,.09-.26.2.2,0,0,0-.26-.08l-2,1.05a.19.19,0,0,0-.08.26A.18.18,0,0,0,5.46,6.77Zm-.61.76a.22.22,0,0,0,0-.14l-.41-.78a.18.18,0,0,0-.11-.1.17.17,0,0,0-.14,0L3.25,7a.22.22,0,0,0-.09.12.17.17,0,0,0,0,.14l.4.78a.19.19,0,0,0,.17.1l.09,0,.92-.48A.18.18,0,0,0,4.85,7.53Zm-1,.16L3.6,7.26,4.18,7l.23.44Zm2.3.59a.2.2,0,0,0,.17.11.16.16,0,0,0,.09,0l2.05-1a.2.2,0,0,0,.08-.26A.19.19,0,0,0,8.26,7L6.2,8A.18.18,0,0,0,6.12,8.28ZM5.67,9l-.4-.78a.14.14,0,0,0-.11-.09.16.16,0,0,0-.15,0l-.92.47A.19.19,0,0,0,4,8.88l.4.78a.17.17,0,0,0,.11.09h.06a.11.11,0,0,0,.08,0l.93-.48A.18.18,0,0,0,5.67,9Zm-1,.3-.23-.43L5,8.57,5.24,9Zm5.7-3.5A.93.93,0,0,0,10.7,4L8.48,3.13A3,3,0,0,0,2.82,1.78L.1,3.18A.2.2,0,0,0,0,3.44L4.9,12.9a.18.18,0,0,0,.17.11l.09,0,5.77-3A.17.17,0,0,0,11,9.9a.2.2,0,0,0,0-.15L8.67,5.21,10,5.75A1,1,0,0,0,10.36,5.81ZM3.14,2A2.58,2.58,0,0,1,5.53.38a2.44,2.44,0,0,1,1,.19A2.57,2.57,0,1,1,3.16,4,2.54,2.54,0,0,1,3.14,2Zm.48,3.85L3,6.16l-.22-.44.58-.3Zm7,3.9-5.43,2.8L.45,3.43,2.65,2.3a3,3,0,0,0,.16,1.83A3.14,3.14,0,0,0,3.38,5l-.92.48a.17.17,0,0,0-.09.11.2.2,0,0,0,0,.15l.4.77A.18.18,0,0,0,3,6.61l.09,0L4,6.11A.21.21,0,0,0,4.06,6a.2.2,0,0,0,0-.15l-.26-.51a3.21,3.21,0,0,0,.65.37,3,3,0,0,0,1.09.21A3,3,0,0,0,7.79,4.86L8.15,5a.24.24,0,0,0,0,.08ZM8,4.54a3.21,3.21,0,0,0,.25-.49,3.39,3.39,0,0,0,.15-.52l2.13.85a.54.54,0,0,1,.31.7.55.55,0,0,1-.71.31ZM6.11,9.85A.18.18,0,0,0,6,9.76a.14.14,0,0,0-.14,0l-.93.47a.2.2,0,0,0-.08.26l.4.78a.17.17,0,0,0,.11.09h.06a.15.15,0,0,0,.09,0l.92-.48a.19.19,0,0,0,.09-.25Zm-.62,1.08-.22-.43.58-.31.23.44ZM7,9.9a.18.18,0,0,0,.17.11.11.11,0,0,0,.08,0L9.27,8.93a.19.19,0,1,0-.18-.34L7,9.65A.18.18,0,0,0,7,9.9Z"/></g></g></svg>