<svg xmlns="http://www.w3.org/2000/svg" viewBox="0 0 12.71 14.48"><defs><style>.cls-1{fill:#cbd3d3;}</style></defs><g id="Capa_2" data-name="Capa 2"><g id="Layer_1" data-name="Layer 1"><path class="cls-1" d="M2.69,6.59a1.53,1.53,0,0,0,1.39.89,1.58,1.58,0,0,0,.63-.13A1.54,1.54,0,0,0,5.6,6,1.14,1.14,0,0,0,6,4.6H6l.28-.28a.54.54,0,0,0,.51,0,.56.56,0,0,0,.28-.73.62.62,0,0,0-.32-.3.47.47,0,0,0-.17,0,.5.5,0,0,0,0-.13.52.52,0,0,0-.7-.26.53.53,0,0,0-.27.7l.06.1L5.34,4a1.11,1.11,0,0,0-.82,0A1.13,1.13,0,0,0,4,4.44a1.7,1.7,0,0,0-.59.14,1.38,1.38,0,0,0-.33.2v-4A.18.18,0,0,0,2.93.57a.19.19,0,0,0-.19.19v4.4s0,0,0,.06A1.57,1.57,0,0,0,2.69,6.59Zm.92-1.66a1.06,1.06,0,0,1,.46-.1h.07a.19.19,0,0,0,.18-.11.74.74,0,0,1,.36-.34.73.73,0,0,1,.63,0,.18.18,0,0,0,.21,0l.55-.55a.18.18,0,0,0,.06-.17A.26.26,0,0,0,6,3.49a.13.13,0,0,1-.08-.07.14.14,0,0,1,0-.11A.16.16,0,0,1,6,3.22a.15.15,0,0,1,.2.08.12.12,0,0,1,0,.13.2.2,0,0,0,0,.24.18.18,0,0,0,.24,0h0a.2.2,0,0,1,.13,0,.22.22,0,0,1,.1.09.17.17,0,0,1,0,.14.18.18,0,0,1-.3,0,.17.17,0,0,0-.14-.07.17.17,0,0,0-.15.05l-.5.51a.2.2,0,0,0,0,.25.9.9,0,0,0,0,.09.76.76,0,0,1-.36,1,.16.16,0,0,0-.1.17,1.14,1.14,0,1,1-1.61-1Zm5.73-.26a.19.19,0,0,0,.19-.19V2a.19.19,0,1,0-.38,0V4.48A.19.19,0,0,0,9.34,4.67ZM5.69,2a.18.18,0,0,0,.19-.19V.19A.19.19,0,0,0,5.69,0,.2.2,0,0,0,5.5.19V1.8A.19.19,0,0,0,5.69,2Zm2.92,9.28H9.86a.19.19,0,0,0,.19-.19.2.2,0,0,0-.19-.19H8.61a.2.2,0,0,0-.2.19A.19.19,0,0,0,8.61,11.27ZM3,11.27H4.23a.19.19,0,0,0,.19-.19.2.2,0,0,0-.19-.19H3a.2.2,0,0,0-.2.19A.19.19,0,0,0,3,11.27ZM11.7,7.68H10.41l0,0a.7.7,0,0,0,.14-.54.73.73,0,0,1,0-.34h0l0,0a.7.7,0,0,0,.1-.93.63.63,0,0,0-.47-.22.24.24,0,0,1-.14,0,.34.34,0,0,1,0-.14A.67.67,0,0,0,9.84,5a.78.78,0,0,0-.9,0,.64.64,0,0,0-.13.15c-.14.18-.26.31-.45.28a.9.9,0,0,0-.7.15.75.75,0,0,0-.31.5,1,1,0,0,0,0,.39c0,.17.05.23,0,.31l-.1.11a.89.89,0,0,0-.36.78H1a1,1,0,1,0,0,2h.16l1.17,4.64a.19.19,0,0,0,.19.15h7.66a.19.19,0,0,0,.19-.15l1.17-4.64h.15a1,1,0,1,0,0-2ZM7.54,7.17,7.66,7a.67.67,0,0,0,.1-.65.77.77,0,0,1,0-.25.35.35,0,0,1,.16-.24.55.55,0,0,1,.4-.09.84.84,0,0,0,.82-.41l.07-.09a.41.41,0,0,1,.45,0,.33.33,0,0,1,.1.22.56.56,0,0,0,.19.38.69.69,0,0,0,.34.1c.11,0,.15,0,.2.08s0,.35-.07.42-.22.24-.2.66c0,.2,0,.25,0,.26h-.06a.2.2,0,0,0-.18.2.17.17,0,0,0,0,.07H8.59a4.74,4.74,0,0,0,1.6-1.12.2.2,0,0,0,0-.27.19.19,0,0,0-.27,0A4.65,4.65,0,0,1,7.7,7.6a.15.15,0,0,0-.11.08H7.3C7.24,7.5,7.33,7.38,7.54,7.17Zm2.51,6.92H2.68L1.56,9.69h9.6ZM11.7,9.31H1A.63.63,0,1,1,1,8.06H11.7a.63.63,0,0,1,0,1.25ZM4.24,12.66a.18.18,0,0,0,.19.19H5.68a.19.19,0,1,0,0-.38H4.43A.18.18,0,0,0,4.24,12.66ZM5.9,11.27H7.15a.19.19,0,0,0,.19-.19.2.2,0,0,0-.19-.19H5.9a.19.19,0,0,0-.19.19A.18.18,0,0,0,5.9,11.27Zm1.26,1.39a.18.18,0,0,0,.19.19H8.6a.19.19,0,1,0,0-.38H7.35A.18.18,0,0,0,7.16,12.66Z"/></g></g></svg>