<svg xmlns="http://www.w3.org/2000/svg" viewBox="0 0 15.81 12.48"><defs><style>.cls-1{fill:#ff9045;}</style></defs><g id="Capa_2" data-name="Capa 2"><g id="Layer_1" data-name="Layer 1"><path class="cls-1" d="M9.2,1.77a.29.29,0,1,0-.29-.29A.29.29,0,0,0,9.2,1.77Zm0-.38a.09.09,0,0,1,.09.09.1.1,0,0,1-.09.1.11.11,0,0,1-.1-.1A.1.1,0,0,1,9.2,1.39ZM15,7.72a2.78,2.78,0,0,0-.88-.2l-.42-.06a.24.24,0,0,0,.07-.12s0-.06,0-.09h0a1.7,1.7,0,0,0,1.64-1.17.23.23,0,0,0,0-.16.22.22,0,0,0-.13-.08,1.78,1.78,0,0,0-1.44.31,1.8,1.8,0,0,0-.19.2,1.3,1.3,0,0,0-.34-.47.19.19,0,0,0-.26,0,.19.19,0,0,0,0,.27,1.07,1.07,0,0,1,.34.84h0a1.13,1.13,0,0,1,0,.25.31.31,0,0,0,0,.1l-.21-.08a2.4,2.4,0,0,0-1.38-.23,1.8,1.8,0,0,0-1.26,1.48,2.45,2.45,0,0,0-.05.72h0a4.33,4.33,0,0,0-2.19.2A11.33,11.33,0,0,0,5,10.78a2.47,2.47,0,0,0,.15-.86c0-.92-.59-1-1.16-1.1a4.34,4.34,0,0,1-.66-.14c.1-.21.24-.39.44-.39a.21.21,0,0,0,.19-.2.21.21,0,0,0-.2-.19A.85.85,0,0,0,3.41,8a.91.91,0,0,0-.86-.58.27.27,0,0,0-.14.07.23.23,0,0,0,0,.16.92.92,0,0,0,.41.68A.61.61,0,0,0,3,8.41l0,.11a1.67,1.67,0,0,1-.28-.18A1.49,1.49,0,0,0,1.05,8,2.05,2.05,0,0,0,0,9.92,2.56,2.56,0,0,0,4.3,11.8c.12.38.74.55,1.58.55a13.18,13.18,0,0,0,3-.44,4.37,4.37,0,0,0,2-.87.94.94,0,0,0,.12-.18,2.23,2.23,0,0,0,.49.52.91.91,0,0,0,.7.07,1.06,1.06,0,0,1,.39,0,1.12,1.12,0,0,1,.33.19,1,1,0,0,0,.56.24h.12a3,3,0,0,0,2.07-2A1.68,1.68,0,0,0,15,7.72Zm-.9-1.28a1.14,1.14,0,0,1,.79-.25H15a1.26,1.26,0,0,1-1.15.66A1,1,0,0,1,14.11,6.44ZM3,8l-.11-.11A.33.33,0,0,1,3,8Zm-.41,4.1A2.19,2.19,0,0,1,.38,9.92a1.7,1.7,0,0,1,.84-1.54.93.93,0,0,1,.4-.09,1.29,1.29,0,0,1,.82.34,1.83,1.83,0,0,0,.38.26c-.06.22-.08.4-.09.42a.2.2,0,0,0,.17.21h0a.19.19,0,0,0,.19-.17A2.46,2.46,0,0,1,3.18,9a5.57,5.57,0,0,0,.72.16c.58.09.84.13.84.72A2.19,2.19,0,0,1,2.56,12.1Zm8.09-1.32a4.17,4.17,0,0,1-1.84.76c-2.58.65-4.07.44-4.15.14S5.1,11,6.15,10.57a.75.75,0,0,1,.27.52.19.19,0,0,0,.19.19.2.2,0,0,0,.19-.19,1.08,1.08,0,0,0-.27-.68c.22-.09.46-.18.72-.26a.8.8,0,0,1,.32.57.2.2,0,0,0,.19.19.2.2,0,0,0,.2-.19,1,1,0,0,0-.3-.7c.23-.07.46-.14.72-.2l.12,0,0,0a.82.82,0,0,1,.34.59.2.2,0,0,0,.19.19.2.2,0,0,0,.2-.19A1.06,1.06,0,0,0,9,9.69a4.79,4.79,0,0,1,1-.13,1.45,1.45,0,0,1,.4,0,.45.45,0,0,1,.24.18,4.13,4.13,0,0,0,.15.5A.48.48,0,0,1,10.65,10.78Zm.47-.58h0l0-.14a1.59,1.59,0,0,0-.14-.4v0h0a.19.19,0,0,0,.19-.19c0-.22.07-.8.37-1a.91.91,0,0,1-.22.81.19.19,0,0,0,0,.24.19.19,0,0,0,.23,0s.45-.24.71-.06a1.12,1.12,0,0,1-.72.15.2.2,0,0,0-.23.13.2.2,0,0,0,.13.24,1.64,1.64,0,0,1,.7.42.61.61,0,0,1-.74-.19A.19.19,0,0,0,11.12,10.2Zm4.22-.46a2.67,2.67,0,0,1-1.78,1.74c-.1,0-.21-.05-.37-.17a1.76,1.76,0,0,0-.47-.25.65.65,0,0,0-.2,0c-.12,0-.23,0-.34,0a.66.66,0,0,1-.42,0,2.18,2.18,0,0,1-.31-.3,1,1,0,0,0,.41.08,1.22,1.22,0,0,0,.6-.16.2.2,0,0,0,.1-.18.86.86,0,0,0-.4-.57.78.78,0,0,0,.47-.33.35.35,0,0,0-.14-.43A.85.85,0,0,0,11.85,9a.94.94,0,0,0,0-.87.33.33,0,0,0-.4-.09.88.88,0,0,0-.44.47,1.37,1.37,0,0,1,1-1.13,2.35,2.35,0,0,1,1.12.23,3.83,3.83,0,0,0,.48.16,3.89,3.89,0,0,0,.53.09,3,3,0,0,1,.75.16A1.35,1.35,0,0,1,15.34,9.74ZM7.5,5.63c1.68,0,2.89-2,2.94-2.09a.19.19,0,0,0,0-.15.22.22,0,0,0-.11-.12,7,7,0,0,0-5.51,0,.23.23,0,0,0-.1.12.19.19,0,0,0,0,.15C5.59,4.93,6.51,5.63,7.5,5.63ZM10,3.53C9.66,4,8.68,5.25,7.5,5.25h0c-.81,0-1.58-.58-2.3-1.71A6.73,6.73,0,0,1,10,3.53ZM6,1.77a.29.29,0,1,0-.29-.29A.29.29,0,0,0,6,1.77Zm0-.38a.09.09,0,0,1,.09.09.09.09,0,1,1-.18,0A.09.09,0,0,1,6,1.39ZM7.6,9A4.49,4.49,0,1,0,3.11,4.49,4.49,4.49,0,0,0,7.6,9Zm0-8.6A4.11,4.11,0,1,1,3.49,4.49,4.12,4.12,0,0,1,7.6.38Z"/></g></g></svg>