<svg xmlns="http://www.w3.org/2000/svg" viewBox="0 0 7.06 12.84"><defs><style>.cls-1{fill:#425f66;}</style></defs><g id="Capa_2" data-name="Capa 2"><g id="Layer_1" data-name="Layer 1"><path class="cls-1" d="M3.53,5.12A1.36,1.36,0,1,0,4.88,6.47,1.35,1.35,0,0,0,3.53,5.12Zm0,2.31a1,1,0,1,1,1-1A1,1,0,0,1,3.53,7.43ZM4.68,3.67a3.15,3.15,0,0,0,1.45-.85A3.69,3.69,0,0,0,7.05.21v0A.21.21,0,0,0,6.83,0a.2.2,0,0,0-.18.21S6.52.67,5,1.13a2.87,2.87,0,0,0-2.12,2.4l-.11,0A1.81,1.81,0,0,0,1.39,2c-.84-.25-1-.47-1-.51a.19.19,0,0,0-.17-.19A.21.21,0,0,0,0,1.51v0A2.33,2.33,0,0,0,.59,3.2,2.18,2.18,0,0,0,2,3.83,3.29,3.29,0,0,0,.25,6.74a9.7,9.7,0,0,0,1.16,3.68c.37.73,1.31,2.42,2.12,2.42,1.27,0,3.28-4.38,3.28-6.1A3.28,3.28,0,0,0,4.68,3.67Zm.39-2.15A5.17,5.17,0,0,0,6.62.84a3,3,0,0,1-.78,1.7,3.41,3.41,0,0,1-2.58.91h0A2.46,2.46,0,0,1,5.07,1.52ZM.88,2.92a1.6,1.6,0,0,1-.42-.83,3.69,3.69,0,0,0,.81.33,1.43,1.43,0,0,1,1,1A1.92,1.92,0,0,1,.88,2.92Zm2.65,9.52c-.86,0-2.88-4-2.88-5.7a2.88,2.88,0,1,1,5.76,0C6.41,8.44,4.39,12.44,3.53,12.44Z"/></g></g></svg>