<svg xmlns="http://www.w3.org/2000/svg" viewBox="0 0 11.42 12.29"><defs><style>.cls-1{fill:#425f66;}</style></defs><g id="Capa_2" data-name="Capa 2"><g id="Layer_1" data-name="Layer 1"><path class="cls-1" d="M7.71,10.4H6.6a.22.22,0,0,0-.22.22.22.22,0,0,0,.22.22H7.71a.22.22,0,0,0,.22-.22A.22.22,0,0,0,7.71,10.4Zm-5-1H3.82a.22.22,0,0,0,0-.44H2.7a.22.22,0,1,0,0,.44Zm7.77-3.3H9.54c1.34-2.76,1.76-5,1.05-5.84a.87.87,0,0,0-1-.22C8.59.41,7.42,3.29,6.8,5a1.47,1.47,0,0,0-.13-.68A2,2,0,0,0,7,3.53,2.06,2.06,0,0,0,5.25,1.18,2.05,2.05,0,0,0,2.93,2.75a.83.83,0,0,0-.83-.07.78.78,0,0,0-.41.54.34.34,0,0,1-.1.19s-.1,0-.22,0a.84.84,0,0,0-.66.21A1,1,0,0,0,.52,4.82,1.3,1.3,0,0,0,.68,5c.2.24.35.45.24.72a1.38,1.38,0,0,0-.09.39A.94.94,0,0,0,0,7.08,1,1,0,0,0,1,8h.1l1,4.09a.21.21,0,0,0,.21.17H9.13a.23.23,0,0,0,.22-.17l1-4.09h.09a1,1,0,0,0,0-1.9ZM7.33,4.84a.84.84,0,0,0,.51.67.52.52,0,0,0,.21,0,1.5,1.5,0,0,0,.88-.42.22.22,0,0,0,0-.32,1.86,1.86,0,0,0-1.45-.36c.14-.36.29-.73.44-1.08a.78.78,0,0,0,.48.54.45.45,0,0,0,.2,0,1.47,1.47,0,0,0,.88-.42.22.22,0,0,0,0-.32,1.68,1.68,0,0,0-1.32-.37c.14-.32.28-.61.43-.88A.69.69,0,0,0,9,2.32a.76.76,0,0,0,.21,0,1.5,1.5,0,0,0,.88-.42.22.22,0,0,0,0-.32A1.61,1.61,0,0,0,9,1.23,1.75,1.75,0,0,1,9.74.49c.33-.12.47,0,.51.09.49.55.31,2.52-1.21,5.55H6.88C7,5.73,7.16,5.29,7.33,4.84Zm.46,0A1.55,1.55,0,0,1,8.4,5,.61.61,0,0,1,8,5.09C7.89,5.07,7.83,5,7.79,4.87Zm.56-1.6a1.53,1.53,0,0,1,.6.11.58.58,0,0,1-.42.11C8.45,3.47,8.39,3.37,8.35,3.27Zm.59-1.6a1.53,1.53,0,0,1,.6.11.61.61,0,0,1-.42.12C9,1.87,9,1.77,8.94,1.67ZM3.34,3A1.66,1.66,0,0,1,4,1.91,1.62,1.62,0,0,1,6.53,3.46a1.59,1.59,0,0,1-.3.71.21.21,0,0,0,0,.24,1.05,1.05,0,0,1,.13.69,1.09,1.09,0,0,1-.51.76.22.22,0,0,0-.08.27H5.27V6H5.11a1.08,1.08,0,0,1-.91-1.2.23.23,0,0,0-.1-.22A1.61,1.61,0,0,1,3.34,3ZM6.51,5.84c0,.12-.08.22-.1.29H6.23A1.92,1.92,0,0,0,6.51,5.84ZM.92,4.62A.58.58,0,0,1,1,4c.09-.09.19-.09.35-.09a.72.72,0,0,0,.53-.13.76.76,0,0,0,.22-.41c.05-.14.07-.21.18-.26.28-.14.52.13.6.23a2,2,0,0,0,.86,1.58,1.54,1.54,0,0,0,.57,1.24h-.6a6.07,6.07,0,0,0-1-2.45A.22.22,0,1,0,2.35,4a6.17,6.17,0,0,1,.92,2.18H3A.2.2,0,0,0,2.94,6,2,2,0,0,0,2,5.89a.22.22,0,0,0-.22.22v0H1.27a1,1,0,0,1,.06-.22A1.12,1.12,0,0,0,1,4.75Zm8,7.22H2.47L1.51,8H9.93Zm1.51-4.26H1a.5.5,0,0,1-.51-.5A.51.51,0,0,1,1,6.57h9.52a.51.51,0,0,1,.51.51A.5.5,0,0,1,10.47,7.58ZM7.72,9.43H8.83a.22.22,0,1,0,0-.44H7.72a.22.22,0,0,0,0,.44Zm-2.42,0H6.42a.22.22,0,0,0,0-.44H5.3a.22.22,0,0,0,0,.44Zm-.19,1H4a.22.22,0,0,0-.23.22.22.22,0,0,0,.23.22H5.11a.22.22,0,0,0,.22-.22A.22.22,0,0,0,5.11,10.4ZM1.77,5.22a1.74,1.74,0,0,1,.73.11l.09,0a.23.23,0,0,0,.2-.13.22.22,0,0,0-.1-.29,2,2,0,0,0-.94-.15A.21.21,0,0,0,1.54,5,.22.22,0,0,0,1.77,5.22Z"/></g></g></svg>