<svg xmlns="http://www.w3.org/2000/svg" viewBox="0 0 12.64 12.64"><defs><style>.cls-1{fill:#ff5f5f;}.cls-2{fill:#fff;}</style></defs><g id="Capa_2" data-name="Capa 2"><g id="Layer_1" data-name="Layer 1"><circle class="cls-1" cx="6.32" cy="6.32" r="6.32"/><path class="cls-2" d="M9,4.15a.16.16,0,0,0-.16.15L8.48,9.45h-4L4.06,4.3a.16.16,0,1,0-.31,0l.39,5.29a.15.15,0,0,0,.15.14H8.62a.15.15,0,0,0,.15-.14l.39-5.29A.15.15,0,0,0,9,4.15ZM5.71,8V5.34a.2.2,0,1,0-.4,0V8a.2.2,0,1,0,.4,0ZM9.65,3.44h-2V2.82a.15.15,0,0,0-.16-.15H5.51a.15.15,0,0,0-.15.15v.62h-2a.21.21,0,0,0-.21.21.2.2,0,0,0,.21.2H9.65a.2.2,0,0,0,.2-.2A.2.2,0,0,0,9.65,3.44Zm-2.34,0H5.66V3H7.31ZM7.67,8V5.34a.21.21,0,1,0-.41,0V8a.21.21,0,1,0,.41,0Z"/></g></g></svg>