<svg xmlns="http://www.w3.org/2000/svg" viewBox="0 0 24.85 22.36"><defs><style>.cls-1{fill:#425f66;}</style></defs><g id="Capa_2" data-name="Capa 2"><g id="NadaHero_Imagen" data-name="NadaHero Imagen"><g id="Dk0aEV.tif"><path class="cls-1" d="M23.6,7.45H17.48a.64.64,0,0,1-.61-.31.61.61,0,0,1,.52-.92H23.3c-.1-.28-.2-.52-.3-.77-.53-1.34-1.07-2.69-1.59-4a.26.26,0,0,0-.29-.19H16.21a.61.61,0,0,1-.62-.85A.63.63,0,0,1,16.23,0h5.42a.63.63,0,0,1,.7.49c.77,1.92,1.52,3.86,2.3,5.78a2.61,2.61,0,0,1,.2,1.07V21.59c0,.56-.22.77-.78.77H.78c-.57,0-.78-.21-.78-.79V6.91a.82.82,0,0,1,.06-.34q1.2-3,2.43-6.06A.65.65,0,0,1,3.24,0H8.63a.61.61,0,0,1,.62.87.63.63,0,0,1-.63.36H4.23c-.23,0-.52-.07-.68,0s-.21.41-.3.63L1.6,6l-.07.2h6a.63.63,0,0,1,.57.61.62.62,0,0,1-.57.61H1.24V21.12H23.6Z"/><path class="cls-1" d="M12.42,11.18H10a.63.63,0,0,1-.71-.7c0-1.21,0-2.41,0-3.61,0-.59.11-1.17.16-1.76l.3-2.91c.05-.54.1-1.08.16-1.62A.6.6,0,0,1,10.58,0h3.68a.62.62,0,0,1,.64.56c.11,1.07.21,2.14.32,3.21l.3,2.91v3.76c0,.5-.23.73-.74.73Zm1.8-5c0-.12,0-.21,0-.31-.15-1.49-.3-3-.44-4.47,0-.17-.07-.2-.23-.2-.64,0-1.28,0-1.92,0s-.5,0-.55.52C11,2.86,10.83,4,10.72,5.1c0,.37-.06.73-.1,1.11Zm.07,1.25H10.56V9.93h3.73Z"/><path class="cls-1" d="M18.33,19.25l.22.24a.63.63,0,0,1,0,.83.59.59,0,0,1-.83,0c-.44-.42-.88-.85-1.31-1.29a.61.61,0,0,1,.05-.87l1.1-1.09a.64.64,0,0,1,.92-.08.63.63,0,0,1,0,.92l-.06.08h1.75l-2.34-3.64-.13.2c-.91,1.4-1.81,2.81-2.72,4.22l-.15.23a.61.61,0,0,1-1-.62,1.28,1.28,0,0,1,.11-.2L17.2,13a.62.62,0,0,1,1.14,0l3.37,5.24a.63.63,0,0,1,.13.56.61.61,0,0,1-.64.46c-.87,0-1.74,0-2.6,0Z"/></g></g></g></svg>