<svg xmlns="http://www.w3.org/2000/svg" viewBox="0 0 17.2 26.85"><defs><style>.cls-1{fill:#425f66;}</style></defs><g id="Capa_2" data-name="Capa 2"><g id="NadaHero_Imagen" data-name="NadaHero Imagen"><g id="PEDkjJ.tif"><path class="cls-1" d="M17.2,13.69V25.94c0,1-.18,1.13-1,.58a3.18,3.18,0,0,0-4.18,0,1.06,1.06,0,0,1-1.41,0,3,3,0,0,0-4,0,1.19,1.19,0,0,1-1.58,0,3,3,0,0,0-3.84-.07C.08,27.14,0,27,0,25.64V1.6C0,.26.26,0,1.63,0H15.74c1.15,0,1.46.31,1.46,1.45ZM.7,25.89a6.31,6.31,0,0,0,1.1-.53,2,2,0,0,1,2.63,0,2.17,2.17,0,0,0,2.9,0,1.86,1.86,0,0,1,2.5,0,2.26,2.26,0,0,0,3,0c.22-.17.51-.23.74-.39a.9.9,0,0,1,1,0c.59.33,1.2.6,1.87.93,0-.26,0-.4,0-.55,0-8,0-15.93,0-23.9,0-.62-.23-.76-.8-.76h-14c-1,0-1,0-1,.95V25.89Z"/><path class="cls-1" d="M8.26,8.21a5.6,5.6,0,0,1,0-.92c0-.15.22-.26.34-.39.11.13.3.25.33.4a5.9,5.9,0,0,1,0,1c.77,0,1.47,0,2.17,0,.2,0,.38.23.56.35-.18.1-.36.28-.55.29-.68,0-1.37,0-2.11,0v3.44c.82,0,1.76-.13,2.35.73a3.75,3.75,0,0,1,.31,2.44c0,1.12-.6,1.45-2.68,1.7a7.11,7.11,0,0,1-.06.92c0,.14-.22.26-.34.39-.11-.14-.3-.26-.33-.4a6.16,6.16,0,0,1,0-1c-.75,0-1.44,0-2.12,0-.21,0-.41-.19-.61-.29.21-.12.41-.34.63-.35.66-.05,1.32,0,2,0V13.07c-.86,0-1.95.18-2.36-.8a6.24,6.24,0,0,1-.3-2.44C5.57,8.74,6.22,8.38,8.26,8.21Zm0,.8c-1-.18-1.72-.08-1.8.41a5.32,5.32,0,0,0,0,2.48c.24.74,1.11.46,1.77.44ZM9,13.07v3.42c.68,0,1.56.27,1.79-.49a4.38,4.38,0,0,0,0-2.46C10.55,12.83,9.69,13.08,9,13.07Z"/></g></g></g></svg>