<svg xmlns="http://www.w3.org/2000/svg" viewBox="0 0 18.94 34.47"><defs><style>.cls-1{fill:#425f66;}</style></defs><g id="Capa_2" data-name="Capa 2"><g id="NadaHero_Imagen" data-name="NadaHero Imagen"><path class="cls-1" d="M9.47,13.73a3.64,3.64,0,1,0,3.64,3.64A3.64,3.64,0,0,0,9.47,13.73Zm0,6.2A2.56,2.56,0,1,1,12,17.37,2.56,2.56,0,0,1,9.47,19.93Zm3.1-10.09a8.62,8.62,0,0,0,3.9-2.28,9.92,9.92,0,0,0,2.46-7,.34.34,0,0,0,0-.1.54.54,0,0,0-1.07.1c0,.1-.34,1.24-4.55,2.48A7.65,7.65,0,0,0,7.64,9.46l-.3.08A4.94,4.94,0,0,0,3.72,5.46C1.48,4.8,1.13,4.2,1.09,4.11A.55.55,0,0,0,.6,3.6.53.53,0,0,0,0,4.06v.09A6.2,6.2,0,0,0,1.57,8.58a6,6,0,0,0,3.8,1.71A8.79,8.79,0,0,0,.66,18.08c0,2.24,1.23,6.12,3.12,9.88,1,2,3.52,6.51,5.69,6.51,3.41,0,8.81-11.76,8.81-16.39A8.82,8.82,0,0,0,12.57,9.84Zm1-5.77a13.56,13.56,0,0,0,4.15-1.81,8.27,8.27,0,0,1-2.08,4.56c-1.56,1.63-3.89,2.45-6.92,2.45h0A6.61,6.61,0,0,1,13.61,4.07ZM2.36,7.84A4.68,4.68,0,0,1,1.22,5.62a10.32,10.32,0,0,0,2.2.88A3.82,3.82,0,0,1,6.19,9.27,5.33,5.33,0,0,1,2.36,7.84ZM9.47,33.39c-2.31,0-7.73-10.73-7.73-15.31a7.73,7.73,0,0,1,15.46,0C17.2,22.66,11.78,33.39,9.47,33.39Z"/></g></g></svg>