<svg xmlns="http://www.w3.org/2000/svg" viewBox="0 0 29.25 31.47"><defs><style>.cls-1{fill:#425f66;}</style></defs><g id="Capa_2" data-name="Capa 2"><g id="NadaHero_Imagen" data-name="NadaHero Imagen"><path class="cls-1" d="M26.82,15.7H24.43c3.44-7.06,4.51-12.89,2.69-15A2.23,2.23,0,0,0,24.57.17C22,1.06,19,8.42,17.42,12.79a3.87,3.87,0,0,0-.34-1.74,5.16,5.16,0,0,0,.76-2,5.26,5.26,0,0,0-10.32-2,2.09,2.09,0,0,0-2.15-.19,1.94,1.94,0,0,0-1,1.37,1,1,0,0,1-.25.5c-.08.08-.27.08-.56.08a2.15,2.15,0,0,0-1.71.53,2.63,2.63,0,0,0-.48,3,3.55,3.55,0,0,0,.41.55c.51.62.89,1.15.61,1.84a3.46,3.46,0,0,0-.23,1,2.42,2.42,0,0,0,.31,4.83h.26L5.35,31a.57.57,0,0,0,.55.43H23.39a.57.57,0,0,0,.55-.43l2.65-10.48h.23a2.43,2.43,0,0,0,0-4.86Zm-8-3.3a2.2,2.2,0,0,0,1.31,1.72,1.64,1.64,0,0,0,.53.09,3.92,3.92,0,0,0,2.26-1.07.58.58,0,0,0,.17-.41.55.55,0,0,0-.17-.41,4.71,4.71,0,0,0-3.71-.93c.36-.92.74-1.85,1.13-2.76A2,2,0,0,0,21.5,10a1.68,1.68,0,0,0,.54.08A3.78,3.78,0,0,0,24.29,9a.52.52,0,0,0,.18-.41.55.55,0,0,0-.18-.41,4.46,4.46,0,0,0-3.4-1c.37-.79.74-1.55,1.11-2.25a1.79,1.79,0,0,0,1,.92,1.7,1.7,0,0,0,.54.09A3.88,3.88,0,0,0,25.79,5,.59.59,0,0,0,26,4.54a.56.56,0,0,0-.18-.42,4.08,4.08,0,0,0-2.71-1,4.79,4.79,0,0,1,1.86-1.91,1.1,1.1,0,0,1,1.33.24C27.5,2.89,27,7.94,23.16,15.7H17.61C18,14.68,18.34,13.56,18.77,12.4Zm1.19.07a3.85,3.85,0,0,1,1.54.28,1.5,1.5,0,0,1-1.07.3A1,1,0,0,1,20,12.47Zm1.43-4.1a4,4,0,0,1,1.54.28,1.42,1.42,0,0,1-1.07.3A.88.88,0,0,1,21.39,8.37Zm1.5-4.09a3.56,3.56,0,0,1,1.54.28,1.45,1.45,0,0,1-1.07.29A.89.89,0,0,1,22.89,4.28ZM8.56,7.6a4.13,4.13,0,0,1,8.16,1.26A4,4,0,0,1,16,10.67a.58.58,0,0,0,0,.62A2.72,2.72,0,0,1,15,15a.57.57,0,0,0-.22.7H13.5v-.28a2.69,2.69,0,0,1-2.72-3.11.6.6,0,0,0-.27-.56A4.12,4.12,0,0,1,8.56,7.6ZM16.67,15c-.11.31-.19.57-.25.75H16A4.26,4.26,0,0,0,16.67,15ZM2.35,11.82a1.5,1.5,0,0,1,.24-1.66,1.14,1.14,0,0,1,.9-.21,1.78,1.78,0,0,0,1.34-.36,2,2,0,0,0,.58-1c.11-.37.18-.54.47-.69.72-.36,1.33.35,1.52.61a5.21,5.21,0,0,0,2.21,4,3.91,3.91,0,0,0,1.46,3.17H9.54A15.74,15.74,0,0,0,6.89,9.42a.56.56,0,0,0-.88.7A15.22,15.22,0,0,1,8.38,15.7H7.77a.51.51,0,0,0-.24-.24,5.57,5.57,0,0,0-2.39-.39.57.57,0,0,0-.55.59s0,0,0,0H3.26a2.22,2.22,0,0,1,.14-.55,2.85,2.85,0,0,0-.79-3A1.8,1.8,0,0,1,2.35,11.82ZM23,30.34H6.34L3.86,20.56H25.42Zm3.87-10.92H2.43a1.3,1.3,0,1,1,0-2.59H26.82a1.3,1.3,0,1,1,0,2.59ZM6.92,24.16H9.77a.57.57,0,1,0,0-1.13H6.92a.57.57,0,1,0,0,1.13ZM4.52,13.37a4.71,4.71,0,0,1,1.87.27.56.56,0,0,0,.76-.26.58.58,0,0,0-.27-.76,5.44,5.44,0,0,0-2.39-.38.56.56,0,0,0-.55.58A.57.57,0,0,0,4.52,13.37Zm8.57,13.26H10.24a.57.57,0,1,0,0,1.13h2.85a.57.57,0,1,0,0-1.13Zm6.68-2.47h2.85a.57.57,0,1,0,0-1.13H19.77a.57.57,0,1,0,0,1.13Zm-6.19,0h2.86a.57.57,0,0,0,0-1.13H13.58a.57.57,0,0,0,0,1.13Zm6.17,2.47H16.9a.57.57,0,1,0,0,1.13h2.85a.57.57,0,1,0,0-1.13Z"/></g></g></svg>