<svg xmlns="http://www.w3.org/2000/svg" viewBox="0 0 33 33.23"><defs><style>.cls-1{fill:#425f66;}</style></defs><g id="Capa_2" data-name="Capa 2"><g id="NadaHero_Imagen" data-name="NadaHero Imagen"><path class="cls-1" d="M30.67,19.3l.17.05a.55.55,0,0,0,.38,0,.53.53,0,0,0,.25-.28l1.35-3.6a2.84,2.84,0,0,0-1.66-3.66l-3.41-1.28h0L26.44,10a.32.32,0,0,0,0-.09L22.66,1.67A2.83,2.83,0,0,0,18.89.26l-3.5,1.59a.49.49,0,0,0-.24.64,2.21,2.21,0,0,1-.75,3L8.64,3.34a2.84,2.84,0,0,0-2.18.07A2.79,2.79,0,0,0,5,5L3.62,8.61a.48.48,0,0,0,0,.37.49.49,0,0,0,.27.26,2.48,2.48,0,0,1,1.45,3.18,2.48,2.48,0,0,1-3.19,1.45.44.44,0,0,0-.37,0,.44.44,0,0,0-.25.27L.18,17.75a2.86,2.86,0,0,0,1.67,3.67L12.19,25.3,15,31.56a2.84,2.84,0,0,0,1.59,1.49,2.94,2.94,0,0,0,1,.18A2.84,2.84,0,0,0,18.8,33l3.5-1.6a.48.48,0,0,0,.25-.64,1.53,1.53,0,0,1,0-1.56l1.85.69a2.73,2.73,0,0,0,1,.19A2.86,2.86,0,0,0,27.62,29h.07l3.51-1.59a2.86,2.86,0,0,0,1.41-3.78ZM16.21,2.54l3.09-1.4a1.87,1.87,0,0,1,2.48.93l3.39,7.48L15.49,5.91A3.11,3.11,0,0,0,16.21,2.54Zm-14,18A1.86,1.86,0,0,1,1.1,18.09l1.19-3.17a3.45,3.45,0,0,0,3.88-4.79,3.39,3.39,0,0,0-1.48-1.6L5.88,5.35a1.87,1.87,0,0,1,2.41-1.1l18.66,7-6.1,16.25ZM21.48,30.69l-3.08,1.4a1.86,1.86,0,0,1-2.48-.93l-2.44-5.38L21,28.6h0l.64.24A2.31,2.31,0,0,0,21.48,30.69Zm5.65-2.82A1.88,1.88,0,0,1,24.71,29l-2.95-1.1L27.87,11.6l2.94,1.11a1.87,1.87,0,0,1,1.1,2.41L30.72,18.3a3.44,3.44,0,0,0-3.88,4.79,3.43,3.43,0,0,0,1.48,1.6Zm3.66-1.41-2.53,1.15,1.13-3a.5.5,0,0,0,0-.38.51.51,0,0,0-.27-.25,2.46,2.46,0,0,1-1.45-3.18h0A2.48,2.48,0,0,1,29,19.41a3,3,0,0,1,.63-.18s0,0,0,.06L31.72,24A1.87,1.87,0,0,1,30.79,26.46ZM16.53,12a6,6,0,0,0-1.77.63c-.24.11-.45.21-.66.29a.27.27,0,0,0,0-.15.61.61,0,0,0-.05-.12,3.51,3.51,0,0,0,1.57-3.92.51.51,0,0,0-.26-.3.49.49,0,0,0-.41,0,3.7,3.7,0,0,0-2.2,2.18,2.36,2.36,0,0,0-.09.43,3,3,0,0,0-1-.37.49.49,0,0,0-.54.42.49.49,0,0,0,.42.55,2.25,2.25,0,0,1,1.67,1.49.43.43,0,0,1,0,.07l-.3.06a5.06,5.06,0,0,0-2.71,1.15,3.8,3.8,0,0,0-.55,4.05,6.16,6.16,0,0,0,4.92,3.9h.06a2,2,0,0,0,1.3-.67,2,2,0,0,1,.61-.44,2.07,2.07,0,0,1,.76,0,1.83,1.83,0,0,0,1.5-.38,6.38,6.38,0,0,0,1.39-5.87C19.51,12.88,18.21,11.83,16.53,12Zm-2.88-1.12a2.37,2.37,0,0,1,1.09-1.25,2.49,2.49,0,0,1-1.11,2.12A1.62,1.62,0,0,1,13.65,10.86Zm4.47,9.26c-.13.12-.37.12-.77.09a3.29,3.29,0,0,0-1.11.09,2.83,2.83,0,0,0-1,.64c-.24.22-.47.43-.66.42a5.21,5.21,0,0,1-4-3.22A2.85,2.85,0,0,1,11,15a5.09,5.09,0,0,1,2.16-.8,8.16,8.16,0,0,0,1-.26,9.15,9.15,0,0,0,1-.43A5.81,5.81,0,0,1,16.62,13h.22c1.37,0,2.07,1.24,2.42,2.3h0A5.39,5.39,0,0,1,18.12,20.12Z"/></g></g></svg>