<svg xmlns="http://www.w3.org/2000/svg" viewBox="0 0 285.04 277.01"><defs><style>.cls-1{fill:#fff;}.cls-2{fill:#85bf6c;}.cls-3{fill:#e42522;}.cls-4{fill:#f3981a;}</style></defs><g id="Capa_2" data-name="Capa 2"><g id="NadaHero_Imagen" data-name="NadaHero Imagen"><rect class="cls-1" width="285.04" height="277.01" rx="12"/><path class="cls-2" d="M134.28,69.13s-.46-13-14.54-17.1-13.51-8.26-13.51-8.26S104.14,70.15,134.28,69.13Z"/><path class="cls-2" d="M115.77,145.49l.17-.07a31,31,0,0,1-8.43-21.29,31.5,31.5,0,0,1,62.19-6.83q8-5.2,15.57-10.83c.68-.51,13.16-9.37,13.85-9.88,6.44-4.34,11-8.88,5.19-6-2.37,1.18-19.7,9.53-20.24,8.72a54.08,54.08,0,0,0-99.15,29.45c0,6.55,1.38,15.87,3.81,26.42C96.74,152.72,106,149.51,115.77,145.49Z"/><path class="cls-3" d="M92.37,169.21c1.2,4.18,2.53,8.45,4,12.71,49.39,1.52,86.07-4.64,86.07-4.64,6.39-19.11,10.53-37.64,10.53-48.51a53.18,53.18,0,0,0-2.42-15.9q-9.63,7.17-19.91,13.66l-.27.17a31.54,31.54,0,0,1-47,24.57q-2.33,1-4.66,1.95c-8.54,3.49-16.4,6.3-23.32,8.55-1.6.52-22.09,7.39-23.59,7.85C80.72,170,91.79,167.2,92.37,169.21Z"/><path class="cls-4" d="M142.34,229c-1.54,1,15.1-10.18,24.68-14.47a258.49,258.49,0,0,0,12.1-27.87c-8.25,1.78-54.78,5.7-79.79,3.79,1.71,4.58,3.52,9.1,5.42,13.45,11.33.22,28.94-.6,28.94-.6,1.43-.95-13,8.78-22.74,13.55,8.64,16.35,18.48,28.12,28,28.12,6.37,0,13.3-6.49,20-16.52C150.29,228.58,142.34,229,142.34,229Z"/><path class="cls-2" d="M140.2,69.11s.74-21.16,23.74-27.92S186,27.7,186,27.7,189.41,70.78,140.2,69.11Z"/></g></g></svg>