<svg xmlns="http://www.w3.org/2000/svg" viewBox="0 0 92.37 105.24"><defs><style>.cls-1{fill:#57b51a;}</style></defs><g id="Capa_2" data-name="Capa 2"><g id="NadaHero_Imagen" data-name="NadaHero Imagen"><path class="cls-1" d="M19.58,47.94a11.08,11.08,0,0,0,10.08,6.47,10.92,10.92,0,0,0,4.57-1,11,11,0,0,0,6.46-9.58,8.23,8.23,0,0,0,3.12-10.42.3.3,0,0,1,0-.08l2-2A4,4,0,1,0,49.25,24,4.11,4.11,0,0,0,48,23.77a3.66,3.66,0,0,0-.29-1,3.85,3.85,0,0,0-7,3.19,3.48,3.48,0,0,0,.45.74L38.84,29a8.24,8.24,0,0,0-6,.31,8.11,8.11,0,0,0-3.47,3,11,11,0,0,0-4.3,1,10.63,10.63,0,0,0-2.37,1.48V5.52a1.39,1.39,0,0,0-2.78,0v32A1.24,1.24,0,0,0,20,38,11,11,0,0,0,19.58,47.94Zm6.64-12.11a8,8,0,0,1,3.41-.74h.46a1.4,1.4,0,0,0,1.31-.75,5.39,5.39,0,0,1,7.19-2.45,1.41,1.41,0,0,0,1.57-.28l4-4a1.39,1.39,0,0,0-.42-2.25,1.09,1.09,0,0,1-.54-.53,1.06,1.06,0,0,1,0-.82,1,1,0,0,1,.55-.6,1.08,1.08,0,0,1,1.42.53,1.05,1.05,0,0,1,0,1,1.39,1.39,0,0,0,2,1.84l.22-.13a1.23,1.23,0,0,1,1,0,1.25,1.25,0,0,1,.71.66,1.3,1.3,0,0,1,0,1,1.28,1.28,0,0,1-.67.7,1.24,1.24,0,0,1-1.52-.38,1.41,1.41,0,0,0-1-.55,1.39,1.39,0,0,0-1.08.4L41,32.13a1.46,1.46,0,0,0-.14,1.79,6.91,6.91,0,0,1,.38.65,5.48,5.48,0,0,1-2.59,7.21,1.38,1.38,0,0,0-.77,1.29,8.28,8.28,0,1,1-11.7-7.24ZM41.38,14.48a1.38,1.38,0,0,0,1.38-1.39V1.39a1.39,1.39,0,1,0-2.77,0v11.7A1.39,1.39,0,0,0,41.38,14.48ZM85.05,55.83H75.67l.14-.12a5.11,5.11,0,0,0,1-3.93,4.38,4.38,0,0,1,.39-2.49h0a1.38,1.38,0,0,0,.3-.24c1.93-2.17,2.2-4.8.68-6.71a4.31,4.31,0,0,0-3.39-1.61,2.12,2.12,0,0,1-1-.24,2.28,2.28,0,0,1-.31-1,4.74,4.74,0,0,0-1.91-3.39,5.66,5.66,0,0,0-6.55.35,6.82,6.82,0,0,0-1,1.1c-1,1.31-1.84,2.22-3.28,2a6.58,6.58,0,0,0-5.05,1.1,5.48,5.48,0,0,0-2.26,3.62,7.41,7.41,0,0,0,.28,2.84c.3,1.24.36,1.73-.12,2.26-.24.27-.5.53-.76.8-1.27,1.29-3,3.13-2.58,5.69H7.32a7.32,7.32,0,0,0,0,14.64H8.49L17,104.19a1.39,1.39,0,0,0,1.35,1H74.11a1.39,1.39,0,0,0,1.35-1L84,70.47h1.06a7.32,7.32,0,1,0,0-14.64ZM54.81,52.09c.3-.3.59-.6.85-.89,1.49-1.67,1.06-3.46.75-4.77a5.48,5.48,0,0,1-.23-1.81,2.78,2.78,0,0,1,1.14-1.75,3.83,3.83,0,0,1,3-.62c3.17.56,5-1.75,5.94-3a5.59,5.59,0,0,1,.55-.65A2.9,2.9,0,0,1,70,38.4c.48.33.58.78.74,1.61a4,4,0,0,0,1.39,2.71,4.38,4.38,0,0,0,2.45.77c.79.07,1.08.12,1.45.58.91,1.14-.08,2.53-.51,3s-1.6,1.76-1.45,4.81c.07,1.43-.23,1.82-.29,1.89s-.09.09-.39.1A1.38,1.38,0,0,0,72,55.31a1.28,1.28,0,0,0,.12.52H62.45c7.66-3.41,11.43-7.9,11.61-8.14a1.39,1.39,0,0,0-2.14-1.76c0,.06-5.3,6.29-16,9.29a1.34,1.34,0,0,0-.8.61H53.09C52.61,54.54,53.27,53.66,54.81,52.09ZM73,102.46H19.45l-8.09-32H81.12Zm12-34.77H7.32a4.54,4.54,0,0,1,0-9.08H85.05a4.54,4.54,0,1,1,0,9.08ZM67.9,33.93a1.39,1.39,0,0,0,1.39-1.39V14.21a1.39,1.39,0,1,0-2.78,0V32.54A1.39,1.39,0,0,0,67.9,33.93ZM21.63,82h9.09a1.39,1.39,0,0,0,0-2.78H21.63a1.39,1.39,0,0,0,0,2.78Zm21.24,0H52a1.39,1.39,0,1,0,0-2.78H42.87a1.39,1.39,0,0,0,0,2.78ZM30.8,92a1.39,1.39,0,0,0,1.39,1.38h9.09a1.39,1.39,0,1,0,0-2.77H32.19A1.39,1.39,0,0,0,30.8,92ZM62.56,82h9.09a1.39,1.39,0,1,0,0-2.78H62.56a1.39,1.39,0,1,0,0,2.78ZM52,92a1.38,1.38,0,0,0,1.39,1.38h9.09a1.39,1.39,0,1,0,0-2.77H53.43A1.39,1.39,0,0,0,52,92Z"/></g></g></svg>