<svg xmlns="http://www.w3.org/2000/svg" viewBox="0 0 22.6 21.97"><defs><style>.cls-1{fill:#358402;}.cls-2{fill:#fff;}</style></defs><g id="Capa_2" data-name="Capa 2"><g id="Layer_1" data-name="Layer 1"><rect class="cls-1" width="22.6" height="21.97" rx="10.98"/><path class="cls-2" d="M10.65,5.48A1.54,1.54,0,0,0,9.49,4.13c-1.11-.33-1.07-.66-1.07-.66A1.9,1.9,0,0,0,10.65,5.48Z"/><path class="cls-2" d="M9.18,11.54h0A2.48,2.48,0,0,1,11,7.36,2.5,2.5,0,0,1,13.46,9.3c.42-.27.83-.56,1.23-.86l1.1-.78c.51-.34.87-.7.41-.48a11.69,11.69,0,0,1-1.6.7,4.29,4.29,0,0,0-7.87,2.33A9.82,9.82,0,0,0,7,12.31C7.67,12.11,8.4,11.86,9.18,11.54Z"/><path class="cls-2" d="M7.32,13.42c.1.33.21.67.32,1a38.28,38.28,0,0,0,6.82-.37,14.25,14.25,0,0,0,.84-3.85A4.37,4.37,0,0,0,15.11,9c-.51.38-1,.74-1.58,1.08l0,0A2.5,2.5,0,0,1,9.78,12l-.37.16c-.67.28-1.3.5-1.85.68l-1.87.62C6.4,13.48,7.28,13.26,7.32,13.42Z"/><path class="cls-2" d="M11.29,18.15a20.89,20.89,0,0,1,2-1.14,19.35,19.35,0,0,0,1-2.21,37,37,0,0,1-6.32.3c.13.36.28.72.43,1.06.89,0,2.29,0,2.29,0s-1,.69-1.8,1.07c.68,1.3,1.46,2.23,2.22,2.23.5,0,1.05-.51,1.58-1.31Z"/><path class="cls-2" d="M11.12,5.48A2.51,2.51,0,0,1,13,3.27c1.82-.54,1.75-1.07,1.75-1.07S15,5.61,11.12,5.48Z"/></g></g></svg>