<svg xmlns="http://www.w3.org/2000/svg" viewBox="0 0 24.14 24.14"><defs><style>.cls-1{fill:#57b51a;}.cls-2{fill:#fff;stroke:#fff;stroke-linecap:round;stroke-linejoin:round;stroke-width:0.25px;}</style></defs><g id="Capa_2" data-name="Capa 2"><g id="Layer_1" data-name="Layer 1"><circle class="cls-1" cx="12.07" cy="12.07" r="12.07"/><g id="_7Xrzro.tif" data-name="7Xrzro.tif"><path class="cls-2" d="M7.69,6.73a1.21,1.21,0,0,1,.86.38l2,2,6.37,6.37A1,1,0,1,1,15.45,17L13.2,14.56l-1.63-1.74a.16.16,0,0,0-.19-.06,1.24,1.24,0,0,1-1.51-.41L7.29,9.11l-.44-.55a1.11,1.11,0,0,1,.68-1.81Zm3.87,5.43,0,.06c.48.5,1,1,1.42,1.51l2.74,2.91a.59.59,0,0,0,1-.24.62.62,0,0,0-.21-.63L9.43,8.62,8.2,7.39a.67.67,0,0,0-1,.9L8.34,9.72l1.88,2.35a.79.79,0,0,0,.91.31A4.41,4.41,0,0,0,11.56,12.16Z"/><path class="cls-2" d="M11.49,13.46l.31.32-.89.94c-.7.74-1.39,1.48-2.09,2.21a1.15,1.15,0,0,1-1.95-.5,1.11,1.11,0,0,1,.34-1.15l2.16-2,.34-.33.38.26-.76.72L7.51,15.61a.71.71,0,1,0,1,1l2.86-3Z"/><path class="cls-2" d="M17.42,8.34l.31.31-.08.09c-.66.78-1.33,1.54-2,2.32a1.44,1.44,0,0,1-1.61.47s-.11,0-.15,0-.06.07-.09.12l-.33-.32.4-.42a2.76,2.76,0,0,0,.43.2.93.93,0,0,0,1-.34L16.5,9.4Z"/><path class="cls-2" d="M15.47,6.39l.31.31-.13.11c-.77.67-1.55,1.33-2.33,2a.92.92,0,0,0-.34,1,2.69,2.69,0,0,0,.2.43l-.41.4-.29-.33c.15-.08.12-.21.08-.38a1.25,1.25,0,0,1,.35-1.33C13.75,7.84,14.61,7.13,15.47,6.39Z"/><path class="cls-2" d="M16.13,7.06l.28.27-2,2-.27-.28Z"/><path class="cls-2" d="M15,10l-.27-.27,2-2,.25.29Z"/></g></g></g></svg>