<svg xmlns="http://www.w3.org/2000/svg" viewBox="0 0 13.17 13.17"><defs><style>.cls-1{fill:#ff5f5f;}.cls-2{fill:#fff;}</style></defs><g id="Capa_2" data-name="Capa 2"><g id="Layer_1" data-name="Layer 1"><circle class="cls-1" cx="6.59" cy="6.59" r="6.59"/><path class="cls-2" d="M9.41,4.33a.17.17,0,0,0-.18.15L8.84,9.85H4.63l-.4-5.37a.16.16,0,1,0-.32,0L4.32,10a.15.15,0,0,0,.16.15H9A.16.16,0,0,0,9.15,10l.4-5.52A.16.16,0,0,0,9.41,4.33ZM6,8.31V5.57a.22.22,0,1,0-.43,0V8.31a.21.21,0,0,0,.22.21A.21.21,0,0,0,6,8.31Zm4.1-4.72H7.94V2.94a.16.16,0,0,0-.16-.16h-2a.16.16,0,0,0-.16.16v.65H3.47a.21.21,0,1,0,0,.42h6.59a.21.21,0,0,0,0-.42Zm-2.44,0H5.91V3.1H7.62ZM8,8.31V5.57a.21.21,0,0,0-.21-.22.22.22,0,0,0-.21.22V8.31a.21.21,0,0,0,.21.21A.21.21,0,0,0,8,8.31Z"/></g></g></svg>