<svg xmlns="http://www.w3.org/2000/svg" viewBox="0 0 233.61 108.65"><defs><style>.cls-1{fill:#85bf6c;}.cls-2{fill:#e42522;}.cls-3{fill:#f3981a;}</style></defs><g id="Capa_2" data-name="Capa 2"><g id="NadaHero_Imagen" data-name="NadaHero Imagen"><path class="cls-1" d="M31.26,20.72A9.71,9.71,0,0,0,24,12.17C16.94,10.1,17.23,8,17.23,8S16.18,21.23,31.26,20.72Z"/><path class="cls-1" d="M22,58.91l.09,0a15.51,15.51,0,0,1-4.22-10.65A15.75,15.75,0,0,1,49,44.81q4-2.6,7.79-5.41c.34-.26,6.59-4.69,6.93-4.95,3.22-2.16,5.5-4.43,2.59-3-1.18.59-9.85,4.77-10.12,4.36A27,27,0,0,0,6.57,50.55,63.86,63.86,0,0,0,8.48,63.77C12.48,62.53,17.1,60.92,22,58.91Z"/><path class="cls-2" d="M10.29,70.78c.61,2.09,1.27,4.22,2,6.35a242.23,242.23,0,0,0,43.05-2.31C58.52,65.26,60.6,56,60.6,50.55a26.75,26.75,0,0,0-1.21-7.95c-3.21,2.39-6.54,4.67-10,6.83l-.13.08A15.77,15.77,0,0,1,25.8,61.8l-2.33,1c-4.28,1.75-8.21,3.15-11.67,4.28C11,67.32.75,70.75,0,71,4.47,71.19,10,69.77,10.29,70.78Z"/><path class="cls-3" d="M35.29,100.66c-.77.51,7.55-5.09,12.34-7.24a129.35,129.35,0,0,0,6.06-13.94c-4.13.89-27.41,2.85-39.91,1.9.85,2.29,1.76,4.55,2.71,6.73,5.66.1,14.47-.31,14.47-.31a127.32,127.32,0,0,1-11.37,6.78c4.32,8.18,9.24,14.07,14,14.07,3.19,0,6.66-3.25,10-8.27C39.26,100.47,35.29,100.66,35.29,100.66Z"/><path class="cls-1" d="M34.22,20.71a15.85,15.85,0,0,1,11.87-14C57.6,3.37,57.13,0,57.13,0S58.83,21.54,34.22,20.71Z"/><path class="cls-1" d="M106.52,44.85c-.22,1.42-.43,2.79-.62,4.11s-.38,2.68-.57,4.06a27,27,0,0,1-.71,3.82,8.37,8.37,0,0,0-.1,1.77,2,2,0,0,0,1,1.49l-.78.45a1.84,1.84,0,0,0-.55.45,1.12,1.12,0,0,0-.26.71,5,5,0,0,1-.12.8q-.33,3-.71,5.85t-.67,5.86a14.3,14.3,0,0,0,0,2c0,.69,0,1.35,0,2a2.42,2.42,0,0,1-1.54.59,16.92,16.92,0,0,1-2.77.35A14.64,14.64,0,0,1,98,74.8c.15-1.43.3-2.86.46-4.27s.34-2.87.57-4.25.44-2.83.66-4.34l-.57-.1a1.72,1.72,0,0,0-.66,0c-2,.38-7.51,1.34-9.5,1.75a10.4,10.4,0,0,0-2.24.52,13.63,13.63,0,0,0-.83,2.55c-.08.79-.18,1.57-.31,2.36s-.29,1.7-.4,2.55-.21,1.7-.31,2.55-.11,1.64-.14,2.45-.08,1.64-.14,2.46c-1.33,0-3.27-.28-3.76-.76a3.61,3.61,0,0,1-.69-2.69c0-1.32.06-2.62.17-3.92s.2-2.59.26-3.91c.07-.35.11-.69.15-1s.07-.73.14-1.2L79.5,66a9.79,9.79,0,0,1-1.12.29,3.61,3.61,0,0,1-.88.07,2.24,2.24,0,0,1-.78-.17.71.71,0,0,1-.59-.66.78.78,0,0,1,.5-.75c.41-.22.84-.45,1.3-.67a4.56,4.56,0,0,1,1.45-.42A2.73,2.73,0,0,0,81,62.77a4.39,4.39,0,0,0,.79-2q.66-3.12,1.42-6.16t1.57-6.16l.29-.87a9.29,9.29,0,0,1,.33-.92c.47-1,1-1.59,1.42-1.75a4.63,4.63,0,0,1,3,.75q-1,3.87-1.9,7.79a67.84,67.84,0,0,0-1.24,8,10.22,10.22,0,0,0,2.07-.19c1.84-.32,7.94-1,9.81-1.33a4.31,4.31,0,0,0,1.06-.26,1.8,1.8,0,0,0,.67-.45,2.24,2.24,0,0,0,.43-.75,10.31,10.31,0,0,0,.31-1.18q.71-3.3,1.4-6.59t1.45-6.54A.3.3,0,0,1,104,44c.18-.23,1.77-.88,2-.69C106.57,43.79,106.64,44.07,106.52,44.85Z"/><path class="cls-1" d="M110.42,62.51c-.23.69-.45,1.53-.69,2.52a17.07,17.07,0,0,0-.45,2.86,7.55,7.55,0,0,0,.07,1.63,1.91,1.91,0,0,0,.4,1,.63.63,0,0,0,.74.14,2.79,2.79,0,0,0,1.07-1,14.07,14.07,0,0,0,1.07-1.81c.3-.62.57-1.23.83-1.84s.52-1.22.81-1.82a13.25,13.25,0,0,1,1-1.75,2.08,2.08,0,0,1,1.15-.8,1.85,1.85,0,0,1,1.47.14,2.46,2.46,0,0,1,1.07.9,2.36,2.36,0,0,1,.26,1.51,10.88,10.88,0,0,0-.07,1.27c0,.66,0,1.35,0,2.06a12.89,12.89,0,0,0,.22,2c.11.59.3.91.59.94s.45,0,.69-.31a13,13,0,0,0,.88-1.11,8.68,8.68,0,0,0,.66-1.13c.23-.44.44-.87.65-1.3s.39-.82.57-1.18a6.14,6.14,0,0,1,.45-.82c.31-.44.65-.61,1-.5s.53.47.5,1.06a8.16,8.16,0,0,1-.69,1.8,21.36,21.36,0,0,1-1.26,2.14,14.5,14.5,0,0,1-1.57,2,5.26,5.26,0,0,1-1.61,1.23,2.41,2.41,0,0,1-1.67.21,2.18,2.18,0,0,1-1.12-.85,4.27,4.27,0,0,1-.66-1.53,12.38,12.38,0,0,1-.29-1.84,15.91,15.91,0,0,1,0-1.82,7.16,7.16,0,0,1,.19-1.39c-.38.72-.77,1.47-1.16,2.24a19.41,19.41,0,0,1-1.29,2.15,13,13,0,0,1-1.47,1.77A4.53,4.53,0,0,1,111,72.33a6.27,6.27,0,0,1-1.42.33,2.88,2.88,0,0,1-1.36-.14,3.6,3.6,0,0,1-1.74-1.77,5.33,5.33,0,0,1-.42-2.53,14.25,14.25,0,0,1,.31-2.48c.17-.83.33-1.64.49-2.43s.5-1.19.75-1.32a2.85,2.85,0,0,1,1.45-.05,5,5,0,0,1,1,.26C110.38,62.31,110.48,62.41,110.42,62.51Z"/><path class="cls-1" d="M135,66.47a24.28,24.28,0,0,1-1.43,2.18,15.71,15.71,0,0,1-1.9,2.17,9.6,9.6,0,0,1-2.26,1.6,4.3,4.3,0,0,1-2.49.47,3.29,3.29,0,0,1-2.5-1.46,6,6,0,0,1-.9-2.83,12,12,0,0,1,.21-3.26,11.67,11.67,0,0,1,.86-2.74,4.79,4.79,0,0,1,2.18-2.47,4.45,4.45,0,0,1,3.05-.31,1.81,1.81,0,0,1,1.16,1,2.47,2.47,0,0,1,.09,1.46,5.73,5.73,0,0,1-.66,1.68,8.73,8.73,0,0,1-1.14,1.58A13.19,13.19,0,0,1,128,66.76a2.86,2.86,0,0,1-1.12.61c0,.44,0,.95.09,1.54a3.92,3.92,0,0,0,.38,1.39.88.88,0,0,0,1.19.45,6.11,6.11,0,0,0,1.9-1.09,18,18,0,0,0,2.19-2.08A23.76,23.76,0,0,0,134.75,65c.48-.47.78-.7.93-.68s.19.15.14.4a4.16,4.16,0,0,1-.33.92Q135.22,66.14,135,66.47Zm-6.28-5.42a9.47,9.47,0,0,0-.83,1.22,5.5,5.5,0,0,0-.47,1.14,8.45,8.45,0,0,0-.27,1.2,10.28,10.28,0,0,0-.09,1.44l.88-1.11c.36-.46.7-.93,1-1.42a8.54,8.54,0,0,0,.76-1.41,1.36,1.36,0,0,0,.05-1.16.46.46,0,0,0-.43-.28A.87.87,0,0,0,128.76,61.05Z"/><path class="cls-1" d="M141.4,62.84a5.29,5.29,0,0,1-.54.73,6.07,6.07,0,0,0-.55.73c-.28.54-.64,1.17-1.07,1.89s-.83,1.49-1.21,2.29-.72,1.6-1,2.38a8.38,8.38,0,0,0-.55,2.13c0,.46-.24.83-1.31.83-.23,0-.48,0-.73,0-.07-.41-.35-1.82-.38-2.17a17.41,17.41,0,0,1,0-3.82c.16-1.26.37-2.51.62-3.73,0-.13.07-.25.1-.38a1.31,1.31,0,0,1,.09-.28,2.37,2.37,0,0,1,.86-1.21,2.53,2.53,0,0,1,1.61,0c-.09.88-.19,1.76-.28,2.64s-.21,1.77-.33,2.65a.75.75,0,0,0,.33.09l1-2c.4-.77.83-1.54,1.31-2.31s1-1.51,1.42-2.22a11.72,11.72,0,0,1,1.38-1.72c.07-.07.3-.09.71-.07a4.79,4.79,0,0,0,.86,0c-.06,1.36-.07,2.69,0,4s0,2.66,0,4a4.47,4.47,0,0,1-1.23-1,2.05,2.05,0,0,1-.57-1.2c0-.35-.06-.7-.07-1.07s0-.73-.08-1.11a.68.68,0,0,0-.21,0A.45.45,0,0,1,141.4,62.84Z"/><path class="cls-1" d="M158.47,79.31a13,13,0,0,1-3.54,0c-.24-.15.5-10.84,1.27-14.61s1.63-7.62,2.58-11.58c.19-.76.45-1.51-4.38.8-.86.41-1.65.93-2.48,1.37-1.64.82-3.37,1.74-5.18,2.78-.66.07-.9-3.19-.71-3.35a5.19,5.19,0,0,1,.57-.42c3.07-2,20.46-10.73,28.54-11.15,1.76-.09,2,2.07,2.75,3.09a.41.41,0,0,1-.29.66c-2.09.22-9.27,1.44-12.27,3.55-.24.17-.32.53-.45.87q-2.08,5.63-3.63,11.35C160.22,66.5,158.47,79.31,158.47,79.31Z"/><path class="cls-1" d="M178.57,65.34c-.35.07-.77.12-1.26.17l-1.12.11h-.09a17.59,17.59,0,0,1-.74,2.34,16,16,0,0,1-1.16,2.43,9.71,9.71,0,0,1-1.48,1.94,2.89,2.89,0,0,1-1.56.9,8.78,8.78,0,0,1-2.71,0,3.54,3.54,0,0,1-2.29-1.65,7,7,0,0,1-1-2.86,7.74,7.74,0,0,1,.21-2.9,6,6,0,0,1,1.26-2.36,3.34,3.34,0,0,1,2.17-1.14,4.89,4.89,0,0,1-.22-1.65,4.4,4.4,0,0,1,.43-1.79,3.71,3.71,0,0,1,1.19-1.42,3.32,3.32,0,0,1,2.11-.52,3.47,3.47,0,0,1,2.33,1,5.26,5.26,0,0,1,1.24,2,9,9,0,0,1,.45,2.24,12,12,0,0,1,0,1.67,10.47,10.47,0,0,0,1.1,0c.34,0,.71,0,1.09.05,1,0,1.5.19,1.57.56S179.68,65.12,178.57,65.34Zm-8.89-1.46a6.91,6.91,0,0,0-.76,2.15,5.54,5.54,0,0,0,0,2.07,4.91,4.91,0,0,0,.69,1.73,2.5,2.5,0,0,0,1.31,1A5.67,5.67,0,0,0,172,69.73a7.82,7.82,0,0,0,.86-1.41,12.19,12.19,0,0,0,.59-1.47c.16-.47.29-.88.38-1.23a8.69,8.69,0,0,1-2.54-.47A2.57,2.57,0,0,1,169.68,63.88Zm4.47-.14a11.6,11.6,0,0,0-.07-2.41,7.65,7.65,0,0,0-.6-2.22c-.34-.69-.73-1.08-1.14-1.16a1.3,1.3,0,0,0-1.11.31,2.71,2.71,0,0,0-.79,1.23,2.46,2.46,0,0,0-.05,1.56,3.66,3.66,0,0,0,1.29,2A3.36,3.36,0,0,0,174.15,63.74Z"/><path class="cls-1" d="M216.16,54.11l-.73-.71c-.24-.22-.52-.46-.84-.71.07-.25.15-.5.24-.73a5.7,5.7,0,0,0,.24-.69q.19-.66.33-1.29a8.24,8.24,0,0,0,.19-1.25,1.71,1.71,0,0,0-.35-1.26c-.24-.2-4.44-1.39-13,8.9a36.66,36.66,0,0,0-5.63,9.4,11.32,11.32,0,0,0-.81,2.24c-.19.77-.36,1.56-.52,2.38a5.87,5.87,0,0,0-.09,1c0,.32,0,.63,0,1a1.54,1.54,0,0,0,.36,1,.84.84,0,0,0,.93.14,13.66,13.66,0,0,0,1.45-.28c.49-.13,1-.29,1.45-.47a18.93,18.93,0,0,0,4.25-2.58q2-1.57,3.83-3.33c.57-.5,1.11-1,1.64-1.53l1.59-1.58a2.76,2.76,0,0,0,.57-.69,7.43,7.43,0,0,1,.71-1,5.79,5.79,0,0,0-2.35.35c-.68.27-1.34.51-2,.73a2,2,0,0,1-1.14.14,1.78,1.78,0,0,1-1.05-.89c.19-.19.38-.36.57-.52a3.36,3.36,0,0,1,.67-.43,31.27,31.27,0,0,1,4.63-1.51c1.57-.37,3.18-.67,4.82-.89a2.55,2.55,0,0,1,1.24.09,1.73,1.73,0,0,1,.95,1l-.83.33c-.24.09-.49.17-.74.24-.13.4-.26.81-.4,1.22s-.3.79-.45,1.14l-2.5,6.06q-1.26,3-2.49,6.11a13.41,13.41,0,0,0-.62,1.92c-.16.64-.35,1.28-.57,1.91q-3.66.09-2.76-3.73a21.61,21.61,0,0,1,.64-2.55l.88-2.79c-.32.19-.59.37-.81.52s-.44.33-.66.52a26.06,26.06,0,0,1-3,2.22,26.75,26.75,0,0,1-3.31,1.8,7.21,7.21,0,0,1-3.25.7,7,7,0,0,1-3.26-1,5.59,5.59,0,0,1-1.78-1.7,4.49,4.49,0,0,1-.64-2.5,13.88,13.88,0,0,1,.4-3.37A17.79,17.79,0,0,1,193.35,64a31.94,31.94,0,0,1,3.35-6.09,66.16,66.16,0,0,1,4.21-5.33,12.89,12.89,0,0,1,1.07-1c8.07-7.74,12.82-7.4,13.71-6.71a11.26,11.26,0,0,1,1,.95c.33.34.66.69,1,1a3.35,3.35,0,0,1,.86,1.77,5.18,5.18,0,0,1-.14,2,7.86,7.86,0,0,1-.88,1.82A11,11,0,0,1,216.16,54.11Z"/><path class="cls-1" d="M232,65.34c-.35.07-.77.12-1.26.17l-1.12.11h-.09a17.59,17.59,0,0,1-.74,2.34,15.16,15.16,0,0,1-1.17,2.43,9.32,9.32,0,0,1-1.47,1.94,2.88,2.88,0,0,1-1.57.9,8.78,8.78,0,0,1-2.71,0,3.55,3.55,0,0,1-2.28-1.65,6.86,6.86,0,0,1-1-2.86,7.74,7.74,0,0,1,.21-2.9,5.84,5.84,0,0,1,1.26-2.36,3.34,3.34,0,0,1,2.16-1.14,4.9,4.9,0,0,1-.21-1.65,4.4,4.4,0,0,1,.43-1.79,3.62,3.62,0,0,1,1.19-1.42,3.3,3.3,0,0,1,2.11-.52,3.49,3.49,0,0,1,2.33,1,5.26,5.26,0,0,1,1.24,2,9,9,0,0,1,.45,2.24,13.8,13.8,0,0,1,0,1.67,10.29,10.29,0,0,0,1.09,0c.35,0,.72,0,1.1.05,1,0,1.5.19,1.57.56S233.15,65.12,232,65.34Zm-8.89-1.46a6.91,6.91,0,0,0-.76,2.15,5.54,5.54,0,0,0,0,2.07,4.91,4.91,0,0,0,.69,1.73,2.5,2.5,0,0,0,1.31,1,5.67,5.67,0,0,0,1.11-1.13,8.43,8.43,0,0,0,.86-1.41,14.09,14.09,0,0,0,.59-1.47c.16-.47.29-.88.38-1.23a8.69,8.69,0,0,1-2.54-.47A2.55,2.55,0,0,1,223.15,63.88Zm4.47-.14a11.6,11.6,0,0,0-.07-2.41,8,8,0,0,0-.6-2.22c-.35-.69-.73-1.08-1.14-1.16a1.33,1.33,0,0,0-1.12.31,2.78,2.78,0,0,0-.78,1.23,2.39,2.39,0,0,0,0,1.56,3.66,3.66,0,0,0,1.29,2A3.34,3.34,0,0,0,227.62,63.74Z"/></g></g></svg>