<svg xmlns="http://www.w3.org/2000/svg" viewBox="0 0 10.81 10.83"><defs><style>.cls-1{fill:#ff9045;}</style></defs><g id="Capa_2" data-name="Capa 2"><g id="Layer_1" data-name="Layer 1"><g id="UiPTy6.tif"><path class="cls-1" d="M0,5.45A5.43,5.43,0,0,1,5,0a1,1,0,0,1,.41,0,2.42,2.42,0,0,1,.45.34c-.13.16-.23.39-.39.46a3.18,3.18,0,0,1-.77.1A4.57,4.57,0,0,0,5.71,10,4.51,4.51,0,0,0,10,5.24,4.5,4.5,0,0,0,7.5,1.35c-.12-.06-.29-.09-.37-.18S6.75.74,6.79.59c.09-.35.41-.28.69-.17a5.44,5.44,0,0,1,3,6.76,5.36,5.36,0,0,1-6.14,3.56A5.42,5.42,0,0,1,0,5.45Z"/><path class="cls-1" d="M5.83,5H8.36c.14,0,.31,0,.4,0a1.79,1.79,0,0,1,.39.43c-.14.12-.28.35-.43.35q-1.64.06-3.27,0c-.16,0-.42-.28-.43-.45C5,4.3,5,3.22,5,2.15c0-.16.28-.31.42-.46.13.17.37.34.37.52C5.85,3.13,5.83,4,5.83,5Z"/></g></g></g></svg>