<svg xmlns="http://www.w3.org/2000/svg" viewBox="0 0 24.89 40"><defs><style>.cls-1{fill:#85bf6c;}.cls-2{fill:#e42522;}.cls-3{fill:#f3981a;}</style></defs><g id="Capa_2" data-name="Capa 2"><g id="Layer_1" data-name="Layer 1"><path class="cls-1" d="M11.51,7.63A3.59,3.59,0,0,0,8.83,4.48C6.24,3.72,6.34,3,6.34,3S6,7.82,11.51,7.63Z"/><path class="cls-1" d="M8.1,21.69h0A5.78,5.78,0,1,1,18,16.5c1-.64,1.94-1.3,2.87-2l2.55-1.82c1.18-.79,2-1.63.95-1.1a26.13,26.13,0,0,1-3.72,1.61A10,10,0,0,0,2.42,18.61a23.44,23.44,0,0,0,.7,4.87C4.6,23,6.3,22.43,8.1,21.69Z"/><path class="cls-2" d="M3.79,26.06c.22.77.47,1.55.73,2.34a88.94,88.94,0,0,0,15.85-.86,32.93,32.93,0,0,0,1.94-8.93,9.81,9.81,0,0,0-.45-2.93Q20.09,17,18.2,18.2l-.05,0a5.78,5.78,0,0,1-5.78,5.28,5.69,5.69,0,0,1-2.87-.76c-.29.12-.57.25-.86.36-1.57.65-3,1.16-4.3,1.58C4.05,24.78.28,26.05,0,26.13,1.64,26.21,3.68,25.69,3.79,26.06Z"/><path class="cls-3" d="M13,37.06a43.29,43.29,0,0,1,4.55-2.67,46.56,46.56,0,0,0,2.22-5.13A85.3,85.3,0,0,1,5.07,30c.32.84.65,1.67,1,2.48,2.09,0,5.33-.11,5.33-.11.26-.18-2.4,1.61-4.19,2.49,1.59,3,3.4,5.18,5.15,5.18,1.18,0,2.45-1.2,3.69-3C14.45,37,13,37.06,13,37.06Z"/><path class="cls-1" d="M12.6,7.62A5.83,5.83,0,0,1,17,2.48C21.21,1.24,21,0,21,0S21.66,7.93,12.6,7.62Z"/></g></g></svg>