<svg xmlns="http://www.w3.org/2000/svg" viewBox="0 0 8.69 11.05"><defs><style>.cls-1{fill:#425f66;}</style></defs><g id="Capa_2" data-name="Capa 2"><g id="Layer_1" data-name="Layer 1"><path class="cls-1" d="M8.69,5.81l-.07-.62a.13.13,0,0,0,0-.06A1.46,1.46,0,0,0,7.5,4.55a.2.2,0,0,0-.13,0,.21.21,0,0,0,0,.13v2.2a2.77,2.77,0,0,1-.65.89,6.8,6.8,0,0,0,.47-2h0A2.79,2.79,0,0,0,5.31,3.23,2.89,2.89,0,0,0,7,2.4,3.15,3.15,0,0,0,7.78.18v0a.18.18,0,0,0-.35,0S7.33.57,6,1a2.43,2.43,0,0,0-1.8,2.1H4.1A1.56,1.56,0,0,0,3,1.73c-.71-.21-.82-.4-.83-.42a.18.18,0,0,0-.35,0v0a2,2,0,0,0,.5,1.4,1.76,1.76,0,0,0,1,.52,2.8,2.8,0,0,0-1.78,2.6A8.17,8.17,0,0,0,2.53,9c.31.62,1.11,2.07,1.8,2.07S5.8,9.79,6.39,8.45A3.29,3.29,0,0,0,7.62,7.07a1.08,1.08,0,0,0,1.07-.85V5.81ZM6.09,1.29A4.35,4.35,0,0,0,7.41.72a2.71,2.71,0,0,1-.66,1.45,3,3,0,0,1-2.2.77h0A2.08,2.08,0,0,1,6.09,1.29ZM2.52,2.49a1.46,1.46,0,0,1-.36-.71,2.78,2.78,0,0,0,.69.28,1.2,1.2,0,0,1,.88.88A1.69,1.69,0,0,1,2.52,2.49ZM1.88,5.84a2.45,2.45,0,0,1,4.9-.07C5.16,7.19,2.49,6.94,2.06,6.89A3.72,3.72,0,0,1,1.88,5.84ZM6.12,8.2a3.58,3.58,0,0,1-1.23.46A.52.52,0,0,0,4,9.09a.55.55,0,0,0,.25.31.54.54,0,0,0,.25.06l.15,0A.54.54,0,0,0,5,9a3.9,3.9,0,0,0,.91-.27c-.53,1.08-1.17,2-1.55,2-.55,0-1.64-1.88-2.16-3.45a7.83,7.83,0,0,0,.83,0A6.38,6.38,0,0,0,6.75,6.23,7.94,7.94,0,0,1,6.12,8.2Zm-1.61.91a.18.18,0,0,1-.14,0A.14.14,0,0,1,4.29,9a.17.17,0,0,1,.12-.22h0a.17.17,0,0,1,.16.13A.18.18,0,0,1,4.51,9.11ZM8.34,6.19a.7.7,0,0,1-.68.53V4.92a1,1,0,0,1,.63.34l.05.58ZM1.18,4.55s-.83.06-1.1.58l0,.06L0,5.81v.41a1.09,1.09,0,0,0,1.2.85.17.17,0,0,0,.17-.17V4.72a.18.18,0,0,0-.06-.13A.18.18,0,0,0,1.18,4.55ZM1,6.72a.72.72,0,0,1-.68-.53V5.84L.4,5.26A.94.94,0,0,1,1,4.92Z"/></g></g></svg>