<svg xmlns="http://www.w3.org/2000/svg" viewBox="0 0 131.66 61.23"><defs><style>.cls-1{fill:#85bf6c;}.cls-2{fill:#e42522;}.cls-3{fill:#f3981a;}</style></defs><g id="Capa_2" data-name="Capa 2"><g id="Layer_1" data-name="Layer 1"><path class="cls-1" d="M17.62,11.68a5.47,5.47,0,0,0-4.1-4.82c-4-1.17-3.81-2.33-3.81-2.33S9.12,12,17.62,11.68Z"/><path class="cls-1" d="M12.4,33.2l0,0a8.71,8.71,0,0,1-2.38-6A8.88,8.88,0,0,1,27.6,25.26c1.5-1,3-2,4.39-3.06l3.9-2.78c1.82-1.22,3.11-2.5,1.47-1.69-.67.33-5.56,2.69-5.71,2.46A15.25,15.25,0,0,0,3.7,28.49a35.84,35.84,0,0,0,1.08,7.45C7,35.24,9.64,34.34,12.4,33.2Z"/><path class="cls-2" d="M5.8,39.89c.34,1.18.72,2.38,1.12,3.58a137,137,0,0,0,24.26-1.3c1.8-5.39,3-10.62,3-13.68A15,15,0,0,0,33.47,24q-2.71,2-5.61,3.85l-.08.05a8.89,8.89,0,0,1-13.24,6.92l-1.31.55c-2.41,1-4.63,1.78-6.58,2.41C6.2,37.94.42,39.88,0,40,2.52,40.12,5.64,39.32,5.8,39.89Z"/><path class="cls-3" d="M19.89,56.73a66.22,66.22,0,0,1,7-4.08,73.74,73.74,0,0,0,3.41-7.86A129.84,129.84,0,0,1,7.77,45.86c.48,1.29,1,2.57,1.52,3.8,3.2.06,8.16-.17,8.16-.17.4-.27-3.67,2.47-6.41,3.82,2.44,4.6,5.21,7.92,7.89,7.92,1.79,0,3.75-1.83,5.64-4.65C22.13,56.63,19.89,56.73,19.89,56.73Z"/><path class="cls-1" d="M19.28,11.67A8.94,8.94,0,0,1,26,3.8C32.46,1.9,32.2,0,32.2,0S33.16,12.14,19.28,11.67Z"/><path class="cls-1" d="M60,25.28c-.12.8-.24,1.57-.34,2.31s-.22,1.51-.33,2.29A14,14,0,0,1,59,32a4.93,4.93,0,0,0-.05,1,1.09,1.09,0,0,0,.59.83l-.44.26a1,1,0,0,0-.31.25.67.67,0,0,0-.15.4,2.12,2.12,0,0,1-.07.45c-.12,1.12-.25,2.22-.4,3.3s-.27,2.18-.37,3.3a6.86,6.86,0,0,0,0,1.12q0,.59,0,1.11a1.48,1.48,0,0,1-.87.34,10.08,10.08,0,0,1-1.56.19,8.29,8.29,0,0,1-.12-2.43c.08-.81.16-1.61.25-2.41s.2-1.61.32-2.39.25-1.6.38-2.45l-.32-.06a1.29,1.29,0,0,0-.38,0c-1.11.21-4.23.76-5.35,1a5.86,5.86,0,0,0-1.26.29,7.23,7.23,0,0,0-.47,1.44c0,.44-.1.89-.17,1.33s-.17,1-.23,1.43-.12,1-.17,1.44-.07.92-.09,1.39,0,.92-.08,1.38a4.53,4.53,0,0,1-2.11-.43,2,2,0,0,1-.39-1.51c0-.75,0-1.48.1-2.21s.11-1.47.14-2.21c0-.19.06-.39.08-.57s0-.41.08-.68l-.73.24c-.23.07-.44.12-.63.16a2.07,2.07,0,0,1-.5,0,1.37,1.37,0,0,1-.44-.09c-.21-.08-.33-.2-.34-.38a.46.46,0,0,1,.29-.42c.23-.13.47-.25.73-.38a2.57,2.57,0,0,1,.82-.23,1.57,1.57,0,0,0,.92-.52,2.48,2.48,0,0,0,.45-1.11c.25-1.17.51-2.33.8-3.47s.58-2.3.88-3.47c.06-.16.11-.33.16-.49s.12-.35.19-.52c.27-.57.54-.9.8-1a2.63,2.63,0,0,1,1.7.43c-.39,1.45-.75,2.92-1.07,4.39a37,37,0,0,0-.69,4.52A5.34,5.34,0,0,0,50,34.56c1-.17,4.47-.57,5.53-.74a2.89,2.89,0,0,0,.6-.15,1.14,1.14,0,0,0,.38-.25,1.57,1.57,0,0,0,.24-.43,5.19,5.19,0,0,0,.17-.66c.27-1.24.53-2.48.79-3.71s.53-2.47.82-3.69a.15.15,0,0,1,0-.11c.11-.14,1-.5,1.13-.4A.72.72,0,0,1,60,25.28Z"/><path class="cls-1" d="M62.23,35.23c-.12.39-.25.86-.39,1.42a9.72,9.72,0,0,0-.25,1.61,3.8,3.8,0,0,0,0,.92,1,1,0,0,0,.23.56.34.34,0,0,0,.41.08,1.51,1.51,0,0,0,.6-.55,6.71,6.71,0,0,0,.61-1c.17-.35.32-.69.47-1s.29-.68.45-1a8.09,8.09,0,0,1,.56-1,1.2,1.2,0,0,1,.65-.45,1.05,1.05,0,0,1,.83.08,1.22,1.22,0,0,1,.75,1.36,4.48,4.48,0,0,0,0,.72c0,.37,0,.75,0,1.15a9,9,0,0,0,.12,1.11c.06.33.17.51.33.53s.26,0,.39-.17a7.7,7.7,0,0,0,.5-.63,5.19,5.19,0,0,0,.37-.64c.13-.24.25-.49.37-.73s.22-.46.32-.66a3.17,3.17,0,0,1,.25-.47c.18-.25.37-.34.58-.28s.3.26.28.6a3.91,3.91,0,0,1-.39,1,11.56,11.56,0,0,1-.71,1.21,8.76,8.76,0,0,1-.88,1.11,3.21,3.21,0,0,1-.91.69,1.37,1.37,0,0,1-.94.12,1.22,1.22,0,0,1-.63-.48,2.47,2.47,0,0,1-.38-.87,6.91,6.91,0,0,1-.16-1,8.91,8.91,0,0,1,0-1,3.45,3.45,0,0,1,.11-.78q-.33.61-.66,1.26a9.43,9.43,0,0,1-.72,1.21,7.6,7.6,0,0,1-.83,1,2.58,2.58,0,0,1-1,.62,4.06,4.06,0,0,1-.8.19,1.5,1.5,0,0,1-.77-.08,2,2,0,0,1-1-1,3,3,0,0,1-.24-1.42,9.72,9.72,0,0,1,.17-1.4c.1-.47.19-.92.28-1.37s.28-.67.42-.74a1.67,1.67,0,0,1,.82,0,3.23,3.23,0,0,1,.58.15C62.21,35.12,62.27,35.18,62.23,35.23Z"/><path class="cls-1" d="M76.11,37.47c-.22.37-.49.78-.81,1.22a8.9,8.9,0,0,1-1.07,1.22,5.21,5.21,0,0,1-1.27.91,2.43,2.43,0,0,1-1.41.26,1.86,1.86,0,0,1-1.4-.82,3.26,3.26,0,0,1-.51-1.6,7.38,7.38,0,0,1,.6-3.38,2.66,2.66,0,0,1,1.23-1.39,2.51,2.51,0,0,1,1.72-.18,1,1,0,0,1,.65.56,1.44,1.44,0,0,1,.06.83,3.44,3.44,0,0,1-.38.94,4.93,4.93,0,0,1-.64.89,5.74,5.74,0,0,1-.72.69,1.56,1.56,0,0,1-.63.35,7.13,7.13,0,0,0,0,.87,2.14,2.14,0,0,0,.21.78.49.49,0,0,0,.67.25,3.23,3.23,0,0,0,1.07-.61,10.1,10.1,0,0,0,1.24-1.17A13.92,13.92,0,0,0,76,36.61c.26-.26.44-.39.52-.38s.1.08.08.22a2.09,2.09,0,0,1-.19.52C76.26,37.18,76.18,37.34,76.11,37.47Zm-3.54-3.06a4.23,4.23,0,0,0-.47.69,4,4,0,0,0-.27.64,4.4,4.4,0,0,0-.14.67,5,5,0,0,0-.06.82l.5-.63a8.93,8.93,0,0,0,.57-.8,4.19,4.19,0,0,0,.43-.8.75.75,0,0,0,0-.65.26.26,0,0,0-.24-.16A.5.5,0,0,0,72.57,34.41Z"/><path class="cls-1" d="M79.7,35.42a4,4,0,0,1-.31.41,2.94,2.94,0,0,0-.31.41c-.16.3-.36.66-.6,1.07s-.47.83-.69,1.29-.4.9-.57,1.34a4.84,4.84,0,0,0-.31,1.2c0,.26-.14.46-.74.46h-.41c0-.23-.2-1-.22-1.23a9.65,9.65,0,0,1,0-2.15c.09-.71.21-1.41.35-2.1,0-.07,0-.14,0-.21a.53.53,0,0,1,.06-.16,1.22,1.22,0,0,1,.48-.68,1.47,1.47,0,0,1,.91,0c-.06.5-.11,1-.16,1.49s-.12,1-.19,1.49a.38.38,0,0,0,.19.06q.24-.45.57-1.11c.23-.43.47-.87.74-1.3s.54-.85.8-1.25a6.56,6.56,0,0,1,.78-1s.17-.05.4,0a2.06,2.06,0,0,0,.48,0c0,.77,0,1.52,0,2.27s0,1.49,0,2.26a2.51,2.51,0,0,1-.7-.55,1.15,1.15,0,0,1-.32-.68c0-.19,0-.39,0-.6s0-.41,0-.62l-.12,0Z"/><path class="cls-1" d="M89.31,44.7a7.28,7.28,0,0,1-2,0A55.85,55.85,0,0,1,88,36.47q.66-3.18,1.46-6.53c.11-.43.25-.85-2.47.45-.49.23-.93.52-1.4.77-.92.46-1.9,1-2.91,1.57-.38,0-.51-1.8-.41-1.89l.32-.24c1.74-1.13,11.54-6,16.09-6.28,1-.05,1.1,1.17,1.55,1.74a.24.24,0,0,1-.17.38c-1.17.12-5.22.81-6.91,2a1.08,1.08,0,0,0-.25.49q-1.19,3.18-2.05,6.4C90.3,37.48,89.31,44.7,89.31,44.7Z"/><path class="cls-1" d="M100.64,36.83l-.71.09L99.3,37h0a9.29,9.29,0,0,1-.42,1.31,8.23,8.23,0,0,1-.65,1.37,5.29,5.29,0,0,1-.83,1.09,1.59,1.59,0,0,1-.89.51,4.83,4.83,0,0,1-1.52,0,2,2,0,0,1-1.29-.93,3.81,3.81,0,0,1-.55-1.61,4.4,4.4,0,0,1,.12-1.63,3.34,3.34,0,0,1,.71-1.33,1.82,1.82,0,0,1,1.22-.64,2.69,2.69,0,0,1-.12-.93,2.54,2.54,0,0,1,.24-1,2.12,2.12,0,0,1,.67-.79,1.88,1.88,0,0,1,1.19-.3,2,2,0,0,1,1.32.55,2.88,2.88,0,0,1,.69,1.13A5.34,5.34,0,0,1,99.4,35a7.75,7.75,0,0,1,0,1l.62,0c.19,0,.4,0,.61,0,.56,0,.85.11.89.32S101.27,36.7,100.64,36.83Zm-5-.83a4.28,4.28,0,0,0-.43,1.21,3.28,3.28,0,0,0,0,1.17,2.71,2.71,0,0,0,.39,1,1.47,1.47,0,0,0,.74.59A3.48,3.48,0,0,0,97,39.3a4,4,0,0,0,.48-.8c.13-.28.25-.56.34-.82s.16-.5.21-.69a5.09,5.09,0,0,1-1.43-.27A1.45,1.45,0,0,1,95.63,36Zm2.52-.08a6.3,6.3,0,0,0,0-1.36,4.48,4.48,0,0,0-.33-1.25c-.2-.39-.42-.6-.65-.65a.74.74,0,0,0-.63.18,1.68,1.68,0,0,0-.44.69,1.33,1.33,0,0,0,0,.88,2.08,2.08,0,0,0,.73,1.1A1.88,1.88,0,0,0,98.15,35.92Z"/><path class="cls-1" d="M121.83,30.49q-.21-.21-.42-.39c-.13-.13-.29-.26-.46-.4a2.92,2.92,0,0,1,.13-.42,3.43,3.43,0,0,0,.13-.38c.07-.25.14-.49.19-.73a6.12,6.12,0,0,0,.11-.71.93.93,0,0,0-.2-.7c-.14-.12-2.5-.79-7.34,5a20.51,20.51,0,0,0-3.18,5.3,7,7,0,0,0-.45,1.26c-.11.43-.21.88-.3,1.34a3.75,3.75,0,0,0-.05.56,4.58,4.58,0,0,0,0,.53.82.82,0,0,0,.2.56.46.46,0,0,0,.52.08,6.24,6.24,0,0,0,.82-.16,7.63,7.63,0,0,0,.81-.26,10.88,10.88,0,0,0,2.4-1.45c.74-.6,1.46-1.22,2.16-1.88.32-.28.63-.57.92-.86l.9-.89a1.76,1.76,0,0,0,.32-.39,4.81,4.81,0,0,1,.4-.55,3.4,3.4,0,0,0-1.32.2l-1.12.42a1.22,1.22,0,0,1-.64.08,1.07,1.07,0,0,1-.59-.51c.11-.11.22-.2.32-.29a2,2,0,0,1,.38-.24,16.9,16.9,0,0,1,2.61-.85,26.15,26.15,0,0,1,2.72-.51,1.63,1.63,0,0,1,.7.05,1,1,0,0,1,.53.59l-.47.19-.41.13c-.07.23-.15.46-.23.69s-.17.44-.25.64L120.29,39l-1.41,3.44a9,9,0,0,0-.35,1.08,8.83,8.83,0,0,1-.32,1.08c-1.37,0-1.89-.67-1.55-2.1A12.63,12.63,0,0,1,117,41l.5-1.57-.46.29c-.12.09-.25.19-.37.3A16.61,16.61,0,0,1,115,41.3a15,15,0,0,1-1.86,1,4.27,4.27,0,0,1-1.83.4,4.07,4.07,0,0,1-1.84-.56,3.18,3.18,0,0,1-1-1,2.55,2.55,0,0,1-.37-1.41,7.91,7.91,0,0,1,.23-1.9,10.14,10.14,0,0,1,.63-1.8,18,18,0,0,1,1.89-3.43,36.47,36.47,0,0,1,2.37-3c.2-.23.42-.4.6-.58,4.55-4.36,7.23-4.17,7.73-3.78a7.13,7.13,0,0,1,.58.53l.55.59a1.91,1.91,0,0,1,.48,1,2.9,2.9,0,0,1-.08,1.16,4.47,4.47,0,0,1-.5,1A5.64,5.64,0,0,1,121.83,30.49Z"/><path class="cls-1" d="M130.78,36.83l-.71.09-.63.07h-.06a9.94,9.94,0,0,1-1.07,2.68,5.29,5.29,0,0,1-.83,1.09,1.57,1.57,0,0,1-.88.51,4.9,4.9,0,0,1-1.53,0,2,2,0,0,1-1.29-.93,3.8,3.8,0,0,1-.54-1.61,4,4,0,0,1,.12-1.63,3.22,3.22,0,0,1,.71-1.33,1.79,1.79,0,0,1,1.21-.64,3.28,3.28,0,0,1-.12-.93,2.4,2.4,0,0,1,.25-1,2,2,0,0,1,.67-.79,1.87,1.87,0,0,1,1.19-.3,2,2,0,0,1,1.31.55,3,3,0,0,1,.7,1.13,5.31,5.31,0,0,1,.25,1.26,6.13,6.13,0,0,1,0,1l.62,0c.2,0,.4,0,.62,0,.55,0,.84.11.88.32S131.4,36.7,130.78,36.83Zm-5-.83a3.74,3.74,0,0,0-.43,1.21,3.28,3.28,0,0,0,0,1.17,2.54,2.54,0,0,0,.39,1,1.4,1.4,0,0,0,.73.59,2.94,2.94,0,0,0,.63-.64,4.63,4.63,0,0,0,.49-.8,8.78,8.78,0,0,0,.33-.82q.14-.41.21-.69a5.09,5.09,0,0,1-1.43-.27A1.43,1.43,0,0,1,125.77,36Zm2.51-.08a5.72,5.72,0,0,0,0-1.36,4.48,4.48,0,0,0-.33-1.25c-.2-.39-.41-.6-.64-.65a.73.73,0,0,0-.63.18,1.5,1.5,0,0,0-.44.69,1.33,1.33,0,0,0,0,.88,2.12,2.12,0,0,0,.72,1.1A1.89,1.89,0,0,0,128.28,35.92Z"/></g></g></svg>